{"glyphs":{"0":{"ha":807,"x_min":51,"x_max":756,"o":"m 378 -15 q 207 30 281 -15 q 92 157 133 75 q 51 347 51 239 q 101 551 51 461 q 239 690 150 640 q 440 740 328 740 q 605 696 533 740 q 716 572 676 651 q 756 386 756 492 q 708 178 756 269 q 574 35 660 86 q 378 -15 488 -15 m 399 88 q 565 164 503 88 q 628 371 628 240 q 573 570 628 490 q 422 668 518 650 q 299 631 354 668 q 212 528 243 593 q 181 379 181 463 q 208 226 181 293 q 284 124 235 160 q 399 88 333 88 z "},"1":{"ha":472,"x_min":15,"x_max":385,"o":"m 307 -8 q 228 0 274 -8 q 239 190 235 68 q 243 419 243 311 q 240 576 243 532 l 61 464 q 15 564 28 506 q 147 633 81 596 q 233 690 190 658 q 296 740 276 721 q 378 732 332 740 q 367 544 371 664 q 363 315 363 424 q 385 0 363 61 q 307 -8 346 -8 z "},"2":{"ha":700,"x_min":65,"x_max":635,"o":"m 606 -7 q 257 3 557 3 q 65 0 110 3 l 65 50 q 358 340 261 215 q 456 560 456 465 q 351 674 456 657 q 248 638 311 668 q 122 563 185 607 q 96 624 107 585 q 85 693 85 663 q 191 728 114 714 q 342 742 268 742 q 527 700 464 742 q 590 576 590 658 q 501 378 590 492 q 219 110 411 264 q 397 97 300 97 q 531 107 467 97 q 635 133 596 117 q 626 51 635 93 q 606 -7 618 10 z "},"3":{"ha":679,"x_min":58,"x_max":621,"o":"m 307 -15 q 58 49 163 -15 q 81 146 58 79 q 174 84 115 107 q 301 61 233 61 q 440 101 390 61 q 489 211 489 140 q 457 310 489 268 q 365 374 425 353 q 291 356 325 374 q 243 310 257 339 q 217 320 232 310 q 201 338 201 331 q 249 394 214 368 l 521 613 q 251 617 508 617 q 171 611 201 617 q 117 592 140 606 q 99 660 106 621 q 92 732 92 700 q 288 717 144 717 q 455 726 396 717 q 550 758 514 735 q 590 721 575 746 q 604 665 604 696 q 583 596 604 626 q 510 522 563 565 l 385 422 q 555 361 489 419 q 621 211 621 303 q 541 42 621 100 q 307 -15 461 -15 z "},"4":{"ha":668,"x_min":31,"x_max":624,"o":"m 472 -8 q 393 0 439 -8 q 406 175 404 79 l 322 175 q 158 169 217 175 q 58 149 99 164 q 31 197 31 164 q 40 255 31 229 q 71 322 49 281 q 206 547 114 394 q 338 758 297 699 q 421 749 385 758 q 489 715 457 739 q 331 544 425 661 q 138 265 238 428 q 408 263 299 263 q 386 475 408 442 q 464 483 424 483 q 542 475 499 483 q 528 267 531 396 q 624 288 588 272 q 617 224 624 258 q 599 161 610 189 l 526 169 q 549 0 529 31 q 472 -8 511 -8 z "},"5":{"ha":667,"x_min":58,"x_max":610,"o":"m 303 -15 q 58 49 161 -15 q 64 99 58 76 q 82 146 69 121 q 172 84 115 107 q 294 61 229 61 q 429 102 381 61 q 478 218 478 143 q 360 388 478 333 q 275 369 325 388 q 171 317 225 350 q 129 326 149 319 q 110 336 110 332 l 138 732 q 211 720 168 724 q 328 717 254 717 q 581 732 515 717 q 574 660 581 700 q 556 592 567 621 q 499 611 532 606 q 407 617 465 617 q 282 615 338 617 l 193 613 l 176 393 q 369 450 267 450 q 543 385 476 450 q 610 218 610 321 q 532 44 610 103 q 303 -15 454 -15 z "},"6":{"ha":696,"x_min":60,"x_max":638,"o":"m 340 -12 q 193 28 257 -12 q 94 141 129 68 q 60 310 60 214 q 153 631 60 521 q 428 740 247 740 q 593 707 526 740 q 582 638 593 676 q 556 576 571 599 q 451 647 507 618 q 363 675 396 675 q 251 583 294 653 q 196 403 208 513 q 396 464 290 464 q 571 401 504 464 q 638 233 638 338 q 600 106 638 163 q 494 19 563 50 q 340 -12 426 -12 m 350 61 q 463 109 421 61 q 506 238 506 157 q 457 346 506 306 q 326 386 408 386 q 192 322 246 364 l 192 307 q 233 126 192 190 q 350 61 275 61 z "},"7":{"ha":626,"x_min":44,"x_max":582,"o":"m 250 -8 q 165 1 201 -8 q 99 35 129 11 q 272 267 174 121 q 471 614 369 413 q 201 617 307 617 q 122 610 153 617 q 69 592 92 604 q 51 660 58 621 q 44 732 44 699 q 306 717 121 717 q 444 726 390 717 q 538 758 499 735 q 582 693 582 740 q 573 640 582 664 q 542 572 564 615 q 391 277 492 476 q 250 -8 290 78 z "},"8":{"ha":717,"x_min":58,"x_max":660,"o":"m 336 -15 q 135 33 213 -15 q 58 163 58 82 q 103 269 58 221 q 228 350 147 318 q 120 425 158 381 q 82 542 82 469 q 121 644 82 599 q 229 715 160 690 q 388 740 299 740 q 567 690 499 740 q 636 558 636 640 q 597 463 636 507 q 489 390 558 418 q 615 317 569 361 q 660 199 660 274 q 618 86 660 135 q 503 11 576 38 q 336 -15 429 -15 m 415 415 q 511 550 511 464 q 474 638 511 603 q 372 683 438 674 q 252 652 299 683 q 206 568 206 621 q 233 497 206 525 q 301 454 261 469 q 415 415 340 439 m 354 50 q 481 84 435 50 q 526 175 526 118 q 502 235 526 211 q 441 275 478 260 q 340 310 404 290 l 297 324 q 218 263 246 300 q 190 178 190 225 q 236 85 190 121 q 354 50 282 50 z "},"9":{"ha":682,"x_min":58,"x_max":624,"o":"m 290 -15 q 165 1 225 -15 q 58 49 106 18 q 64 99 58 76 q 82 146 69 121 q 166 83 114 106 q 278 60 218 60 q 426 126 374 60 q 489 299 479 193 q 286 236 392 236 q 122 304 185 236 q 60 483 60 372 q 94 617 60 558 q 190 708 128 675 q 331 740 251 740 q 483 696 417 740 q 587 572 550 651 q 624 388 624 492 q 539 87 624 189 q 290 -15 454 -15 m 356 314 q 492 378 433 336 q 445 583 488 510 q 331 656 403 656 q 229 612 267 656 q 192 494 192 568 q 235 363 192 411 q 356 314 279 314 z "},"\u0000":{"ha":0,"x_min":0,"x_max":0,"o":""},"\r":{"ha":463,"x_min":0,"x_max":0,"o":""}," ":{"ha":354,"x_min":0,"x_max":0,"o":""},"!":{"ha":332,"x_min":65,"x_max":267,"o":"m 107 485 q 100 641 107 574 q 81 735 93 708 q 233 760 154 760 q 222 567 226 699 q 217 294 217 436 q 125 218 161 254 l 107 218 l 107 485 m 165 -21 q 65 79 121 35 q 165 181 108 135 q 267 79 213 126 q 165 -21 219 24 z "},"\"":{"ha":396,"x_min":58,"x_max":351,"o":"m 128 443 q 58 519 106 472 l 58 747 q 169 763 115 763 q 156 621 158 690 q 153 443 153 551 l 128 443 m 310 443 q 239 519 276 483 l 239 747 q 351 763 297 763 q 338 621 340 690 q 335 443 335 551 l 310 443 z "},"#":{"ha":894,"x_min":58,"x_max":836,"o":"m 825 472 q 683 478 786 475 l 633 283 q 764 293 703 288 q 775 247 775 265 q 764 199 775 232 l 676 203 l 614 206 q 560 -65 564 -8 q 506 -76 521 -76 q 474 -72 492 -76 q 451 -65 457 -67 q 529 207 488 50 q 394 208 483 208 q 272 207 306 208 q 217 -65 221 -1 q 163 -76 181 -76 q 110 -65 149 -76 q 186 206 133 11 l 71 196 q 58 243 58 219 q 71 290 58 268 q 207 283 140 285 l 226 357 l 257 478 q 132 469 208 476 q 119 515 119 490 q 132 564 119 539 q 276 557 204 558 q 324 797 319 735 q 378 808 360 808 q 431 797 392 808 q 361 556 406 719 q 501 554 408 554 q 618 556 585 554 q 665 797 661 736 q 721 808 704 808 q 751 803 733 808 q 774 797 768 799 q 706 558 747 714 q 825 567 758 560 q 836 519 836 536 q 825 472 836 503 m 549 282 q 588 431 563 331 l 600 481 q 457 482 551 482 q 342 481 374 482 q 303 332 328 432 l 290 282 q 440 281 340 281 q 549 282 518 281 z "},"$":{"ha":622,"x_min":53,"x_max":569,"o":"m 314 -119 q 271 -115 296 -119 q 274 13 274 -43 q 53 63 147 17 q 58 114 53 92 q 76 160 64 136 q 164 108 108 126 q 285 89 219 89 q 399 115 360 89 q 439 188 439 140 q 401 259 439 231 q 281 325 363 288 q 167 383 211 357 q 92 450 122 410 q 61 546 61 490 q 119 654 61 610 q 275 708 176 699 q 267 846 274 804 q 310 853 294 853 q 353 846 332 853 q 349 713 349 790 q 536 679 460 710 q 525 610 536 649 q 499 549 514 571 q 378 618 440 590 q 278 646 317 646 q 221 617 249 640 q 193 560 193 593 q 233 483 193 514 q 358 415 274 453 q 468 360 425 385 q 540 296 511 335 q 569 204 569 257 q 514 73 569 121 q 349 15 458 25 q 357 -115 354 -94 q 314 -119 336 -119 z "},"%":{"ha":1039,"x_min":42,"x_max":996,"o":"m 226 353 q 93 405 144 353 q 42 542 42 457 q 103 688 42 631 q 263 746 165 746 q 392 695 342 746 q 442 563 442 644 q 381 411 442 469 q 226 353 321 353 m 239 425 q 318 460 289 425 q 347 557 347 496 q 322 651 347 614 q 250 697 296 689 q 167 659 200 697 q 135 561 135 621 q 163 462 135 499 q 239 425 192 425 m 364 -104 q 314 -92 346 -104 q 617 788 481 333 q 674 800 651 800 q 724 788 692 800 q 421 -92 557 363 q 364 -104 386 -104 m 781 -8 q 647 44 699 -8 q 596 181 596 96 q 658 327 596 269 q 817 385 719 385 q 946 334 896 385 q 996 201 996 283 q 935 50 996 108 q 781 -8 875 -8 m 793 64 q 872 99 843 64 q 901 196 901 135 q 876 290 901 253 q 804 336 850 328 q 722 298 754 336 q 689 200 689 260 q 717 101 689 138 q 793 64 746 64 z "},"&":{"ha":749,"x_min":44,"x_max":733,"o":"m 251 -15 q 102 34 160 -15 q 44 163 44 83 q 94 293 44 235 q 233 383 144 351 q 181 477 197 436 q 165 556 165 518 q 199 650 165 608 q 293 716 233 692 q 428 740 353 740 q 626 693 543 740 q 615 625 626 664 q 589 563 604 586 q 507 636 547 608 q 413 683 467 664 q 323 651 357 683 q 289 568 289 619 q 356 431 289 529 q 519 225 424 332 q 561 400 554 306 q 693 408 631 408 q 619 281 664 367 q 563 178 583 211 q 733 21 661 72 q 658 -1 697 6 q 564 -8 618 -8 l 486 78 q 251 -15 393 -15 m 310 50 q 451 117 388 50 q 261 343 314 272 q 199 272 221 315 q 176 176 176 229 q 213 85 176 119 q 310 50 250 50 z "},"'":{"ha":214,"x_min":58,"x_max":169,"o":"m 128 443 q 58 519 106 472 l 58 747 q 169 763 115 763 q 156 621 158 690 q 153 443 153 551 l 128 443 z "},"(":{"ha":439,"x_min":74,"x_max":424,"o":"m 417 -165 q 161 -26 249 -165 q 74 367 74 113 q 160 760 74 622 q 417 899 247 899 q 424 840 424 864 q 417 781 424 815 q 268 793 329 793 q 223 659 239 783 q 207 367 207 535 q 223 75 207 199 q 268 -58 239 -49 q 417 -46 329 -58 q 424 -107 424 -81 q 417 -165 424 -131 z "},")":{"ha":439,"x_min":15,"x_max":365,"o":"m 22 -165 q 15 -107 15 -131 q 22 -46 15 -81 q 171 -58 110 -58 q 216 75 200 -49 q 232 367 232 199 q 216 659 232 535 q 171 793 200 783 q 22 781 110 793 q 15 840 15 815 q 22 899 15 864 q 278 760 192 899 q 365 367 365 622 q 278 -26 365 113 q 22 -165 190 -165 z "},"*":{"ha":563,"x_min":65,"x_max":499,"o":"m 246 403 q 261 592 263 493 q 83 529 168 528 q 65 654 65 597 q 256 638 149 635 q 192 817 189 724 q 318 835 260 835 q 300 644 300 763 q 482 706 393 707 q 492 654 485 692 q 499 583 499 617 q 306 600 411 601 q 368 419 371 510 q 246 403 297 403 z "},"+":{"ha":740,"x_min":101,"x_max":640,"o":"m 640 369 q 633 317 640 344 q 418 322 489 322 q 422 121 418 221 q 371 114 397 114 q 318 121 346 114 q 324 322 321 186 q 108 317 253 322 q 101 368 101 342 q 108 421 101 393 q 324 417 217 417 q 318 646 324 544 q 369 653 343 653 q 422 646 394 653 q 418 417 418 569 q 633 421 525 417 q 640 369 640 396 z "},",":{"ha":293,"x_min":46,"x_max":218,"o":"m 46 -149 q 78 -83 67 -121 q 90 -4 90 -44 q 67 118 90 64 q 125 142 90 132 q 186 151 160 151 l 218 117 q 172 -36 213 36 q 61 -165 131 -108 l 46 -149 z "},"-":{"ha":592,"x_min":81,"x_max":511,"o":"m 100 196 q 81 335 81 258 q 289 328 175 328 q 406 335 347 328 q 493 354 465 343 q 511 215 511 292 q 304 222 419 222 q 185 215 243 222 q 100 196 126 207 z "},".":{"ha":292,"x_min":46,"x_max":246,"o":"m 146 -21 q 46 79 101 35 q 146 181 89 135 q 246 79 183 135 q 146 -21 196 19 z "},"/":{"ha":469,"x_min":74,"x_max":396,"o":"m 126 -121 q 74 -108 111 -121 q 203 406 122 60 q 288 840 283 753 q 342 853 322 853 q 396 840 358 853 q 267 326 347 672 q 182 -108 186 -21 q 126 -121 147 -121 z "},":":{"ha":292,"x_min":46,"x_max":246,"o":"m 146 -21 q 46 79 101 35 q 146 181 89 135 q 246 79 183 135 q 146 -21 196 19 m 146 379 q 46 479 101 435 q 146 581 89 535 q 246 479 183 535 q 146 379 196 419 z "},";":{"ha":292,"x_min":46,"x_max":246,"o":"m 46 -149 q 78 -83 67 -121 q 90 -4 90 -44 q 67 118 90 64 q 125 142 90 132 q 186 151 160 151 l 218 117 q 172 -36 213 36 q 61 -165 131 -108 l 46 -149 m 146 379 q 46 479 101 435 q 146 581 89 535 q 246 479 183 535 q 146 379 196 419 z "},"<":{"ha":740,"x_min":101,"x_max":633,"o":"m 593 618 q 633 521 625 583 l 235 368 l 633 217 q 593 119 625 160 q 348 226 496 165 q 106 318 200 286 q 101 368 101 343 q 106 421 101 394 q 346 512 197 451 q 593 618 494 572 z "},"=":{"ha":740,"x_min":101,"x_max":640,"o":"m 108 178 q 101 229 101 203 q 108 282 101 254 q 371 278 196 278 q 633 282 546 278 q 640 231 640 257 q 633 178 640 206 q 371 183 517 183 q 108 178 225 183 m 108 456 q 101 507 101 481 q 108 560 101 532 q 371 556 196 556 q 633 560 546 556 q 640 508 640 535 q 633 456 640 483 q 371 461 517 461 q 108 456 225 461 z "},">":{"ha":740,"x_min":107,"x_max":639,"o":"m 147 119 q 107 217 115 160 l 506 369 l 107 521 q 147 618 115 578 q 394 512 246 572 q 635 421 543 451 q 639 369 639 394 q 635 318 639 343 q 389 224 538 285 q 147 119 240 164 z "},"?":{"ha":532,"x_min":29,"x_max":474,"o":"m 193 346 q 303 422 265 372 q 342 539 342 472 q 308 646 342 608 q 213 683 274 683 q 119 661 163 683 q 49 599 76 639 q 29 696 29 646 q 240 760 125 760 q 414 703 354 760 q 474 538 474 646 q 435 413 474 467 q 338 328 397 358 q 215 290 278 297 l 193 346 m 229 -21 q 128 79 188 31 q 229 181 175 136 q 329 79 272 128 q 229 -21 279 19 z "},"@":{"ha":1156,"x_min":79,"x_max":1078,"o":"m 529 -172 q 294 -114 396 -172 q 135 51 192 -56 q 79 294 79 157 q 147 571 79 450 q 337 759 215 692 q 613 826 458 826 q 856 767 751 826 q 1019 599 961 707 q 1078 349 1078 490 q 1042 147 1078 228 q 949 28 1006 67 q 833 -10 893 -10 q 724 25 771 -10 q 663 131 676 60 q 570 85 618 101 q 483 68 522 68 q 406 98 436 68 q 375 175 375 128 q 447 288 375 249 q 667 335 519 328 q 642 433 668 403 q 558 463 617 463 q 479 449 519 463 q 408 411 439 435 l 399 446 q 491 528 433 497 q 610 560 549 560 q 736 520 692 560 q 781 407 781 481 q 774 279 781 381 q 768 181 768 207 q 791 84 768 111 q 856 57 814 57 q 913 82 885 57 q 960 158 942 107 q 979 286 979 210 q 882 575 979 461 q 611 715 785 689 q 387 662 486 715 q 231 513 288 608 q 175 297 175 417 q 217 90 175 181 q 340 -53 260 -1 q 533 -106 421 -106 q 619 -94 578 -106 q 686 -65 661 -83 q 708 -131 708 -94 q 529 -172 629 -172 m 536 129 q 598 144 565 132 q 658 175 631 157 q 665 294 658 238 q 540 265 583 290 q 496 196 496 239 q 507 158 496 176 q 536 129 518 140 z "},"A":{"ha":700,"x_min":7,"x_max":693,"o":"m 619 -7 q 540 3 583 -7 l 476 183 q 314 189 411 189 q 174 182 211 189 q 110 3 143 101 q 64 -6 85 -6 q 7 3 36 -6 q 144 331 46 72 q 292 735 243 589 q 353 742 329 742 q 408 735 378 742 q 556 331 457 589 q 693 3 654 72 q 619 -7 658 -7 m 367 265 q 446 267 424 265 q 325 576 378 453 q 207 269 275 461 q 367 265 278 265 z "},"B":{"ha":722,"x_min":86,"x_max":665,"o":"m 363 -17 q 217 -6 290 -17 q 97 21 144 4 q 106 201 103 82 q 110 433 110 321 q 86 701 110 653 q 210 728 136 718 q 357 739 285 739 q 560 688 489 739 q 631 543 631 638 q 600 450 631 492 q 514 382 569 408 q 625 310 585 358 q 665 200 665 263 q 587 40 665 96 q 363 -17 508 -17 m 229 392 q 357 406 281 406 q 415 403 397 406 q 499 528 499 460 q 342 649 499 649 q 238 635 285 649 q 229 392 232 532 m 347 46 q 532 200 532 46 q 503 290 532 251 q 421 350 475 329 q 228 311 357 350 q 236 64 228 146 q 347 46 286 46 z "},"C":{"ha":678,"x_min":58,"x_max":650,"o":"m 375 -15 q 140 75 222 -15 q 58 335 58 165 q 105 545 58 453 q 235 689 151 638 q 428 740 319 740 q 629 707 546 740 q 619 638 629 676 q 593 576 608 600 q 468 644 535 617 q 363 672 401 672 q 277 616 317 661 q 214 506 238 571 q 190 374 190 442 q 252 163 190 232 q 415 93 314 93 q 640 143 553 93 l 650 108 q 528 19 604 53 q 375 -15 453 -15 z "},"D":{"ha":796,"x_min":86,"x_max":738,"o":"m 328 -8 q 204 -2 268 -8 q 94 14 140 4 q 106 197 101 81 q 110 417 110 313 q 86 701 110 649 q 205 728 131 718 q 356 739 279 739 q 639 643 540 739 q 738 369 738 547 q 686 173 738 258 q 542 40 635 88 q 328 -8 449 -8 m 393 63 q 500 113 451 71 q 577 217 549 156 q 606 344 606 279 q 326 649 606 649 q 238 636 281 649 q 228 315 228 481 q 235 90 228 181 q 393 63 339 63 z "},"E":{"ha":661,"x_min":86,"x_max":601,"o":"m 94 -4 q 107 215 104 140 q 110 417 110 289 q 86 732 110 646 q 310 722 160 722 q 596 732 494 722 q 588 651 596 694 q 567 592 579 608 q 481 619 533 610 q 372 629 428 629 q 236 618 299 629 q 229 410 231 501 l 264 408 q 343 406 317 406 q 445 409 410 406 q 524 421 481 413 q 529 369 529 393 q 524 317 529 350 q 285 326 371 326 q 228 325 244 326 q 233 113 228 174 q 379 99 300 99 q 501 108 440 99 q 601 136 563 118 q 593 55 601 99 q 572 -4 585 11 q 317 6 483 6 q 94 -4 168 6 z "},"F":{"ha":597,"x_min":86,"x_max":568,"o":"m 172 -8 q 94 0 139 -8 q 106 169 101 61 q 110 372 110 276 q 86 732 110 636 q 310 722 158 722 q 568 732 472 722 q 560 651 568 694 q 539 592 553 608 q 463 619 508 610 q 372 629 418 629 q 238 618 300 629 q 231 410 232 488 l 263 408 q 329 406 307 406 q 420 409 389 406 q 496 421 451 413 q 501 369 501 393 q 496 317 501 347 l 435 319 q 275 326 349 326 q 228 325 242 326 q 250 0 228 58 q 172 -8 213 -8 z "},"G":{"ha":738,"x_min":58,"x_max":663,"o":"m 375 -15 q 140 75 222 -15 q 58 335 58 165 q 105 545 58 453 q 235 689 151 638 q 428 740 319 740 q 644 707 554 740 q 633 639 644 678 q 607 576 622 600 q 474 644 544 617 q 363 672 404 672 q 277 616 317 661 q 214 506 238 571 q 190 374 190 442 q 247 148 190 217 q 432 79 303 79 q 536 93 490 79 q 514 372 536 319 q 583 381 550 381 q 663 372 618 381 q 650 81 650 232 q 528 11 604 38 q 375 -15 453 -15 z "},"H":{"ha":765,"x_min":86,"x_max":678,"o":"m 172 -8 q 94 0 139 -8 q 106 190 101 68 q 110 419 110 311 q 86 732 110 674 q 161 740 126 740 q 243 732 197 740 q 229 413 232 611 q 424 406 304 406 q 538 410 442 406 q 515 732 538 668 q 590 740 553 740 q 671 732 625 740 q 660 542 664 664 q 656 313 656 421 q 678 0 656 61 q 601 -8 640 -8 q 522 0 567 -8 q 536 322 533 118 q 357 326 450 326 q 228 324 294 326 q 250 0 228 64 q 172 -8 213 -8 z "},"I":{"ha":336,"x_min":86,"x_max":250,"o":"m 172 -8 q 94 0 139 -8 q 106 190 101 68 q 110 419 110 311 q 86 732 110 674 q 161 740 126 740 q 243 732 197 740 q 232 544 236 664 q 228 315 228 424 q 250 0 228 61 q 172 -8 213 -8 z "},"J":{"ha":419,"x_min":-21,"x_max":346,"o":"m 110 -17 q -21 3 40 -17 q -11 62 -21 24 q 13 126 -1 100 q 102 65 58 88 q 175 42 146 42 q 203 86 194 56 q 215 188 213 117 q 218 417 218 260 q 190 732 218 664 q 267 740 228 740 q 346 732 303 740 q 336 315 336 639 q 110 -17 336 -17 z "},"K":{"ha":693,"x_min":86,"x_max":693,"o":"m 172 -8 q 94 0 139 -8 q 106 190 101 68 q 110 419 110 311 q 86 732 110 674 q 161 740 126 740 q 243 732 197 740 q 228 374 231 583 q 438 616 385 542 q 492 725 492 690 q 665 740 574 740 q 378 436 563 643 q 693 21 592 94 q 616 -2 656 4 q 525 -8 576 -8 q 290 339 460 101 l 263 307 q 228 267 240 279 q 250 0 231 54 q 172 -8 213 -8 z "},"L":{"ha":574,"x_min":86,"x_max":560,"o":"m 94 -4 q 108 234 106 171 q 110 419 110 297 q 86 732 110 675 q 163 740 124 740 q 243 732 197 740 q 232 536 236 657 q 228 315 228 415 q 233 114 228 171 q 378 101 296 101 q 477 112 428 101 q 560 139 526 122 q 550 54 560 97 q 529 -4 540 11 q 315 6 438 6 q 94 -4 168 6 z "},"M":{"ha":990,"x_min":86,"x_max":904,"o":"m 150 -8 q 93 0 125 -8 q 104 419 104 147 q 100 631 104 561 q 86 732 96 701 q 161 740 124 740 q 242 732 192 740 q 362 461 283 633 q 492 188 440 289 q 618 457 544 294 q 740 732 692 619 q 818 740 768 740 q 896 732 853 740 q 886 545 890 664 q 882 315 882 426 q 904 0 882 56 q 829 -8 867 -8 q 747 0 793 -8 q 758 190 754 69 q 763 417 763 310 q 760 575 763 486 q 494 0 653 360 q 464 -7 476 -7 q 436 0 453 -7 q 325 250 399 89 q 189 539 251 411 q 186 315 186 394 q 201 0 186 65 q 150 -8 176 -8 z "},"N":{"ha":744,"x_min":81,"x_max":665,"o":"m 139 -8 q 85 0 117 -8 q 96 419 96 147 q 81 732 96 667 q 151 740 124 740 q 232 732 183 740 q 386 460 286 633 q 564 158 486 286 q 567 417 567 322 q 551 732 567 675 q 606 740 579 740 q 661 732 631 740 q 653 538 657 660 q 650 313 650 417 q 665 0 650 65 q 594 -8 643 -8 q 513 0 564 -8 q 360 270 460 96 q 182 572 260 444 q 178 315 178 450 q 193 0 178 65 q 139 -8 168 -8 z "},"O":{"ha":849,"x_min":58,"x_max":790,"o":"m 388 -18 q 215 26 290 -18 q 99 152 140 71 q 58 339 58 233 q 108 549 58 457 q 247 692 158 640 q 450 743 336 743 q 628 697 551 743 q 748 569 706 651 q 790 378 790 486 q 739 173 790 263 q 596 33 688 83 q 388 -18 504 -18 m 419 54 q 594 130 529 54 q 658 336 658 206 q 601 531 658 454 q 443 626 544 608 q 313 590 371 626 q 223 488 256 553 q 190 342 190 424 q 253 133 190 213 q 419 54 317 54 z "},"P":{"ha":668,"x_min":86,"x_max":631,"o":"m 172 -8 q 94 0 139 -8 q 106 190 101 69 q 110 419 110 311 q 86 701 110 649 q 199 728 129 718 q 342 739 269 739 q 556 676 481 739 q 631 494 631 613 q 592 353 631 415 q 485 257 554 292 q 328 222 417 222 q 229 232 272 222 q 250 0 232 51 q 172 -8 213 -8 m 379 293 q 465 367 431 314 q 499 483 499 419 q 313 649 499 649 q 238 639 272 649 q 228 324 228 486 q 379 293 329 293 z "},"Q":{"ha":849,"x_min":58,"x_max":790,"o":"m 790 378 q 714 134 790 236 q 508 -3 638 32 q 660 -157 600 -118 q 586 -180 625 -174 q 497 -186 547 -186 q 397 -18 475 -142 l 388 -18 q 215 26 290 -18 q 99 152 140 71 q 58 339 58 233 q 108 549 58 457 q 247 692 158 640 q 450 743 336 743 q 628 697 551 743 q 748 569 706 651 q 790 378 790 486 m 419 54 q 594 130 529 54 q 658 336 658 206 q 601 531 658 454 q 443 626 544 608 q 313 590 371 626 q 223 488 256 553 q 190 342 190 424 q 253 133 190 213 q 419 54 317 54 z "},"R":{"ha":699,"x_min":86,"x_max":660,"o":"m 172 -8 q 94 0 139 -8 q 105 194 100 68 q 110 419 110 321 q 86 701 110 649 q 199 728 129 718 q 342 739 269 739 q 556 676 481 739 q 631 494 631 613 q 594 369 631 424 q 489 282 557 314 q 660 21 596 72 q 583 -2 622 4 q 494 -8 543 -8 q 364 251 465 67 q 339 250 358 250 q 278 253 311 250 q 228 261 246 256 q 250 0 229 61 q 172 -8 213 -8 m 379 321 q 465 386 432 343 q 499 483 499 429 q 313 649 499 649 q 238 639 272 649 q 228 356 231 538 q 379 321 325 321 z "},"S":{"ha":622,"x_min":53,"x_max":569,"o":"m 294 -15 q 53 35 156 -15 q 58 86 53 64 q 76 132 64 108 q 164 80 108 99 q 285 61 219 61 q 399 90 360 61 q 439 174 439 119 q 400 250 439 219 q 279 321 361 281 q 165 385 207 358 q 92 456 122 413 q 61 560 61 500 q 137 690 61 640 q 340 740 213 740 q 536 707 456 740 q 525 638 536 676 q 499 576 514 599 q 378 646 440 618 q 278 674 317 674 q 221 640 249 668 q 193 574 193 613 q 233 492 193 524 q 357 418 274 460 q 468 357 426 383 q 540 289 510 331 q 569 190 569 247 q 501 38 569 92 q 294 -15 432 -15 z "},"T":{"ha":617,"x_min":15,"x_max":603,"o":"m 314 -8 q 235 0 279 -8 q 244 185 240 67 q 249 417 249 304 q 242 625 249 539 q 22 607 72 624 q 15 665 15 638 q 22 731 15 689 q 169 722 76 725 q 349 718 263 718 q 596 736 547 718 q 603 676 603 704 q 596 613 603 654 q 376 624 514 619 q 368 315 368 446 q 390 0 368 61 q 314 -8 349 -8 z "},"U":{"ha":735,"x_min":74,"x_max":663,"o":"m 360 -7 q 165 67 235 -7 q 96 278 96 142 q 90 556 96 421 q 74 732 85 690 q 147 740 110 740 q 229 732 183 740 q 221 274 221 529 q 388 83 221 83 q 564 256 564 83 q 553 732 564 649 q 606 740 579 740 q 663 732 629 740 q 655 519 658 653 q 651 285 651 386 q 585 75 651 157 q 360 -7 518 -7 z "},"V":{"ha":675,"x_min":7,"x_max":668,"o":"m 356 -12 q 278 30 311 -12 q 219 136 244 72 q 156 324 194 200 q 82 544 113 460 q 7 711 51 629 q 176 740 83 740 q 214 571 186 679 q 272 361 242 463 q 381 97 338 171 q 546 700 546 594 q 543 725 546 719 q 668 740 599 740 q 552 395 621 608 q 442 38 483 182 l 356 -12 z "},"W":{"ha":1086,"x_min":7,"x_max":1079,"o":"m 331 -12 q 254 30 286 -12 q 199 138 222 72 q 142 324 176 203 q 76 542 104 456 q 7 711 47 629 q 178 740 86 740 q 208 572 185 679 q 260 361 232 464 q 343 129 306 214 q 494 629 463 490 l 458 711 q 629 740 535 740 q 661 572 638 681 q 711 361 685 464 q 793 129 761 203 q 922 533 885 406 q 958 707 958 660 q 956 725 958 717 q 1079 740 1011 740 q 959 403 1031 615 q 840 38 888 190 l 782 -12 q 706 29 738 -12 q 650 137 674 71 q 593 324 626 203 q 542 500 568 418 q 389 38 489 344 l 331 -12 z "},"X":{"ha":710,"x_min":1,"x_max":708,"o":"m 1 -8 q 297 354 121 119 q 33 711 81 675 q 201 740 99 740 q 262 638 210 719 q 381 457 314 556 q 510 633 465 564 q 561 732 554 701 q 708 740 628 740 q 424 392 604 628 q 699 21 653 56 q 622 -2 661 4 q 531 -8 582 -8 q 463 103 519 15 q 340 289 407 192 q 204 104 251 178 q 150 0 157 31 q 1 -8 83 -8 z "},"Y":{"ha":644,"x_min":7,"x_max":638,"o":"m 329 -8 q 250 0 296 -8 q 264 260 261 97 q 118 542 200 401 q 7 711 36 682 q 178 740 75 740 q 237 595 188 706 q 347 372 286 485 q 455 602 419 511 q 493 732 490 693 q 638 740 558 740 q 383 261 526 581 q 406 0 383 50 q 329 -8 368 -8 z "},"Z":{"ha":611,"x_min":29,"x_max":582,"o":"m 549 -7 q 426 1 519 -1 q 231 4 333 4 q 29 0 83 4 l 29 50 q 208 265 90 111 q 463 613 326 418 l 347 614 q 203 617 253 617 q 122 610 153 617 q 69 592 92 604 q 51 660 58 621 q 44 732 44 699 q 307 717 124 717 q 446 726 392 717 q 538 758 500 735 q 582 692 582 738 q 563 632 582 661 q 443 471 525 578 q 178 110 224 176 q 349 97 268 97 q 474 107 411 97 q 576 133 536 117 q 569 56 576 99 q 549 -7 561 13 z "},"[":{"ha":489,"x_min":86,"x_max":447,"o":"m 440 -172 q 221 -154 386 -154 q 94 -162 168 -154 q 105 106 100 -79 q 110 407 110 292 q 104 723 110 617 q 86 893 99 829 q 210 888 138 888 q 429 906 375 888 q 436 846 436 874 q 429 782 436 824 q 240 792 347 790 q 229 407 229 558 q 247 -58 229 72 q 440 -49 358 -57 q 447 -112 447 -90 q 440 -172 447 -140 z "},"\\":{"ha":469,"x_min":74,"x_max":396,"o":"m 342 -121 q 288 -108 322 -121 q 203 321 283 -22 q 74 840 124 664 q 126 853 111 853 q 182 840 147 853 q 267 406 186 753 q 396 -108 347 60 q 342 -121 358 -121 z "},"]":{"ha":489,"x_min":42,"x_max":403,"o":"m 49 906 q 268 888 103 888 q 396 896 322 888 q 385 627 390 813 q 381 326 381 442 q 385 12 381 118 q 403 -160 390 -94 q 279 -154 351 -154 q 60 -172 114 -154 q 53 -112 53 -140 q 60 -49 53 -90 q 250 -58 142 -57 q 260 326 260 146 q 256 620 260 514 q 242 792 251 726 q 49 782 131 790 q 42 846 42 824 q 49 906 42 874 z "},"^":{"ha":503,"x_min":14,"x_max":489,"o":"m 90 501 q 14 576 47 531 q 135 703 88 651 q 238 825 182 754 l 265 825 q 368 703 321 754 q 489 576 415 651 q 413 501 456 531 l 251 704 l 90 501 z "},"_":{"ha":711,"x_min":81,"x_max":631,"o":"m 97 -131 q 81 7 81 -68 q 346 0 200 0 q 501 8 424 0 q 615 26 579 15 q 631 -111 631 -40 q 367 -104 513 -104 q 210 -112 288 -104 q 97 -131 132 -119 z "},"`":{"ha":272,"x_min":0,"x_max":274,"o":"m 261 667 q 0 781 81 696 q 47 825 15 811 q 131 839 79 839 q 180 762 139 801 q 274 700 221 722 l 261 667 z "},"a":{"ha":607,"x_min":60,"x_max":547,"o":"m 178 -15 q 94 22 128 -15 q 60 115 60 58 q 388 304 60 283 q 361 432 388 396 q 264 468 335 468 q 177 454 221 468 q 97 417 133 440 l 86 443 q 188 542 124 504 q 318 581 251 581 q 457 533 408 581 q 506 394 506 485 q 499 282 506 344 q 493 183 493 215 q 504 101 493 131 q 547 38 515 72 q 435 -15 496 -7 q 382 61 397 10 q 278 6 332 26 q 178 -15 224 -15 m 233 51 q 307 71 268 54 q 376 111 346 88 l 376 118 q 381 204 376 163 l 385 264 q 239 224 290 258 q 188 133 188 190 q 200 87 188 110 q 233 51 213 64 z "},"b":{"ha":669,"x_min":75,"x_max":611,"o":"m 339 -12 q 240 7 285 -12 q 165 58 194 26 l 131 0 q 86 7 117 0 q 95 215 92 72 q 99 463 99 358 q 75 732 99 656 q 229 760 143 760 q 215 506 218 672 q 389 569 297 569 q 551 495 490 569 q 611 294 611 421 q 540 67 611 146 q 339 -12 469 -12 m 326 58 q 444 106 404 58 q 485 247 485 154 q 354 479 485 432 q 214 444 283 479 q 211 267 211 308 q 221 104 211 154 q 326 58 269 58 z "},"c":{"ha":572,"x_min":60,"x_max":536,"o":"m 294 -15 q 121 58 182 -15 q 60 265 60 131 q 97 428 60 357 q 200 540 133 500 q 351 581 267 581 q 517 547 449 581 q 503 487 517 524 q 474 424 490 450 q 368 497 418 471 q 285 522 318 522 q 215 438 243 499 q 188 306 188 378 q 226 135 188 186 q 353 83 264 83 q 525 135 454 83 l 536 111 q 429 19 496 54 q 294 -15 363 -15 z "},"d":{"ha":694,"x_min":67,"x_max":635,"o":"m 294 -17 q 124 58 182 -17 q 67 278 67 132 q 126 504 67 428 q 301 581 185 581 q 469 525 393 581 q 443 732 461 664 q 519 753 483 747 q 597 760 554 760 q 581 174 581 586 q 592 97 581 125 q 635 35 603 68 q 524 -15 588 -7 q 471 63 486 13 q 387 4 433 25 q 294 -17 340 -17 m 329 51 q 397 72 361 56 q 464 113 432 89 q 467 258 464 156 q 469 438 469 372 q 342 472 415 472 q 231 421 269 472 q 192 272 192 369 q 228 119 192 176 q 329 51 264 63 z "},"e":{"ha":636,"x_min":60,"x_max":571,"o":"m 289 -15 q 119 58 178 -15 q 60 265 60 131 q 96 428 60 357 q 197 540 132 500 q 344 581 261 581 q 513 508 456 581 q 571 293 571 435 q 393 262 497 275 q 188 246 289 249 q 234 123 196 161 q 346 85 272 85 q 453 98 403 85 q 540 135 504 111 l 550 108 q 435 19 507 53 q 289 -15 364 -15 m 185 290 q 321 313 254 297 q 426 349 388 329 q 384 469 425 422 q 279 517 343 517 q 210 431 236 492 q 185 290 185 369 z "},"f":{"ha":440,"x_min":57,"x_max":507,"o":"m 74 -207 q 118 -139 103 -171 q 140 -53 133 -107 q 147 96 147 0 q 136 476 147 206 q 73 485 89 478 q 57 511 57 492 q 136 558 113 540 q 217 743 153 674 q 376 813 282 813 q 507 794 443 813 q 494 736 507 774 q 465 668 482 699 q 380 731 425 707 q 307 754 335 756 q 273 693 283 738 q 261 550 263 649 q 406 561 365 553 q 400 511 406 533 q 382 464 394 489 q 258 481 336 479 l 258 383 q 264 189 258 300 q 268 88 268 131 q 253 -29 268 18 q 201 -119 239 -76 q 89 -221 164 -162 l 74 -207 z "},"g":{"ha":615,"x_min":53,"x_max":615,"o":"m 279 -250 q 53 -190 139 -250 q 72 -92 53 -140 q 126 -7 92 -44 q 72 68 72 13 q 101 138 72 107 q 179 188 129 169 q 104 256 131 211 q 78 361 78 301 q 146 519 78 458 q 321 581 214 581 q 444 550 392 581 q 508 578 472 557 q 579 631 544 600 q 605 573 594 606 q 615 519 615 540 q 506 492 571 496 q 533 385 533 440 q 501 271 533 321 q 412 193 469 221 q 282 165 354 165 q 188 147 222 165 q 153 96 153 128 l 414 82 q 528 41 489 75 q 568 -53 568 7 q 531 -153 568 -108 q 427 -224 493 -199 q 279 -250 361 -250 m 303 224 q 394 255 361 224 q 426 342 426 286 q 397 427 426 392 q 314 475 367 463 q 220 438 257 475 q 183 344 183 401 q 217 257 183 290 q 303 224 250 224 m 314 -160 q 433 -137 388 -160 q 478 -79 478 -115 q 458 -38 478 -51 q 392 -24 439 -25 l 183 -12 q 154 -87 161 -53 q 314 -160 207 -160 z "},"h":{"ha":686,"x_min":89,"x_max":597,"o":"m 174 -8 q 93 0 139 -8 q 103 354 103 178 q 89 732 103 596 q 242 760 157 760 q 222 490 233 694 q 311 556 261 532 q 413 581 361 581 q 575 389 575 581 l 572 301 l 569 208 q 597 0 569 63 q 524 -8 558 -8 q 442 0 490 -8 q 451 364 451 197 q 428 444 451 419 q 354 468 406 468 q 224 432 281 468 q 221 318 221 392 q 250 0 221 58 q 174 -8 213 -8 z "},"i":{"ha":339,"x_min":81,"x_max":278,"o":"m 182 -12 q 125 13 142 -12 q 108 101 108 38 q 111 247 108 153 q 114 378 114 336 q 107 483 114 435 q 86 551 100 531 q 160 573 125 567 q 240 579 196 579 q 228 455 233 539 q 224 267 224 371 q 228 150 224 190 q 244 86 233 110 q 278 38 254 63 q 229 0 256 13 q 182 -12 203 -12 m 165 667 q 81 753 128 713 q 165 839 122 804 q 251 753 204 792 q 165 667 213 706 z "},"j":{"ha":338,"x_min":-25,"x_max":254,"o":"m -25 -242 q 54 -149 25 -194 q 98 -33 83 -103 q 113 147 113 38 q 110 381 113 307 q 103 493 108 456 q 83 551 97 531 q 156 573 121 567 q 236 579 192 579 q 226 239 226 496 l 228 167 q 231 88 231 122 q 205 -55 231 3 q 130 -156 179 -112 q -12 -262 81 -200 l -25 -242 m 168 667 q 83 753 131 713 q 168 839 125 804 q 254 753 207 792 q 168 667 215 706 z "},"k":{"ha":613,"x_min":89,"x_max":625,"o":"m 171 -8 q 93 0 136 -8 q 103 354 103 178 q 89 732 103 596 q 242 760 157 760 q 226 561 232 689 q 221 315 221 433 l 221 285 q 401 487 358 432 q 444 565 444 542 q 581 581 508 581 q 372 368 496 501 q 625 21 542 83 q 549 -2 588 4 q 463 -8 511 -8 q 286 274 424 68 l 221 201 q 250 0 228 46 q 171 -8 211 -8 z "},"l":{"ha":340,"x_min":89,"x_max":281,"o":"m 185 -12 q 126 12 143 -12 q 110 101 110 36 q 113 239 110 144 q 115 413 115 344 q 89 732 115 636 q 163 753 128 747 q 242 760 199 760 q 225 267 225 588 q 230 151 225 192 q 246 86 235 110 q 281 38 257 63 q 232 0 258 13 q 185 -12 206 -12 z "},"m":{"ha":1060,"x_min":89,"x_max":971,"o":"m 211 -8 q 133 0 182 -8 q 143 296 143 139 q 138 413 143 372 q 123 476 133 453 q 89 525 113 500 q 136 563 111 551 q 182 575 161 575 q 265 493 254 575 q 350 557 301 533 q 447 581 399 581 q 596 481 565 581 q 683 554 632 528 q 788 581 735 581 q 949 389 949 581 l 946 301 q 942 208 942 250 q 971 0 942 65 q 897 -8 932 -8 q 814 0 863 -8 q 824 364 824 168 q 801 444 824 419 q 728 468 779 468 q 606 436 658 468 q 604 283 607 385 q 603 208 603 254 q 629 0 603 64 q 557 -8 592 -8 q 474 0 522 -8 q 483 364 483 168 q 461 444 483 419 q 388 468 439 468 q 268 436 317 468 l 267 376 q 263 208 263 306 q 290 0 263 63 q 211 -8 249 -8 z "},"n":{"ha":726,"x_min":89,"x_max":638,"o":"m 211 -8 q 133 0 182 -8 q 143 296 143 139 q 138 413 143 372 q 123 476 133 453 q 89 525 113 500 q 136 563 111 551 q 182 575 161 575 q 267 492 256 575 q 352 557 303 533 q 453 581 401 581 q 615 389 615 581 l 613 301 q 608 208 608 250 q 638 0 608 65 q 564 -8 599 -8 q 481 0 528 -8 q 490 364 490 168 q 468 444 490 419 q 394 468 446 468 q 268 436 318 468 l 267 376 q 263 208 263 306 q 290 0 263 63 q 211 -8 249 -8 z "},"o":{"ha":682,"x_min":60,"x_max":624,"o":"m 313 -15 q 129 63 199 -15 q 60 267 60 140 q 98 430 60 358 q 205 541 136 501 q 361 581 274 581 q 499 545 439 581 q 591 446 558 510 q 624 299 624 382 q 584 135 624 207 q 474 24 544 64 q 313 -15 403 -15 m 338 43 q 461 97 417 43 q 506 247 506 150 q 465 396 506 333 q 354 481 425 458 q 226 426 274 481 q 178 278 178 371 q 223 106 178 169 q 338 43 268 43 z "},"p":{"ha":714,"x_min":74,"x_max":649,"o":"m 111 -250 q 123 -21 118 -169 q 128 296 128 128 q 123 413 128 372 q 108 476 118 453 q 74 525 97 500 q 122 563 96 550 q 169 575 149 575 q 243 503 231 575 q 326 555 281 536 q 418 574 372 574 q 590 503 532 574 q 649 294 649 432 q 573 69 649 150 q 361 -12 497 -12 q 242 14 290 -12 q 265 -222 246 -137 q 111 -250 197 -250 m 357 50 q 474 101 432 50 q 515 246 515 153 q 481 395 515 332 q 386 481 446 458 q 314 471 351 481 q 246 446 276 461 q 243 364 246 422 q 239 156 239 185 l 239 108 q 292 65 261 81 q 357 50 324 50 z "},"q":{"ha":710,"x_min":67,"x_max":642,"o":"m 450 -250 q 478 68 474 -154 q 390 6 439 29 q 294 -17 342 -17 q 124 58 182 -17 q 67 278 67 132 q 126 504 67 428 q 301 581 185 581 q 476 518 397 581 q 546 575 492 575 q 593 563 567 575 q 642 525 619 550 q 608 476 618 500 q 592 413 597 453 q 588 296 588 372 q 604 -229 588 -49 q 450 -250 540 -250 m 329 51 q 406 76 365 57 q 476 124 446 96 l 476 156 q 472 354 476 183 q 469 436 469 415 q 342 472 417 472 q 231 421 269 472 q 192 272 192 369 q 228 119 192 176 q 329 51 264 63 z "},"r":{"ha":469,"x_min":89,"x_max":464,"o":"m 214 -8 q 133 0 179 -8 q 143 296 143 139 q 138 413 143 372 q 123 476 133 453 q 89 525 113 500 q 138 563 111 550 q 185 575 164 575 q 268 472 264 575 q 345 545 304 517 q 439 588 386 574 q 456 524 449 565 q 464 447 464 482 q 417 450 447 450 q 332 440 372 450 q 267 414 292 429 l 265 371 q 263 208 263 279 q 290 0 263 63 q 214 -8 249 -8 z "},"s":{"ha":540,"x_min":50,"x_max":497,"o":"m 260 -15 q 50 35 129 -15 q 56 85 50 61 q 75 136 61 108 q 145 82 101 101 q 239 63 189 63 q 371 136 371 63 q 341 188 371 167 q 250 235 311 208 q 151 284 189 263 q 86 343 114 306 q 58 435 58 381 q 116 540 58 500 q 267 581 174 581 q 478 547 390 581 q 465 488 478 525 q 435 422 453 451 q 338 495 385 468 q 258 522 290 522 q 204 497 225 515 q 183 456 183 478 q 215 393 183 417 q 315 338 247 369 q 409 291 372 313 q 472 234 446 269 q 497 149 497 199 q 435 28 497 71 q 260 -15 374 -15 z "},"t":{"ha":424,"x_min":46,"x_max":393,"o":"m 224 -12 q 156 12 175 -12 q 136 97 136 36 q 139 238 136 140 q 142 413 142 343 q 139 476 142 446 q 65 484 83 476 q 46 511 46 492 q 217 651 136 563 l 250 647 q 257 550 256 600 q 393 561 350 551 q 388 510 393 532 q 369 464 382 488 q 254 481 329 479 q 250 350 250 418 q 271 90 250 179 q 374 106 335 94 l 382 74 q 313 11 357 35 q 224 -12 268 -12 z "},"u":{"ha":688,"x_min":89,"x_max":628,"o":"m 269 -15 q 110 176 110 -15 l 113 264 l 115 357 q 89 551 115 493 q 242 579 157 579 q 233 190 233 410 q 257 109 233 135 q 333 83 281 83 q 457 115 401 83 q 461 281 457 208 l 463 357 q 436 551 463 493 q 590 579 504 579 q 579 352 585 483 q 574 176 574 221 q 585 97 574 126 q 628 35 596 68 q 517 -15 578 -7 q 463 68 475 14 q 374 7 425 29 q 269 -15 324 -15 z "},"v":{"ha":574,"x_min":7,"x_max":567,"o":"m 306 -12 q 235 21 264 -12 q 186 104 206 54 q 139 244 167 154 q 78 423 106 354 q 7 544 50 492 q 82 567 46 561 q 164 574 118 574 q 236 317 178 499 q 332 76 294 136 q 425 383 400 289 q 450 519 450 478 q 443 558 450 540 q 567 574 499 574 q 393 38 488 382 l 306 -12 z "},"w":{"ha":935,"x_min":7,"x_max":928,"o":"m 283 -12 q 168 101 201 -12 l 118 271 q 88 378 101 332 q 47 481 68 436 q 7 544 25 526 q 80 567 43 560 q 165 574 117 574 q 230 321 175 513 q 303 90 285 129 q 425 469 407 396 q 379 544 401 524 q 539 574 447 574 q 605 312 547 514 q 676 88 663 110 q 781 399 754 308 q 808 526 808 489 q 803 558 808 539 q 928 574 854 574 q 835 343 888 486 q 731 31 783 200 l 656 -12 q 586 16 614 -12 q 540 101 558 44 q 467 357 486 282 q 358 31 422 236 l 283 -12 z "},"x":{"ha":607,"x_min":7,"x_max":599,"o":"m 7 -8 q 126 128 61 49 q 243 275 192 207 q 117 442 178 367 q 26 544 57 517 q 103 567 65 561 q 193 574 142 574 q 310 393 217 532 l 328 367 q 419 498 396 458 q 449 558 443 538 q 590 574 515 574 q 369 308 481 451 q 503 129 439 210 q 599 21 567 49 q 522 -2 560 4 q 432 -8 483 -8 q 286 215 383 76 q 181 67 208 111 q 149 0 153 22 q 7 -8 83 -8 z "},"y":{"ha":682,"x_min":75,"x_max":596,"o":"m 301 -250 q 75 -193 161 -250 q 189 33 75 -72 q 115 204 115 75 l 118 272 l 121 354 q 96 551 121 496 q 168 573 135 567 q 249 579 201 579 q 240 214 240 499 q 263 134 240 158 q 336 110 285 110 q 472 146 417 110 l 469 308 q 468 357 468 331 q 461 474 468 422 q 442 551 454 525 q 596 579 510 579 q 586 232 586 467 q 589 73 586 138 q 592 0 592 8 q 513 -187 592 -124 q 301 -250 433 -250 m 314 -175 q 431 -128 390 -175 q 472 33 472 -82 l 472 99 q 383 35 432 57 q 278 13 333 13 q 239 15 264 13 q 171 -117 183 -51 q 234 -159 196 -143 q 314 -175 272 -175 z "},"z":{"ha":579,"x_min":54,"x_max":525,"o":"m 497 -11 q 242 0 447 0 q 54 -4 115 0 l 54 32 q 210 210 117 99 q 404 450 304 321 q 214 454 267 454 q 135 448 165 454 q 82 429 104 442 q 63 499 71 460 q 56 569 56 538 q 160 558 97 563 q 281 554 224 554 q 405 562 371 554 q 472 596 439 569 q 506 560 496 579 q 517 524 517 540 q 510 489 517 503 q 465 426 503 472 q 379 326 426 379 q 194 103 260 192 q 340 93 289 93 q 442 103 392 93 q 525 129 492 113 q 517 51 525 94 q 497 -11 510 8 z "},"{":{"ha":492,"x_min":67,"x_max":447,"o":"m 440 -165 q 201 -112 283 -165 q 119 75 119 -60 q 131 168 119 99 q 138 213 132 176 q 143 281 143 250 q 124 320 143 303 q 67 339 106 338 l 67 394 q 124 413 106 396 q 143 453 143 431 q 132 553 143 478 q 119 658 119 622 q 201 846 119 793 q 440 899 283 899 q 447 840 447 864 q 440 781 447 815 q 293 793 353 793 q 254 624 254 736 l 256 519 q 241 415 256 453 q 182 369 226 376 l 182 364 q 242 317 226 356 q 257 214 257 279 q 256 161 257 179 l 254 108 q 293 -60 254 -3 q 440 -47 353 -60 q 447 -107 447 -82 q 440 -165 447 -131 z "},"|":{"ha":475,"x_min":143,"x_max":333,"o":"m 246 -154 q 150 -143 199 -154 q 160 117 156 -62 q 165 407 165 296 q 160 710 165 607 q 143 875 156 813 q 235 888 188 888 q 326 875 274 888 q 316 658 321 813 q 311 407 311 504 q 316 49 311 168 q 333 -143 321 -71 q 246 -154 296 -154 z "},"}":{"ha":492,"x_min":44,"x_max":425,"o":"m 51 -165 q 44 -107 44 -131 q 51 -47 44 -82 q 199 -60 139 -60 q 238 108 238 -3 q 236 161 238 143 l 235 214 q 250 317 235 279 q 310 364 265 356 l 310 369 q 251 415 265 376 q 236 519 236 453 l 238 624 q 199 793 238 736 q 51 781 139 793 q 44 840 44 815 q 51 899 44 864 q 290 846 208 899 q 372 658 372 793 q 360 553 372 622 q 349 453 349 478 q 367 413 349 431 q 425 394 386 396 l 425 339 q 367 320 386 338 q 349 281 349 303 q 354 213 349 250 q 361 168 360 176 q 372 75 372 99 q 290 -112 372 -60 q 51 -165 208 -165 z "},"~":{"ha":740,"x_min":101,"x_max":640,"o":"m 504 294 q 447 302 475 294 q 379 324 418 310 q 309 347 339 339 q 249 354 279 354 q 183 304 193 354 q 101 326 136 310 q 236 446 121 446 q 294 438 265 446 q 360 417 322 431 q 432 394 404 401 q 490 386 460 386 q 557 435 547 386 q 640 413 599 432 q 504 294 615 294 z "},"¡":{"ha":332,"x_min":65,"x_max":267,"o":"m 165 582 q 267 482 207 531 q 165 381 221 426 q 65 482 122 433 q 165 582 110 538 m 225 76 q 232 -80 225 -12 q 251 -174 239 -147 q 99 -199 176 -199 q 110 -6 106 -137 q 115 267 115 126 q 207 343 164 303 l 225 343 l 225 76 z "},"¢":{"ha":572,"x_min":60,"x_max":536,"o":"m 536 196 q 456 119 506 151 q 351 76 407 88 q 361 -74 356 -36 q 319 -78 340 -78 q 275 -74 300 -78 l 279 69 q 117 147 174 75 q 60 350 60 219 q 119 551 60 469 q 281 657 179 633 q 271 804 278 767 q 314 811 299 811 q 358 804 335 811 q 353 665 356 764 q 517 632 450 665 q 503 572 517 608 q 474 508 490 535 q 368 581 418 556 q 285 607 318 607 q 215 523 243 583 q 188 390 188 463 q 226 219 188 271 q 353 168 264 168 q 525 219 454 168 l 536 196 z "},"£":{"ha":700,"x_min":65,"x_max":621,"o":"m 397 97 q 523 107 463 97 q 621 133 583 117 q 613 51 621 93 q 592 -7 604 10 q 484 1 571 -1 q 299 4 397 4 q 65 0 147 4 l 65 50 q 160 144 132 96 q 188 244 188 192 q 175 325 188 286 q 81 313 142 322 q 74 364 74 338 q 81 417 74 389 q 147 411 101 414 q 117 500 128 461 q 107 578 107 539 q 169 700 107 658 q 356 742 232 742 q 499 731 425 742 q 601 707 572 721 q 590 638 601 676 q 564 576 579 599 q 441 644 503 617 q 343 674 379 671 q 267 637 293 665 q 242 563 242 608 q 256 435 242 529 l 260 406 l 299 406 q 409 409 371 406 q 496 421 447 413 q 501 369 501 390 q 496 317 501 350 q 279 328 418 328 l 268 328 l 268 301 q 214 111 268 186 q 298 101 246 106 q 397 97 350 97 z "},"¤":{"ha":814,"x_min":67,"x_max":747,"o":"m 690 383 q 631 190 690 269 q 747 86 710 111 q 733 65 744 81 q 712 41 722 50 q 686 25 701 32 q 582 138 647 71 q 379 69 496 69 q 217 126 282 69 q 128 25 144 53 q 67 86 86 56 l 169 183 q 126 351 126 254 q 182 543 126 464 q 67 644 115 608 q 93 679 76 661 q 126 707 110 697 l 196 633 q 232 597 196 633 q 428 665 313 665 q 599 607 529 665 q 686 707 663 674 q 707 692 692 703 q 731 671 722 682 q 747 644 740 660 q 646 551 674 579 q 690 383 690 482 m 404 128 q 528 181 485 128 q 572 332 572 235 q 532 481 572 418 q 421 565 492 543 q 292 510 340 565 q 244 363 244 456 q 290 191 244 254 q 404 128 335 128 z "},"¥":{"ha":644,"x_min":7,"x_max":638,"o":"m 383 261 l 383 200 q 525 215 464 203 q 531 163 531 182 q 525 110 531 143 q 386 119 467 118 q 406 0 393 28 q 329 -8 368 -8 q 250 0 296 -8 q 260 121 254 36 q 114 106 182 118 q 107 157 107 131 q 114 211 107 181 q 263 201 161 204 l 264 260 l 246 300 q 157 293 193 299 q 114 286 121 288 q 107 338 107 311 q 114 392 107 361 l 204 383 q 88 593 147 497 q 7 711 29 689 q 178 740 75 740 q 235 599 188 706 q 343 381 282 492 l 351 381 q 456 604 421 515 q 493 732 490 693 q 638 740 558 740 q 440 385 557 624 q 525 396 475 386 q 531 343 531 363 q 525 290 531 324 q 401 300 496 294 l 383 261 z "},"¦":{"ha":475,"x_min":143,"x_max":326,"o":"m 165 435 q 160 719 165 622 q 143 875 156 815 q 235 888 188 888 q 326 875 274 888 q 316 719 321 831 q 311 538 311 607 q 189 435 247 492 l 165 435 m 233 -154 q 143 -142 193 -154 q 153 12 149 -99 q 157 196 157 122 q 279 299 215 236 l 304 299 q 309 15 304 111 q 326 -142 314 -82 q 233 -154 283 -154 z "},"§":{"ha":643,"x_min":86,"x_max":557,"o":"m 306 -261 q 86 -215 178 -261 q 108 -126 86 -167 q 188 -174 138 -157 q 297 -190 238 -190 q 399 -164 363 -190 q 435 -90 435 -137 q 401 -23 435 -50 q 293 40 367 4 q 190 97 229 71 q 122 161 150 122 q 94 254 94 200 q 125 340 94 303 q 213 399 156 378 q 123 477 151 435 q 94 572 94 519 q 164 691 94 646 q 347 736 233 736 q 526 706 450 736 q 516 642 526 678 q 490 585 506 606 q 381 649 436 625 q 292 674 326 674 q 240 642 261 668 q 218 585 218 617 q 254 513 218 542 q 365 447 290 485 q 465 393 428 417 q 530 332 503 369 q 557 242 557 294 q 531 144 557 185 q 457 82 506 104 q 557 -75 557 18 q 492 -213 557 -165 q 306 -261 428 -261 m 360 135 q 415 168 396 144 q 435 225 435 192 q 405 289 435 261 q 292 357 375 317 q 240 325 261 350 q 218 269 218 300 q 249 203 218 232 q 360 135 281 174 z "},"¨":{"ha":504,"x_min":18,"x_max":486,"o":"m 101 671 q 18 753 64 717 q 101 836 57 797 q 185 753 138 789 q 101 671 144 706 m 403 671 q 321 753 365 715 q 403 836 356 796 q 486 753 439 789 q 403 671 446 706 z "},"©":{"ha":1024,"x_min":86,"x_max":939,"o":"m 513 -28 q 299 30 397 -28 q 144 185 201 88 q 86 399 86 283 q 144 612 86 514 q 299 767 201 710 q 513 825 397 825 q 726 767 628 825 q 881 612 824 710 q 939 399 939 514 q 881 185 939 283 q 726 30 824 88 q 513 -28 628 -28 m 513 43 q 690 91 608 43 q 820 221 772 139 q 868 399 868 303 q 820 576 868 494 q 690 706 772 658 q 513 754 608 754 q 335 706 417 754 q 205 576 253 658 q 157 399 157 494 q 205 221 157 303 q 335 91 253 139 q 513 43 417 43 m 503 158 q 338 217 396 158 q 279 386 279 276 q 312 523 279 463 q 403 617 344 583 q 538 650 463 650 q 679 628 617 650 q 673 585 679 608 q 656 549 667 563 q 565 592 614 574 q 490 610 517 610 q 402 539 439 597 q 365 411 365 481 q 410 271 365 317 q 529 225 456 225 q 686 258 622 225 l 692 239 q 610 180 663 201 q 503 158 558 158 z "},"ª":{"ha":482,"x_min":68,"x_max":415,"o":"m 153 407 q 92 431 115 407 q 68 492 68 454 q 297 618 68 604 q 277 694 297 671 q 211 718 257 718 q 149 708 181 718 q 93 678 118 697 l 86 704 q 159 769 114 744 q 251 794 204 794 q 351 763 317 794 q 386 674 386 732 q 381 600 386 647 q 378 572 379 589 q 376 536 376 556 q 385 483 376 503 q 415 442 393 464 q 331 407 378 411 q 294 457 306 425 q 222 420 260 433 q 153 407 185 407 m 194 456 q 243 468 217 458 q 290 492 269 478 l 290 496 q 293 544 290 511 q 296 586 296 569 q 197 563 232 583 q 163 507 163 542 q 172 477 163 492 q 194 456 181 463 z "},"«":{"ha":657,"x_min":44,"x_max":600,"o":"m 238 57 q 154 170 199 117 q 44 294 110 224 l 44 322 q 156 448 113 396 q 238 560 199 500 q 326 469 292 519 l 165 308 l 326 147 q 238 57 289 94 m 511 57 q 317 294 436 168 l 317 322 q 426 445 382 392 q 511 560 471 499 q 600 469 560 522 l 439 308 l 600 147 q 511 57 557 90 z "},"¬":{"ha":740,"x_min":101,"x_max":640,"o":"m 588 100 q 535 107 563 100 q 540 318 540 251 l 500 319 q 371 322 419 322 q 108 317 225 322 q 101 368 101 342 q 108 421 101 393 q 371 417 196 417 q 635 421 547 417 q 640 107 635 214 q 588 100 613 100 z "},"­":{"ha":833,"x_min":81,"x_max":511,"o":"m 100 196 q 81 335 81 258 q 289 328 175 328 q 406 335 347 328 q 493 354 465 343 q 511 215 511 292 q 304 222 419 222 q 185 215 243 222 q 100 196 126 207 z "},"®":{"ha":788,"x_min":67,"x_max":722,"o":"m 394 303 q 231 347 306 303 q 111 467 156 392 q 67 631 67 542 q 111 794 67 719 q 231 914 156 869 q 394 958 306 958 q 558 914 483 958 q 678 794 633 869 q 722 631 722 719 q 678 467 722 542 q 558 347 633 392 q 394 303 483 303 m 394 357 q 531 394 468 357 q 631 493 594 431 q 668 631 668 556 q 631 767 668 704 q 531 866 594 829 q 394 903 468 903 q 258 866 321 903 q 158 767 194 829 q 121 631 121 704 q 158 493 121 556 q 258 394 194 431 q 394 357 321 357 m 300 449 q 257 453 278 449 q 264 661 264 508 q 254 803 264 778 q 314 817 276 811 q 392 822 351 822 q 507 790 467 822 q 547 700 547 758 q 528 638 547 665 q 472 594 508 610 q 564 463 529 488 q 474 449 528 449 q 404 578 460 481 q 329 583 347 578 q 342 453 332 479 q 300 449 321 449 m 413 614 q 458 645 440 624 q 476 694 476 667 q 376 775 476 775 q 335 769 351 775 l 329 631 q 413 614 382 614 z "},"¯":{"ha":410,"x_min":32,"x_max":379,"o":"m 35 703 q 32 739 32 728 q 44 814 32 776 q 193 808 115 808 q 295 814 242 808 q 376 826 349 819 q 379 790 379 801 q 365 715 379 753 q 217 721 297 721 q 112 715 165 721 q 35 703 58 710 z "},"°":{"ha":500,"x_min":53,"x_max":447,"o":"m 236 479 q 103 529 154 479 q 53 660 53 579 q 114 801 53 746 q 271 857 175 857 q 399 808 351 857 q 447 679 447 760 q 388 535 447 590 q 236 479 329 479 m 247 543 q 331 578 300 543 q 363 674 363 614 q 335 767 363 731 q 260 811 308 803 q 172 774 207 811 q 138 678 138 736 q 168 581 138 618 q 247 543 199 543 z "},"±":{"ha":740,"x_min":101,"x_max":640,"o":"m 640 467 q 633 414 640 442 q 418 419 489 419 q 422 218 418 318 q 371 211 397 211 q 318 218 346 211 q 324 419 321 283 q 108 414 253 419 q 101 465 101 439 q 108 518 101 490 q 324 514 217 514 q 318 743 324 642 q 369 750 343 750 q 422 743 394 750 q 418 514 418 667 q 633 518 525 514 q 640 467 640 493 m 108 -3 q 101 49 101 22 q 108 101 101 74 q 371 97 196 97 q 633 101 546 97 q 640 50 640 76 q 633 -3 640 25 q 371 3 517 3 q 108 -3 225 3 z "},"²":{"ha":483,"x_min":72,"x_max":404,"o":"m 389 357 q 210 364 361 364 q 72 361 147 364 l 72 392 q 242 537 188 475 q 297 646 297 599 q 283 678 297 665 q 244 693 269 692 q 110 628 196 685 q 88 671 97 643 q 78 722 78 699 q 232 746 163 746 q 344 720 303 746 q 385 650 385 694 q 337 547 385 601 q 196 436 289 493 q 261 432 226 432 q 404 450 353 432 q 400 396 404 424 q 389 357 396 368 z "},"³":{"ha":483,"x_min":76,"x_max":399,"o":"m 219 353 q 76 386 143 353 q 90 449 76 413 q 141 416 110 428 q 210 404 172 404 q 285 422 258 404 q 311 474 311 440 q 295 517 311 499 q 249 544 279 536 q 217 535 233 544 q 190 513 200 526 q 168 519 181 513 q 156 532 156 526 q 189 569 167 554 l 311 654 l 192 654 q 111 642 135 654 q 97 689 103 661 q 92 742 92 717 q 211 733 121 733 q 302 739 268 733 q 358 756 336 744 q 380 733 372 747 q 388 703 388 718 q 366 653 388 674 q 276 586 344 632 q 364 548 329 579 q 399 475 399 517 q 353 384 399 415 q 219 353 307 353 z "},"´":{"ha":272,"x_min":0,"x_max":274,"o":"m 0 700 q 92 762 51 722 q 142 839 132 801 q 225 825 193 839 q 274 781 257 811 q 11 667 189 696 l 0 700 z "},"µ":{"ha":686,"x_min":89,"x_max":626,"o":"m 182 -250 q 106 -136 106 -250 q 110 28 106 -68 q 115 357 115 206 q 89 551 115 493 q 224 575 149 575 l 224 193 q 246 109 224 135 q 317 83 268 83 q 456 131 399 83 l 456 551 q 589 579 510 579 q 578 368 583 486 q 572 183 574 250 q 583 101 572 131 q 626 35 593 71 q 536 0 571 0 q 461 71 485 0 q 394 22 440 43 q 296 0 349 0 q 222 14 258 0 q 235 -123 224 -83 q 276 -201 246 -162 q 228 -238 254 -226 q 182 -250 201 -250 z "},"¶":{"ha":610,"x_min":38,"x_max":524,"o":"m 428 -8 q 350 0 390 -8 q 372 340 368 74 q 168 290 236 290 q 75 386 113 322 q 38 528 38 450 q 289 739 38 739 q 422 729 357 739 q 524 701 486 719 q 506 378 506 639 q 510 172 506 281 q 521 0 514 63 q 428 -8 467 -8 z "},"·":{"ha":315,"x_min":57,"x_max":257,"o":"m 157 213 q 57 313 113 268 q 157 414 100 368 q 257 313 194 368 q 157 213 207 253 z "},"¸":{"ha":276,"x_min":7,"x_max":271,"o":"m 144 -304 q 65 -287 103 -304 q 7 -242 28 -269 l 18 -212 q 58 -235 36 -226 q 103 -243 81 -243 q 161 -224 140 -243 q 182 -169 182 -204 q 155 -106 182 -132 q 76 -69 128 -81 l 99 19 l 149 19 l 136 -61 q 235 -109 199 -74 q 271 -194 271 -144 q 238 -276 271 -247 q 144 -304 204 -304 z "},"¹":{"ha":483,"x_min":113,"x_max":328,"o":"m 278 357 q 226 361 256 357 q 235 572 235 464 l 235 640 l 144 589 q 113 646 125 610 q 208 699 160 669 q 271 746 257 729 q 324 742 294 746 q 318 579 318 669 q 328 361 318 463 q 278 357 303 357 z "},"º":{"ha":535,"x_min":65,"x_max":469,"o":"m 247 407 q 115 458 165 407 q 65 590 65 508 q 126 738 65 681 q 281 794 186 794 q 417 744 365 794 q 469 611 469 693 q 407 464 469 521 q 247 407 344 407 m 264 450 q 349 483 318 450 q 381 576 381 517 q 353 667 381 628 q 276 719 325 706 q 187 685 219 719 q 154 592 154 651 q 185 488 154 526 q 264 450 215 450 z "},"»":{"ha":657,"x_min":58,"x_max":614,"o":"m 147 57 q 58 147 97 92 l 219 308 l 58 469 q 147 560 96 522 q 229 448 186 500 q 340 322 272 396 l 340 294 q 231 170 275 224 q 147 57 186 117 m 419 57 q 331 147 374 90 l 492 308 l 331 469 q 419 560 371 522 q 504 445 460 499 q 614 322 549 392 l 614 294 q 419 57 494 168 z "},"¼":{"ha":1039,"x_min":113,"x_max":974,"o":"m 278 357 q 226 361 256 357 q 235 572 235 464 l 235 640 l 144 589 q 113 646 125 613 q 208 699 160 669 q 271 746 257 729 q 324 742 294 746 q 318 579 318 669 q 328 361 318 463 q 278 357 303 357 m 364 -104 q 314 -92 346 -104 q 617 788 481 333 q 674 800 651 800 q 724 788 692 800 q 421 -92 557 363 q 364 -104 386 -104 m 890 -4 q 832 0 864 -4 q 835 82 835 53 q 708 78 746 82 q 646 67 671 75 q 625 110 625 83 q 672 222 625 143 q 788 394 718 301 q 893 372 850 394 q 808 287 858 343 q 703 151 757 231 l 835 151 l 878 251 q 922 247 900 251 l 922 154 q 974 164 965 161 q 954 81 974 122 l 926 81 q 932 0 926 53 q 890 -4 914 -4 z "},"½":{"ha":1039,"x_min":113,"x_max":960,"o":"m 278 357 q 226 361 256 357 q 235 572 235 464 l 235 640 l 144 589 q 113 646 125 613 q 208 699 160 669 q 271 746 257 729 q 324 742 294 746 q 318 579 318 669 q 328 361 318 463 q 278 357 303 357 m 364 -104 q 314 -92 346 -104 q 617 788 481 333 q 674 800 651 800 q 724 788 692 800 q 421 -92 557 363 q 364 -104 386 -104 m 944 -4 q 765 3 917 3 q 628 0 703 3 l 628 31 q 798 176 743 114 q 853 285 853 238 q 839 317 853 304 q 800 332 825 331 q 665 267 751 324 q 643 310 653 282 q 633 361 633 338 q 788 385 718 385 q 899 359 858 385 q 940 289 940 333 q 892 186 940 240 q 751 75 844 132 q 817 71 782 71 q 960 89 908 71 q 956 35 960 63 q 944 -4 951 7 z "},"¾":{"ha":1039,"x_min":76,"x_max":974,"o":"m 219 353 q 76 386 143 353 q 90 449 76 415 q 141 416 110 428 q 210 404 172 404 q 285 422 258 404 q 311 474 311 440 q 295 517 311 499 q 249 544 279 536 q 216 535 232 544 q 190 513 200 526 q 168 519 181 513 q 156 532 156 526 q 189 569 167 554 l 311 654 l 192 654 q 111 642 135 654 q 97 689 103 661 q 92 742 92 717 q 211 733 121 733 q 302 739 268 733 q 358 756 336 744 q 380 733 372 747 q 388 703 388 718 q 366 653 388 674 q 276 586 344 632 q 364 548 329 579 q 399 475 399 517 q 353 384 399 415 q 219 353 307 353 m 364 -104 q 314 -92 346 -104 q 617 788 481 333 q 674 800 651 800 q 724 788 692 800 q 421 -92 557 363 q 364 -104 386 -104 m 890 -4 q 832 0 864 -4 q 835 82 835 53 q 708 78 746 82 q 646 67 671 75 q 625 110 625 83 q 672 222 625 143 q 788 394 718 301 q 893 372 850 394 q 808 287 858 343 q 703 151 757 231 l 835 151 l 878 251 q 922 247 900 251 l 922 154 q 974 164 965 161 q 954 81 974 122 l 926 81 q 932 0 926 53 q 890 -4 914 -4 z "},"¿":{"ha":532,"x_min":58,"x_max":503,"o":"m 303 582 q 404 482 344 531 q 303 381 351 421 q 201 482 258 435 q 303 582 250 539 m 339 217 q 228 140 267 190 q 190 24 190 89 q 224 -85 190 -47 q 319 -122 258 -122 q 413 -100 369 -122 q 483 -37 456 -78 q 503 -135 503 -85 q 292 -199 407 -199 q 118 -142 178 -199 q 58 24 58 -85 q 97 149 58 94 q 194 233 135 203 q 317 271 254 264 l 339 217 z "},"À":{"ha":700,"x_min":7,"x_max":693,"o":"m 619 -7 q 540 3 583 -7 l 476 183 q 314 189 411 189 q 174 182 211 189 q 110 3 143 101 q 64 -6 85 -6 q 7 3 36 -6 q 144 331 46 72 q 292 735 243 589 q 353 742 329 742 q 408 735 378 742 q 556 331 457 589 q 693 3 654 72 q 619 -7 658 -7 m 367 265 q 446 267 424 265 q 325 576 378 453 q 207 269 275 461 q 367 265 278 265 m 478 833 q 217 947 297 863 q 264 992 232 978 q 347 1006 296 1006 q 397 928 356 968 q 490 867 438 889 l 478 833 z "},"Á":{"ha":700,"x_min":7,"x_max":693,"o":"m 619 -7 q 540 3 583 -7 l 476 183 q 314 189 411 189 q 174 182 211 189 q 110 3 143 101 q 64 -6 85 -6 q 7 3 36 -6 q 144 331 46 72 q 292 735 243 589 q 353 742 329 742 q 408 735 378 742 q 556 331 457 589 q 693 3 654 72 q 619 -7 658 -7 m 367 265 q 446 267 424 265 q 325 576 378 453 q 207 269 275 461 q 367 265 278 265 m 244 867 q 336 928 296 889 q 386 1006 376 968 q 469 992 438 1006 q 518 947 501 978 q 256 833 433 863 l 244 867 z "},"Â":{"ha":700,"x_min":7,"x_max":693,"o":"m 619 -7 q 540 3 583 -7 l 476 183 q 314 189 411 189 q 174 182 211 189 q 110 3 143 101 q 64 -6 85 -6 q 7 3 36 -6 q 144 331 46 72 q 292 735 243 589 q 353 742 329 742 q 408 735 378 742 q 556 331 457 589 q 693 3 654 72 q 619 -7 658 -7 m 367 265 q 446 267 424 265 q 325 576 378 453 q 207 269 275 461 q 367 265 278 265 m 253 826 q 167 838 210 826 q 292 1004 239 926 q 417 1024 343 1024 q 477 924 454 957 q 539 846 500 890 q 411 826 481 826 l 331 946 l 253 826 z "},"Ã":{"ha":700,"x_min":7,"x_max":693,"o":"m 619 -7 q 540 3 583 -7 l 476 183 q 314 189 411 189 q 174 182 211 189 q 110 3 143 101 q 64 -6 85 -6 q 7 3 36 -6 q 144 331 46 72 q 292 735 243 589 q 353 742 329 742 q 408 735 378 742 q 556 331 457 589 q 693 3 654 72 q 619 -7 658 -7 m 367 265 q 446 267 424 265 q 325 576 378 453 q 207 269 275 461 q 367 265 278 265 m 172 899 q 205 981 181 957 q 267 1006 229 1006 q 379 976 303 1006 q 463 953 439 953 q 501 985 494 953 l 529 968 q 436 861 513 861 q 388 869 413 861 q 324 890 363 876 q 239 914 264 914 q 200 882 207 914 l 172 899 z "},"Ä":{"ha":700,"x_min":7,"x_max":693,"o":"m 619 -7 q 540 3 583 -7 l 476 183 q 314 189 411 189 q 174 182 211 189 q 110 3 143 101 q 64 -6 85 -6 q 7 3 36 -6 q 144 331 46 72 q 292 735 243 589 q 353 742 329 742 q 408 735 378 742 q 556 331 457 589 q 693 3 654 72 q 619 -7 658 -7 m 367 265 q 446 267 424 265 q 325 576 378 453 q 207 269 275 461 q 367 265 278 265 m 200 838 q 117 919 163 883 q 200 1003 156 964 q 283 919 236 956 q 200 838 243 872 m 501 838 q 419 919 464 882 q 501 1003 454 963 q 585 919 538 956 q 501 838 544 872 z "},"Å":{"ha":700,"x_min":7,"x_max":693,"o":"m 619 -7 q 540 3 583 -7 l 476 183 q 314 189 411 189 q 174 182 211 189 q 110 3 143 101 q 64 -6 85 -6 q 7 3 36 -6 q 144 331 46 72 q 292 735 243 589 q 353 742 329 742 q 408 735 378 742 q 556 331 457 589 q 693 3 654 72 q 619 -7 658 -7 m 367 265 q 446 267 424 265 q 325 576 378 453 q 207 269 275 461 q 367 265 278 265 m 336 801 q 250 834 283 801 q 217 919 217 867 q 256 1015 217 978 q 358 1051 294 1051 q 449 1019 415 1051 q 483 932 483 986 q 442 838 483 875 q 336 801 401 801 m 349 858 q 386 876 372 858 q 400 925 400 894 q 388 971 400 953 q 353 994 375 989 q 313 976 326 994 q 299 925 299 958 q 312 876 299 894 q 349 858 325 858 z "},"Æ":{"ha":956,"x_min":7,"x_max":925,"o":"m 64 -6 q 7 3 36 -6 q 144 328 46 72 q 290 732 242 585 q 556 722 378 722 q 842 732 740 722 q 833 651 842 694 q 813 592 825 608 q 726 619 779 610 q 618 629 672 629 q 449 617 536 629 l 526 410 l 561 408 q 632 406 608 406 q 734 409 699 406 q 813 421 769 413 q 818 369 818 399 q 813 317 818 343 q 557 326 697 326 q 647 101 604 206 q 819 107 767 101 q 925 136 871 113 q 917 56 925 100 q 896 -4 908 11 q 747 6 831 6 q 540 3 635 6 l 476 183 q 314 189 411 189 q 174 182 211 189 q 110 3 143 101 q 64 -6 85 -6 m 363 264 q 446 267 401 264 q 325 576 378 453 q 207 269 275 461 q 363 264 301 264 z "},"Ç":{"ha":678,"x_min":58,"x_max":650,"o":"m 361 -15 l 354 -61 q 453 -109 417 -74 q 489 -194 489 -144 q 456 -276 489 -247 q 363 -304 422 -304 q 283 -287 321 -304 q 225 -242 246 -269 l 236 -212 q 276 -235 254 -226 q 321 -243 299 -243 q 379 -224 358 -243 q 400 -169 400 -204 q 373 -106 400 -132 q 294 -69 346 -81 l 310 -11 q 123 97 188 8 q 58 335 58 185 q 105 545 58 453 q 235 689 151 638 q 428 740 319 740 q 629 707 546 740 q 619 638 629 676 q 593 576 608 600 q 468 644 535 617 q 363 672 401 672 q 277 616 317 661 q 214 506 238 571 q 190 374 190 442 q 252 163 190 232 q 415 93 314 93 q 640 143 553 93 l 650 108 q 528 19 604 53 q 375 -15 453 -15 l 361 -15 z "},"È":{"ha":661,"x_min":86,"x_max":601,"o":"m 94 -4 q 107 215 104 140 q 110 417 110 289 q 86 732 110 646 q 310 722 160 722 q 596 732 494 722 q 588 651 596 694 q 567 592 579 608 q 481 619 533 610 q 372 629 428 629 q 236 618 299 629 q 229 410 231 501 l 264 408 q 343 406 317 406 q 445 409 410 406 q 524 421 481 413 q 529 369 529 393 q 524 317 529 350 q 285 326 371 326 q 228 325 244 326 q 233 113 228 174 q 379 99 300 99 q 501 108 440 99 q 601 136 563 118 q 593 55 601 99 q 572 -4 585 11 q 317 6 483 6 q 94 -4 168 6 m 469 833 q 208 947 289 863 q 256 992 224 978 q 339 1006 288 1006 q 388 928 347 968 q 482 867 429 889 l 469 833 z "},"É":{"ha":661,"x_min":86,"x_max":601,"o":"m 94 -4 q 107 215 104 140 q 110 417 110 289 q 86 732 110 646 q 310 722 160 722 q 596 732 494 722 q 588 651 596 694 q 567 592 579 608 q 481 619 533 610 q 372 629 428 629 q 236 618 299 629 q 229 410 231 501 l 264 408 q 343 406 317 406 q 445 409 410 406 q 524 421 481 413 q 529 369 529 393 q 524 317 529 350 q 285 326 371 326 q 228 325 244 326 q 233 113 228 174 q 379 99 300 99 q 501 108 440 99 q 601 136 563 118 q 593 55 601 99 q 572 -4 585 11 q 317 6 483 6 q 94 -4 168 6 m 236 867 q 328 928 288 889 q 378 1006 368 968 q 461 992 429 1006 q 510 947 493 978 q 247 833 425 863 l 236 867 z "},"Ê":{"ha":661,"x_min":86,"x_max":601,"o":"m 94 -4 q 107 215 104 140 q 110 417 110 289 q 86 732 110 646 q 310 722 160 722 q 596 732 494 722 q 588 651 596 694 q 567 592 579 608 q 481 619 533 610 q 372 629 428 629 q 236 618 299 629 q 229 410 231 501 l 264 408 q 343 406 317 406 q 445 409 410 406 q 524 421 481 413 q 529 369 529 393 q 524 317 529 350 q 285 326 371 326 q 228 325 244 326 q 233 113 228 174 q 379 99 300 99 q 501 108 440 99 q 601 136 563 118 q 593 55 601 99 q 572 -4 585 11 q 317 6 483 6 q 94 -4 168 6 m 244 826 q 158 838 201 826 q 283 1004 231 926 q 408 1024 335 1024 q 469 924 446 957 q 531 846 492 890 q 403 826 472 826 l 322 946 l 244 826 z "},"Ë":{"ha":661,"x_min":86,"x_max":601,"o":"m 94 -4 q 107 215 104 140 q 110 417 110 289 q 86 732 110 646 q 310 722 160 722 q 596 732 494 722 q 588 651 596 694 q 567 592 579 608 q 481 619 533 610 q 372 629 428 629 q 236 618 299 629 q 229 410 231 501 l 264 408 q 343 406 317 406 q 445 409 410 406 q 524 421 481 413 q 529 369 529 393 q 524 317 529 350 q 285 326 371 326 q 228 325 244 326 q 233 113 228 174 q 379 99 300 99 q 501 108 440 99 q 601 136 563 118 q 593 55 601 99 q 572 -4 585 11 q 317 6 483 6 q 94 -4 168 6 m 192 838 q 108 919 154 883 q 192 1003 147 964 q 275 919 228 956 q 192 838 235 872 m 493 838 q 411 919 456 882 q 493 1003 446 963 q 576 919 529 956 q 493 838 536 872 z "},"Ì":{"ha":336,"x_min":35,"x_max":308,"o":"m 172 -8 q 94 0 139 -8 q 106 190 101 68 q 110 419 110 311 q 86 732 110 674 q 161 740 126 740 q 243 732 197 740 q 232 544 236 664 q 228 315 228 424 q 250 0 228 61 q 172 -8 213 -8 m 296 833 q 35 947 115 863 q 82 992 50 978 q 165 1006 114 1006 q 215 928 174 968 q 308 867 256 889 l 296 833 z "},"Í":{"ha":336,"x_min":63,"x_max":336,"o":"m 172 -8 q 94 0 139 -8 q 106 190 101 68 q 110 419 110 311 q 86 732 110 674 q 161 740 126 740 q 243 732 197 740 q 232 544 236 664 q 228 315 228 424 q 250 0 228 61 q 172 -8 213 -8 m 63 867 q 154 928 114 889 q 204 1006 194 968 q 288 992 256 1006 q 336 947 319 978 q 74 833 251 863 l 63 867 z "},"Î":{"ha":336,"x_min":-17,"x_max":356,"o":"m 172 -8 q 94 0 139 -8 q 106 190 101 68 q 110 419 110 311 q 86 732 110 674 q 161 740 126 740 q 243 732 197 740 q 232 544 236 664 q 228 315 228 424 q 250 0 228 61 q 172 -8 213 -8 m 69 826 q -17 838 26 826 q 108 1004 56 926 q 233 1024 160 1024 q 294 924 271 957 q 356 846 317 890 q 228 826 297 826 l 147 946 l 69 826 z "},"Ï":{"ha":336,"x_min":-67,"x_max":401,"o":"m 172 -8 q 94 0 139 -8 q 106 190 101 68 q 110 419 110 311 q 86 732 110 674 q 161 740 126 740 q 243 732 197 740 q 232 544 236 664 q 228 315 228 424 q 250 0 228 61 q 172 -8 213 -8 m 17 838 q -67 919 -21 883 q 17 1003 -28 964 q 100 919 53 956 q 17 838 60 872 m 318 838 q 236 919 281 882 q 318 1003 271 963 q 401 919 354 956 q 318 838 361 872 z "},"Ð":{"ha":796,"x_min":33,"x_max":738,"o":"m 356 739 q 639 643 540 739 q 738 369 738 547 q 686 173 738 258 q 542 40 635 88 q 328 -8 449 -8 q 204 -2 268 -8 q 94 14 140 4 q 108 322 106 128 l 40 313 q 33 364 33 338 q 40 417 33 389 l 81 413 l 110 410 l 110 417 q 86 701 110 649 q 205 728 131 718 q 356 739 279 739 m 393 63 q 500 113 451 71 q 577 217 549 156 q 606 344 606 279 q 326 649 606 649 q 238 636 281 649 q 229 406 232 544 l 258 406 q 369 409 331 406 q 456 421 407 413 q 461 369 461 390 q 456 317 461 350 q 239 328 378 328 l 228 328 l 228 315 q 235 90 228 181 q 393 63 339 63 z "},"Ñ":{"ha":744,"x_min":81,"x_max":665,"o":"m 139 -8 q 85 0 117 -8 q 96 419 96 147 q 81 732 96 667 q 151 740 124 740 q 232 732 183 740 q 386 460 286 633 q 564 158 486 286 q 567 417 567 322 q 551 732 567 675 q 606 740 579 740 q 661 732 631 740 q 653 538 657 660 q 650 313 650 417 q 665 0 650 65 q 594 -8 643 -8 q 513 0 564 -8 q 360 270 460 96 q 182 572 260 444 q 178 315 178 450 q 193 0 178 65 q 139 -8 168 -8 m 193 899 q 226 981 201 957 q 288 1006 250 1006 q 400 976 324 1006 q 483 953 460 953 q 522 985 515 953 l 550 968 q 457 861 533 861 q 408 869 433 861 q 344 890 383 876 q 260 914 285 914 q 221 882 228 914 l 193 899 z "},"Ò":{"ha":849,"x_min":58,"x_max":790,"o":"m 388 -18 q 215 26 290 -18 q 99 152 140 71 q 58 339 58 233 q 108 549 58 457 q 247 692 158 640 q 450 743 336 743 q 628 697 551 743 q 748 569 706 651 q 790 378 790 486 q 739 173 790 263 q 596 33 688 83 q 388 -18 504 -18 m 419 54 q 594 130 529 54 q 658 336 658 206 q 601 531 658 454 q 443 626 544 608 q 313 590 371 626 q 223 488 256 553 q 190 342 190 424 q 253 133 190 213 q 419 54 317 54 m 550 833 q 289 947 369 863 q 336 992 304 978 q 419 1006 368 1006 q 469 928 428 968 q 563 867 510 889 l 550 833 z "},"Ó":{"ha":849,"x_min":58,"x_max":790,"o":"m 388 -18 q 215 26 290 -18 q 99 152 140 71 q 58 339 58 233 q 108 549 58 457 q 247 692 158 640 q 450 743 336 743 q 628 697 551 743 q 748 569 706 651 q 790 378 790 486 q 739 173 790 263 q 596 33 688 83 q 388 -18 504 -18 m 419 54 q 594 130 529 54 q 658 336 658 206 q 601 531 658 454 q 443 626 544 608 q 313 590 371 626 q 223 488 256 553 q 190 342 190 424 q 253 133 190 213 q 419 54 317 54 m 317 867 q 408 928 368 889 q 458 1006 449 968 q 542 992 510 1006 q 590 947 574 978 q 328 833 506 863 l 317 867 z "},"Ô":{"ha":849,"x_min":58,"x_max":790,"o":"m 388 -18 q 215 26 290 -18 q 99 152 140 71 q 58 339 58 233 q 108 549 58 457 q 247 692 158 640 q 450 743 336 743 q 628 697 551 743 q 748 569 706 651 q 790 378 790 486 q 739 173 790 263 q 596 33 688 83 q 388 -18 504 -18 m 419 54 q 594 130 529 54 q 658 336 658 206 q 601 531 658 454 q 443 626 544 608 q 313 590 371 626 q 223 488 256 553 q 190 342 190 424 q 253 133 190 213 q 419 54 317 54 m 325 826 q 239 838 282 826 q 364 1004 311 926 q 489 1024 415 1024 q 549 924 526 957 q 611 846 572 890 q 483 826 553 826 l 403 946 l 325 826 z "},"Õ":{"ha":849,"x_min":58,"x_max":790,"o":"m 388 -18 q 215 26 290 -18 q 99 152 140 71 q 58 339 58 233 q 108 549 58 457 q 247 692 158 640 q 450 743 336 743 q 628 697 551 743 q 748 569 706 651 q 790 378 790 486 q 739 173 790 263 q 596 33 688 83 q 388 -18 504 -18 m 419 54 q 594 130 529 54 q 658 336 658 206 q 601 531 658 454 q 443 626 544 608 q 313 590 371 626 q 223 488 256 553 q 190 342 190 424 q 253 133 190 213 q 419 54 317 54 m 244 899 q 277 981 253 957 q 339 1006 301 1006 q 451 976 375 1006 q 535 953 511 953 q 574 985 567 953 l 601 968 q 508 861 585 861 q 460 869 485 861 q 396 890 435 876 q 311 914 336 914 q 272 882 279 914 l 244 899 z "},"Ö":{"ha":849,"x_min":58,"x_max":790,"o":"m 388 -18 q 215 26 290 -18 q 99 152 140 71 q 58 339 58 233 q 108 549 58 457 q 247 692 158 640 q 450 743 336 743 q 628 697 551 743 q 748 569 706 651 q 790 378 790 486 q 739 173 790 263 q 596 33 688 83 q 388 -18 504 -18 m 419 54 q 594 130 529 54 q 658 336 658 206 q 601 531 658 454 q 443 626 544 608 q 313 590 371 626 q 223 488 256 553 q 190 342 190 424 q 253 133 190 213 q 419 54 317 54 m 272 838 q 189 919 235 883 q 272 1003 228 964 q 356 919 308 956 q 272 838 315 872 m 574 838 q 492 919 536 882 q 574 1003 526 963 q 657 919 610 956 q 574 838 617 872 z "},"×":{"ha":740,"x_min":128,"x_max":614,"o":"m 203 126 q 160 160 182 138 q 128 201 139 182 q 310 369 238 299 q 128 539 222 456 q 203 613 153 572 q 371 432 286 518 q 540 613 471 533 q 578 581 563 597 q 614 539 593 565 q 433 369 514 450 q 614 201 501 301 q 581 160 603 181 q 540 126 560 139 q 371 308 457 221 q 203 126 300 236 z "},"Ø":{"ha":849,"x_min":58,"x_max":790,"o":"m 610 708 q 742 579 694 665 q 790 378 790 493 q 739 173 790 263 q 596 33 688 83 q 388 -18 504 -18 q 318 -11 356 -18 q 288 -108 293 -83 q 231 -121 250 -121 q 179 -108 214 -121 l 235 15 q 105 141 151 57 q 58 339 58 225 q 108 549 58 457 q 247 692 158 640 q 450 743 336 743 q 526 736 488 743 q 560 840 556 814 q 618 853 597 853 q 668 840 633 853 q 610 708 633 765 m 190 342 q 213 208 190 268 q 275 110 235 147 q 482 617 388 368 q 443 626 468 621 q 313 590 371 626 q 223 488 256 553 q 190 342 190 424 m 419 54 q 594 130 529 54 q 658 336 658 206 q 631 478 658 415 q 554 579 604 540 q 346 67 426 275 q 419 54 381 54 z "},"Ù":{"ha":735,"x_min":74,"x_max":663,"o":"m 360 -7 q 165 67 235 -7 q 96 278 96 142 q 90 556 96 421 q 74 732 85 690 q 147 740 110 740 q 229 732 183 740 q 221 274 221 529 q 388 83 221 83 q 564 256 564 83 q 553 732 564 649 q 606 740 579 740 q 663 732 629 740 q 655 519 658 653 q 651 285 651 386 q 585 75 651 157 q 360 -7 518 -7 m 522 833 q 261 947 342 863 q 308 992 276 978 q 392 1006 340 1006 q 441 928 400 968 q 535 867 482 889 l 522 833 z "},"Ú":{"ha":735,"x_min":74,"x_max":663,"o":"m 360 -7 q 165 67 235 -7 q 96 278 96 142 q 90 556 96 421 q 74 732 85 690 q 147 740 110 740 q 229 732 183 740 q 221 274 221 529 q 388 83 221 83 q 564 256 564 83 q 553 732 564 649 q 606 740 579 740 q 663 732 629 740 q 655 519 658 653 q 651 285 651 386 q 585 75 651 157 q 360 -7 518 -7 m 289 867 q 381 928 340 889 q 431 1006 421 968 q 514 992 482 1006 q 563 947 546 978 q 300 833 478 863 l 289 867 z "},"Û":{"ha":735,"x_min":74,"x_max":663,"o":"m 360 -7 q 165 67 235 -7 q 96 278 96 142 q 90 556 96 421 q 74 732 85 690 q 147 740 110 740 q 229 732 183 740 q 221 274 221 529 q 388 83 221 83 q 564 256 564 83 q 553 732 564 649 q 606 740 579 740 q 663 732 629 740 q 655 519 658 653 q 651 285 651 386 q 585 75 651 157 q 360 -7 518 -7 m 297 826 q 211 838 254 826 q 336 1004 283 926 q 461 1024 388 1024 q 522 924 499 957 q 583 846 544 890 q 456 826 525 826 l 375 946 l 297 826 z "},"Ü":{"ha":735,"x_min":74,"x_max":663,"o":"m 360 -7 q 165 67 235 -7 q 96 278 96 142 q 90 556 96 421 q 74 732 85 690 q 147 740 110 740 q 229 732 183 740 q 221 274 221 529 q 388 83 221 83 q 564 256 564 83 q 553 732 564 649 q 606 740 579 740 q 663 732 629 740 q 655 519 658 653 q 651 285 651 386 q 585 75 651 157 q 360 -7 518 -7 m 244 838 q 161 919 207 883 q 244 1003 200 964 q 328 919 281 956 q 244 838 288 872 m 546 838 q 464 919 508 882 q 546 1003 499 963 q 629 919 582 956 q 546 838 589 872 z "},"Ý":{"ha":644,"x_min":7,"x_max":638,"o":"m 329 -8 q 250 0 296 -8 q 264 260 261 97 q 118 542 200 401 q 7 711 36 682 q 178 740 75 740 q 237 595 188 706 q 347 372 286 485 q 455 602 419 511 q 493 732 490 693 q 638 740 558 740 q 383 261 526 581 q 406 0 383 50 q 329 -8 368 -8 m 244 867 q 336 928 296 889 q 386 1006 376 968 q 469 992 438 1006 q 518 947 501 978 q 256 833 433 863 l 244 867 z "},"Þ":{"ha":668,"x_min":86,"x_max":631,"o":"m 172 -8 q 94 0 139 -8 q 106 190 101 68 q 110 419 110 311 q 86 732 110 674 q 161 740 126 740 q 243 732 197 740 q 236 619 238 678 q 342 628 286 628 q 556 565 481 628 q 631 383 631 501 q 592 242 631 304 q 485 146 554 181 q 328 111 417 111 q 232 121 272 111 q 250 0 239 31 q 172 -8 213 -8 m 379 182 q 465 256 431 203 q 499 372 499 308 q 313 538 499 538 q 232 525 272 538 q 226 315 226 450 q 229 213 226 235 q 379 182 328 182 z "},"ß":{"ha":719,"x_min":28,"x_max":663,"o":"m 28 -207 q 67 -139 54 -171 q 87 -53 81 -107 q 93 97 93 0 q 88 251 93 129 q 81 513 81 446 q 97 633 81 586 q 147 732 114 681 q 356 717 206 717 q 506 726 453 717 q 592 758 558 735 q 626 722 614 746 q 639 665 639 697 q 621 597 639 628 q 554 522 603 567 l 444 422 q 602 361 542 421 q 663 211 663 301 q 588 42 663 100 q 371 -15 514 -15 q 204 18 278 -15 q 160 -99 194 -49 q 44 -221 126 -149 l 28 -207 m 364 61 q 485 101 442 61 q 529 211 529 140 q 501 310 529 268 q 422 374 474 353 q 359 356 388 374 q 315 310 331 339 q 289 320 304 310 q 274 338 274 331 q 318 394 283 364 l 557 613 q 372 619 515 619 q 204 603 278 619 q 199 383 199 531 q 204 192 199 300 q 208 107 208 144 q 364 61 274 61 z "},"à":{"ha":607,"x_min":60,"x_max":547,"o":"m 178 -15 q 94 22 128 -15 q 60 115 60 58 q 388 304 60 283 q 361 432 388 396 q 264 468 335 468 q 177 454 221 468 q 97 417 133 440 l 86 443 q 188 542 124 504 q 318 581 251 581 q 457 533 408 581 q 506 394 506 485 q 499 282 506 344 q 493 183 493 215 q 504 101 493 131 q 547 38 515 72 q 435 -15 496 -7 q 382 61 397 10 q 278 6 332 26 q 178 -15 224 -15 m 233 51 q 307 71 268 54 q 376 111 346 88 l 376 118 q 381 204 376 163 l 385 264 q 239 224 290 258 q 188 133 188 190 q 200 87 188 110 q 233 51 213 64 m 429 667 q 168 781 249 696 q 215 825 183 811 q 299 839 247 839 q 348 762 307 801 q 442 700 389 722 l 429 667 z "},"á":{"ha":607,"x_min":60,"x_max":547,"o":"m 178 -15 q 94 22 128 -15 q 60 115 60 58 q 388 304 60 283 q 361 432 388 396 q 264 468 335 468 q 177 454 221 468 q 97 417 133 440 l 86 443 q 188 542 124 504 q 318 581 251 581 q 457 533 408 581 q 506 394 506 485 q 499 282 506 344 q 493 183 493 215 q 504 101 493 131 q 547 38 515 72 q 435 -15 496 -7 q 382 61 397 10 q 278 6 332 26 q 178 -15 224 -15 m 233 51 q 307 71 268 54 q 376 111 346 88 l 376 118 q 381 204 376 163 l 385 264 q 239 224 290 258 q 188 133 188 190 q 200 87 188 110 q 233 51 213 64 m 196 700 q 288 762 247 722 q 338 839 328 801 q 421 825 389 839 q 469 781 453 811 q 207 667 385 696 l 196 700 z "},"â":{"ha":607,"x_min":60,"x_max":547,"o":"m 178 -15 q 94 22 128 -15 q 60 115 60 58 q 388 304 60 283 q 361 432 388 396 q 264 468 335 468 q 177 454 221 468 q 97 417 133 440 l 86 443 q 188 542 124 504 q 318 581 251 581 q 457 533 408 581 q 506 394 506 485 q 499 282 506 344 q 493 183 493 215 q 504 101 493 131 q 547 38 515 72 q 435 -15 496 -7 q 382 61 397 10 q 278 6 332 26 q 178 -15 224 -15 m 233 51 q 307 71 268 54 q 376 111 346 88 l 376 118 q 381 204 376 163 l 385 264 q 239 224 290 258 q 188 133 188 190 q 200 87 188 110 q 233 51 213 64 m 204 660 q 118 671 161 660 q 243 838 190 760 q 368 857 294 857 q 428 757 406 790 q 490 679 451 724 q 363 660 432 660 l 282 779 l 204 660 z "},"ã":{"ha":607,"x_min":60,"x_max":547,"o":"m 178 -15 q 94 22 128 -15 q 60 115 60 58 q 388 304 60 283 q 361 432 388 396 q 264 468 335 468 q 177 454 221 468 q 97 417 133 440 l 86 443 q 188 542 124 504 q 318 581 251 581 q 457 533 408 581 q 506 394 506 485 q 499 282 506 344 q 493 183 493 215 q 504 101 493 131 q 547 38 515 72 q 435 -15 496 -7 q 382 61 397 10 q 278 6 332 26 q 178 -15 224 -15 m 233 51 q 307 71 268 54 q 376 111 346 88 l 376 118 q 381 204 376 163 l 385 264 q 239 224 290 258 q 188 133 188 190 q 200 87 188 110 q 233 51 213 64 m 124 732 q 156 815 132 790 q 218 839 181 839 q 331 810 254 839 q 414 786 390 786 q 453 818 446 786 l 481 801 q 388 694 464 694 q 339 702 364 694 q 275 724 314 710 q 190 747 215 747 q 151 715 158 747 l 124 732 z "},"ä":{"ha":607,"x_min":60,"x_max":547,"o":"m 178 -15 q 94 22 128 -15 q 60 115 60 58 q 388 304 60 283 q 361 432 388 396 q 264 468 335 468 q 177 454 221 468 q 97 417 133 440 l 86 443 q 188 542 124 504 q 318 581 251 581 q 457 533 408 581 q 506 394 506 485 q 499 282 506 344 q 493 183 493 215 q 504 101 493 131 q 547 38 515 72 q 435 -15 496 -7 q 382 61 397 10 q 278 6 332 26 q 178 -15 224 -15 m 233 51 q 307 71 268 54 q 376 111 346 88 l 376 118 q 381 204 376 163 l 385 264 q 239 224 290 258 q 188 133 188 190 q 200 87 188 110 q 233 51 213 64 m 151 671 q 68 753 114 717 q 151 836 107 797 q 235 753 188 789 q 151 671 194 706 m 453 671 q 371 753 415 715 q 453 836 406 796 q 536 753 489 789 q 453 671 496 706 z "},"å":{"ha":607,"x_min":60,"x_max":547,"o":"m 178 -15 q 94 22 128 -15 q 60 115 60 58 q 388 304 60 283 q 361 432 388 396 q 264 468 335 468 q 177 454 221 468 q 97 417 133 440 l 86 443 q 188 542 124 504 q 318 581 251 581 q 457 533 408 581 q 506 394 506 485 q 499 282 506 344 q 493 183 493 215 q 504 101 493 131 q 547 38 515 72 q 435 -15 496 -7 q 382 61 397 10 q 278 6 332 26 q 178 -15 224 -15 m 233 51 q 307 71 268 54 q 376 111 346 88 l 376 118 q 381 204 376 163 l 385 264 q 239 224 290 258 q 188 133 188 190 q 200 87 188 110 q 233 51 213 64 m 289 635 q 203 667 236 635 q 169 753 169 700 q 208 848 169 811 q 311 885 247 885 q 402 852 368 885 q 436 765 436 819 q 395 672 436 708 q 289 635 354 635 m 301 692 q 339 710 325 692 q 353 758 353 728 q 340 804 353 786 q 306 828 328 822 q 265 810 279 828 q 251 758 251 792 q 265 710 251 728 q 301 692 278 692 z "},"æ":{"ha":954,"x_min":60,"x_max":888,"o":"m 176 -15 q 93 22 126 -15 q 60 115 60 58 q 138 241 60 196 q 378 297 217 286 q 371 397 378 363 q 340 450 364 432 q 264 468 315 468 q 177 454 221 468 q 97 417 133 440 l 86 443 q 188 542 124 504 q 318 581 251 581 q 412 563 372 581 q 475 511 451 544 q 663 581 551 581 q 831 508 774 581 q 888 293 888 435 q 711 262 815 275 q 504 246 607 249 q 551 123 514 161 q 664 85 589 85 q 770 98 719 85 q 858 135 821 111 l 867 108 q 753 19 825 53 q 607 -15 682 -15 q 417 88 474 -15 q 296 13 361 42 q 176 -15 231 -15 m 503 290 q 639 313 572 297 q 743 349 706 329 q 701 469 742 422 q 597 517 661 517 q 528 431 554 492 q 503 290 503 369 m 233 51 q 322 78 275 56 q 397 128 368 100 q 376 256 379 182 q 237 218 286 250 q 188 133 188 186 q 200 87 188 110 q 233 51 213 64 z "},"ç":{"ha":572,"x_min":60,"x_max":536,"o":"m 536 111 q 438 24 499 58 q 311 -15 376 -10 l 304 -61 q 403 -109 367 -74 q 439 -194 439 -144 q 406 -276 439 -247 q 313 -304 372 -304 q 233 -287 271 -304 q 175 -242 196 -269 l 186 -212 q 226 -235 204 -226 q 271 -243 249 -243 q 329 -224 308 -243 q 350 -169 350 -204 q 323 -106 350 -132 q 244 -69 296 -81 l 258 -14 q 111 69 163 -3 q 60 265 60 142 q 97 428 60 357 q 200 540 133 500 q 351 581 267 581 q 517 547 449 581 q 503 487 517 524 q 474 424 490 450 q 368 497 418 471 q 285 522 318 522 q 215 438 243 499 q 188 306 188 378 q 226 135 188 186 q 353 83 264 83 q 525 135 454 83 l 536 111 z "},"è":{"ha":636,"x_min":60,"x_max":571,"o":"m 289 -15 q 119 58 178 -15 q 60 265 60 131 q 96 428 60 357 q 197 540 132 500 q 344 581 261 581 q 513 508 456 581 q 571 293 571 435 q 393 262 497 275 q 188 246 289 249 q 234 123 196 161 q 346 85 272 85 q 453 98 403 85 q 540 135 504 111 l 550 108 q 435 19 507 53 q 289 -15 364 -15 m 185 290 q 321 313 254 297 q 426 349 388 329 q 384 469 425 422 q 279 517 343 517 q 210 431 236 492 q 185 290 185 369 m 450 667 q 189 781 269 696 q 236 825 204 811 q 319 839 268 839 q 369 762 328 801 q 463 700 410 722 l 450 667 z "},"é":{"ha":636,"x_min":60,"x_max":571,"o":"m 289 -15 q 119 58 178 -15 q 60 265 60 131 q 96 428 60 357 q 197 540 132 500 q 344 581 261 581 q 513 508 456 581 q 571 293 571 435 q 393 262 497 275 q 188 246 289 249 q 234 123 196 161 q 346 85 272 85 q 453 98 403 85 q 540 135 504 111 l 550 108 q 435 19 507 53 q 289 -15 364 -15 m 185 290 q 321 313 254 297 q 426 349 388 329 q 384 469 425 422 q 279 517 343 517 q 210 431 236 492 q 185 290 185 369 m 217 700 q 308 762 268 722 q 358 839 349 801 q 442 825 410 839 q 490 781 474 811 q 228 667 406 696 l 217 700 z "},"ê":{"ha":636,"x_min":60,"x_max":571,"o":"m 289 -15 q 119 58 178 -15 q 60 265 60 131 q 96 428 60 357 q 197 540 132 500 q 344 581 261 581 q 513 508 456 581 q 571 293 571 435 q 393 262 497 275 q 188 246 289 249 q 234 123 196 161 q 346 85 272 85 q 453 98 403 85 q 540 135 504 111 l 550 108 q 435 19 507 53 q 289 -15 364 -15 m 185 290 q 321 313 254 297 q 426 349 388 329 q 384 469 425 422 q 279 517 343 517 q 210 431 236 492 q 185 290 185 369 m 225 660 q 139 671 182 660 q 264 838 211 760 q 389 857 315 857 q 449 757 426 790 q 511 679 472 724 q 383 660 453 660 l 303 779 l 225 660 z "},"ë":{"ha":636,"x_min":60,"x_max":571,"o":"m 289 -15 q 119 58 178 -15 q 60 265 60 131 q 96 428 60 357 q 197 540 132 500 q 344 581 261 581 q 513 508 456 581 q 571 293 571 435 q 393 262 497 275 q 188 246 289 249 q 234 123 196 161 q 346 85 272 85 q 453 98 403 85 q 540 135 504 111 l 550 108 q 435 19 507 53 q 289 -15 364 -15 m 185 290 q 321 313 254 297 q 426 349 388 329 q 384 469 425 422 q 279 517 343 517 q 210 431 236 492 q 185 290 185 369 m 172 671 q 89 753 135 717 q 172 836 128 797 q 256 753 208 789 q 172 671 215 706 m 474 671 q 392 753 436 715 q 474 836 426 796 q 557 753 510 789 q 474 671 517 706 z "},"ì":{"ha":339,"x_min":31,"x_max":304,"o":"m 182 -12 q 125 13 142 -12 q 108 101 108 38 q 111 247 108 153 q 114 378 114 336 q 107 483 114 435 q 86 551 100 531 q 160 573 125 567 q 240 579 196 579 q 228 455 233 539 q 224 267 224 371 q 228 150 224 190 q 244 86 233 110 q 278 38 254 63 q 229 0 256 13 q 182 -12 203 -12 m 292 667 q 31 781 111 696 q 78 825 46 811 q 161 839 110 839 q 210 762 169 801 q 304 700 251 722 l 292 667 z "},"í":{"ha":339,"x_min":58,"x_max":332,"o":"m 182 -12 q 125 13 142 -12 q 108 101 108 38 q 111 247 108 153 q 114 378 114 336 q 107 483 114 435 q 86 551 100 531 q 160 573 125 567 q 240 579 196 579 q 228 455 233 539 q 224 267 224 371 q 228 150 224 190 q 244 86 233 110 q 278 38 254 63 q 229 0 256 13 q 182 -12 203 -12 m 58 700 q 150 762 110 722 q 200 839 190 801 q 283 825 251 839 q 332 781 315 811 q 69 667 247 696 l 58 700 z "},"î":{"ha":339,"x_min":-19,"x_max":353,"o":"m 182 -12 q 125 13 142 -12 q 108 101 108 38 q 111 247 108 153 q 114 378 114 336 q 107 483 114 435 q 86 551 100 531 q 160 573 125 567 q 240 579 196 579 q 228 455 233 539 q 224 267 224 371 q 228 150 224 190 q 244 86 233 110 q 278 38 254 63 q 229 0 256 13 q 182 -12 203 -12 m 67 660 q -19 671 24 660 q 106 838 53 760 q 231 857 157 857 q 291 757 268 790 q 353 679 314 724 q 225 660 294 660 l 144 779 l 67 660 z "},"ï":{"ha":339,"x_min":-69,"x_max":399,"o":"m 182 -12 q 125 13 142 -12 q 108 101 108 38 q 111 247 108 153 q 114 378 114 336 q 107 483 114 435 q 86 551 100 531 q 160 573 125 567 q 240 579 196 579 q 228 455 233 539 q 224 267 224 371 q 228 150 224 190 q 244 86 233 110 q 278 38 254 63 q 229 0 256 13 q 182 -12 203 -12 m 14 671 q -69 753 -24 717 q 14 836 -31 797 q 97 753 50 789 q 14 671 57 706 m 315 671 q 233 753 278 715 q 315 836 268 796 q 399 753 351 789 q 315 671 358 706 z "},"ð":{"ha":696,"x_min":60,"x_max":624,"o":"m 624 299 q 584 135 624 207 q 474 24 544 64 q 313 -15 403 -15 q 129 63 199 -15 q 60 267 60 140 q 98 430 60 358 q 205 541 136 501 q 361 581 274 581 q 394 579 383 581 q 296 690 354 633 q 199 628 246 664 q 172 668 182 651 q 158 707 163 685 q 240 742 196 719 q 174 796 210 769 l 208 842 q 308 774 268 804 q 383 815 357 799 q 439 854 408 831 q 479 775 468 814 q 368 726 426 756 q 614 386 571 561 q 624 301 624 340 l 624 300 l 624 299 m 338 43 q 461 97 417 43 q 506 247 506 150 q 465 396 506 333 q 354 481 425 458 q 226 426 274 481 q 178 278 178 371 q 223 106 178 169 q 338 43 268 43 z "},"ñ":{"ha":726,"x_min":89,"x_max":638,"o":"m 211 -8 q 133 0 182 -8 q 143 296 143 139 q 138 413 143 372 q 123 476 133 453 q 89 525 113 500 q 136 563 111 551 q 182 575 161 575 q 267 492 256 575 q 352 557 303 533 q 453 581 401 581 q 615 389 615 581 l 613 301 q 608 208 608 250 q 638 0 608 65 q 564 -8 599 -8 q 481 0 528 -8 q 490 364 490 168 q 468 444 490 419 q 394 468 446 468 q 268 436 318 468 l 267 376 q 263 208 263 306 q 290 0 263 63 q 211 -8 249 -8 m 183 732 q 216 815 192 790 q 278 839 240 839 q 390 810 314 839 q 474 786 450 786 q 513 818 506 786 l 540 801 q 447 694 524 694 q 399 702 424 694 q 335 724 374 710 q 250 747 275 747 q 211 715 218 747 l 183 732 z "},"ò":{"ha":682,"x_min":60,"x_max":624,"o":"m 313 -15 q 129 63 199 -15 q 60 267 60 140 q 98 430 60 358 q 205 541 136 501 q 361 581 274 581 q 499 545 439 581 q 591 446 558 510 q 624 299 624 382 q 584 135 624 207 q 474 24 544 64 q 313 -15 403 -15 m 338 43 q 461 97 417 43 q 506 247 506 150 q 465 396 506 333 q 354 481 425 458 q 226 426 274 481 q 178 278 178 371 q 223 106 178 169 q 338 43 268 43 m 469 667 q 208 781 289 696 q 256 825 224 811 q 339 839 288 839 q 388 762 347 801 q 482 700 429 722 l 469 667 z "},"ó":{"ha":682,"x_min":60,"x_max":624,"o":"m 313 -15 q 129 63 199 -15 q 60 267 60 140 q 98 430 60 358 q 205 541 136 501 q 361 581 274 581 q 499 545 439 581 q 591 446 558 510 q 624 299 624 382 q 584 135 624 207 q 474 24 544 64 q 313 -15 403 -15 m 338 43 q 461 97 417 43 q 506 247 506 150 q 465 396 506 333 q 354 481 425 458 q 226 426 274 481 q 178 278 178 371 q 223 106 178 169 q 338 43 268 43 m 236 700 q 328 762 288 722 q 378 839 368 801 q 461 825 429 839 q 510 781 493 811 q 247 667 425 696 l 236 700 z "},"ô":{"ha":682,"x_min":60,"x_max":624,"o":"m 313 -15 q 129 63 199 -15 q 60 267 60 140 q 98 430 60 358 q 205 541 136 501 q 361 581 274 581 q 499 545 439 581 q 591 446 558 510 q 624 299 624 382 q 584 135 624 207 q 474 24 544 64 q 313 -15 403 -15 m 338 43 q 461 97 417 43 q 506 247 506 150 q 465 396 506 333 q 354 481 425 458 q 226 426 274 481 q 178 278 178 371 q 223 106 178 169 q 338 43 268 43 m 244 660 q 158 671 201 660 q 283 838 231 760 q 408 857 335 857 q 469 757 446 790 q 531 679 492 724 q 403 660 472 660 l 322 779 l 244 660 z "},"õ":{"ha":682,"x_min":60,"x_max":624,"o":"m 313 -15 q 129 63 199 -15 q 60 267 60 140 q 98 430 60 358 q 205 541 136 501 q 361 581 274 581 q 499 545 439 581 q 591 446 558 510 q 624 299 624 382 q 584 135 624 207 q 474 24 544 64 q 313 -15 403 -15 m 338 43 q 461 97 417 43 q 506 247 506 150 q 465 396 506 333 q 354 481 425 458 q 226 426 274 481 q 178 278 178 371 q 223 106 178 169 q 338 43 268 43 m 163 732 q 195 815 171 790 q 257 839 219 839 q 369 810 293 839 q 453 786 429 786 q 492 818 485 786 l 519 801 q 426 694 503 694 q 378 702 403 694 q 314 724 353 710 q 229 747 254 747 q 190 715 197 747 l 163 732 z "},"ö":{"ha":682,"x_min":60,"x_max":624,"o":"m 313 -15 q 129 63 199 -15 q 60 267 60 140 q 98 430 60 358 q 205 541 136 501 q 361 581 274 581 q 499 545 439 581 q 591 446 558 510 q 624 299 624 382 q 584 135 624 207 q 474 24 544 64 q 313 -15 403 -15 m 338 43 q 461 97 417 43 q 506 247 506 150 q 465 396 506 333 q 354 481 425 458 q 226 426 274 481 q 178 278 178 371 q 223 106 178 169 q 338 43 268 43 m 192 671 q 108 753 154 717 q 192 836 147 797 q 275 753 228 789 q 192 671 235 706 m 493 671 q 411 753 456 715 q 493 836 446 796 q 576 753 529 789 q 493 671 536 706 z "},"÷":{"ha":740,"x_min":101,"x_max":640,"o":"m 108 317 q 101 368 101 342 q 108 421 101 393 q 371 417 196 417 q 633 421 546 417 q 640 369 640 396 q 633 317 640 344 q 371 322 517 322 q 108 317 225 322 m 371 10 q 271 110 326 65 q 371 211 314 165 q 471 110 408 165 q 371 10 421 50 m 371 526 q 271 626 326 582 q 371 728 314 682 q 471 626 408 682 q 371 526 421 567 z "},"ø":{"ha":682,"x_min":60,"x_max":624,"o":"m 490 550 q 588 451 553 517 q 624 299 624 385 q 584 135 624 207 q 474 24 544 64 q 313 -15 403 -15 q 264 -11 288 -15 q 219 -144 229 -101 q 168 -156 183 -156 q 122 -144 156 -156 q 192 14 171 -35 q 94 113 129 47 q 60 267 60 178 q 98 430 60 358 q 205 541 136 501 q 361 581 274 581 q 421 575 394 581 q 465 710 458 678 q 517 721 499 721 q 561 710 528 721 l 490 550 m 178 278 q 228 99 178 164 q 381 471 303 274 q 369 475 375 472 q 354 481 363 478 q 226 426 274 481 q 178 278 178 371 m 338 43 q 461 97 417 43 q 506 247 506 150 q 488 349 506 303 q 439 429 471 396 q 288 53 332 171 q 338 43 308 43 z "},"ù":{"ha":688,"x_min":89,"x_max":628,"o":"m 269 -15 q 110 176 110 -15 l 113 264 l 115 357 q 89 551 115 493 q 242 579 157 579 q 233 190 233 410 q 257 109 233 135 q 333 83 281 83 q 457 115 401 83 q 461 281 457 208 l 463 357 q 436 551 463 493 q 590 579 504 579 q 579 352 585 483 q 574 176 574 221 q 585 97 574 126 q 628 35 596 68 q 517 -15 578 -7 q 463 68 475 14 q 374 7 425 29 q 269 -15 324 -15 m 481 667 q 219 781 300 696 q 267 825 235 811 q 350 839 299 839 q 399 762 358 801 q 493 700 440 722 l 481 667 z "},"ú":{"ha":688,"x_min":89,"x_max":628,"o":"m 269 -15 q 110 176 110 -15 l 113 264 l 115 357 q 89 551 115 493 q 242 579 157 579 q 233 190 233 410 q 257 109 233 135 q 333 83 281 83 q 457 115 401 83 q 461 281 457 208 l 463 357 q 436 551 463 493 q 590 579 504 579 q 579 352 585 483 q 574 176 574 221 q 585 97 574 126 q 628 35 596 68 q 517 -15 578 -7 q 463 68 475 14 q 374 7 425 29 q 269 -15 324 -15 m 247 700 q 339 762 299 722 q 389 839 379 801 q 472 825 440 839 q 521 781 504 811 q 258 667 436 696 l 247 700 z "},"û":{"ha":688,"x_min":89,"x_max":628,"o":"m 269 -15 q 110 176 110 -15 l 113 264 l 115 357 q 89 551 115 493 q 242 579 157 579 q 233 190 233 410 q 257 109 233 135 q 333 83 281 83 q 457 115 401 83 q 461 281 457 208 l 463 357 q 436 551 463 493 q 590 579 504 579 q 579 352 585 483 q 574 176 574 221 q 585 97 574 126 q 628 35 596 68 q 517 -15 578 -7 q 463 68 475 14 q 374 7 425 29 q 269 -15 324 -15 m 256 660 q 169 671 213 660 q 294 838 242 760 q 419 857 346 857 q 480 757 457 790 q 542 679 503 724 q 414 660 483 660 l 333 779 l 256 660 z "},"ü":{"ha":688,"x_min":89,"x_max":628,"o":"m 269 -15 q 110 176 110 -15 l 113 264 l 115 357 q 89 551 115 493 q 242 579 157 579 q 233 190 233 410 q 257 109 233 135 q 333 83 281 83 q 457 115 401 83 q 461 281 457 208 l 463 357 q 436 551 463 493 q 590 579 504 579 q 579 352 585 483 q 574 176 574 221 q 585 97 574 126 q 628 35 596 68 q 517 -15 578 -7 q 463 68 475 14 q 374 7 425 29 q 269 -15 324 -15 m 203 671 q 119 753 165 717 q 203 836 158 797 q 286 753 239 789 q 203 671 246 706 m 504 671 q 422 753 467 715 q 504 836 457 796 q 588 753 540 789 q 504 671 547 706 z "},"ý":{"ha":682,"x_min":75,"x_max":596,"o":"m 301 -250 q 75 -193 161 -250 q 189 33 75 -72 q 115 204 115 75 l 118 272 l 121 354 q 96 551 121 496 q 168 573 135 567 q 249 579 201 579 q 240 214 240 499 q 263 134 240 158 q 336 110 285 110 q 472 146 417 110 l 469 308 q 468 357 468 331 q 461 474 468 422 q 442 551 454 525 q 596 579 510 579 q 586 232 586 467 q 589 73 586 138 q 592 0 592 8 q 513 -187 592 -124 q 301 -250 433 -250 m 314 -175 q 431 -128 390 -175 q 472 33 472 -82 l 472 99 q 383 35 432 57 q 278 13 333 13 q 239 15 264 13 q 171 -117 183 -51 q 234 -159 196 -143 q 314 -175 272 -175 m 233 700 q 325 762 285 722 q 375 839 365 801 q 458 825 426 839 q 507 781 490 811 q 244 667 422 696 l 233 700 z "},"þ":{"ha":701,"x_min":89,"x_max":636,"o":"m 99 -250 q 110 36 106 -150 q 115 432 115 222 q 89 732 115 643 q 163 753 128 747 q 242 760 199 760 q 231 503 235 665 q 314 555 268 536 q 406 574 360 574 q 578 503 519 574 q 636 294 636 432 q 560 69 636 150 q 349 -12 485 -12 q 228 14 276 -12 q 253 -222 232 -140 q 99 -250 185 -250 m 344 50 q 461 101 419 50 q 503 246 503 153 q 468 395 503 332 q 374 481 433 458 q 299 470 338 481 q 229 443 261 460 l 228 394 q 224 206 224 293 q 225 108 224 143 q 280 65 249 81 q 344 50 311 50 z "},"ÿ":{"ha":682,"x_min":75,"x_max":596,"o":"m 301 -250 q 75 -193 161 -250 q 189 33 75 -72 q 115 204 115 75 l 118 272 l 121 354 q 96 551 121 496 q 168 573 135 567 q 249 579 201 579 q 240 214 240 499 q 263 134 240 158 q 336 110 285 110 q 472 146 417 110 l 469 308 q 468 357 468 331 q 461 474 468 422 q 442 551 454 525 q 596 579 510 579 q 586 232 586 467 q 589 73 586 138 q 592 0 592 8 q 513 -187 592 -124 q 301 -250 433 -250 m 314 -175 q 431 -128 390 -175 q 472 33 472 -82 l 472 99 q 383 35 432 57 q 278 13 333 13 q 239 15 264 13 q 171 -117 183 -51 q 234 -159 196 -143 q 314 -175 272 -175 m 189 671 q 106 753 151 717 q 189 836 144 797 q 272 753 225 789 q 189 671 232 706 m 490 671 q 408 753 453 715 q 490 836 443 796 q 574 753 526 789 q 490 671 533 706 z "},"؀":{"ha":625,"x_min":-250,"x_max":1069,"o":"m 1069 -78 q 1015 -214 1053 -136 l -24 -214 q -90 -217 -49 -214 l -124 -218 q -250 -64 -189 -168 q -142 -72 -214 -68 q -47 -78 -71 -76 l 704 -78 q 670 -47 679 -61 q 661 -6 661 -32 q 682 73 661 33 q 735 142 703 113 q 803 187 764 168 q 875 206 842 206 q 944 188 910 206 q 1005 147 979 169 q 1036 115 1031 125 l 1008 90 q 888 114 951 114 q 733 67 793 114 q 776 -17 740 24 q 863 -78 813 -57 l 1069 -78 z "},"؁":{"ha":694,"x_min":-806,"x_max":1353,"o":"m 1300 151 q 1336 86 1319 129 q 1353 -19 1353 43 q 1343 -76 1353 -36 q 1311 -147 1333 -115 q 1208 -201 1272 -201 q 1119 -173 1149 -201 q 1088 -108 1090 -144 q 1046 -181 1078 -150 q 960 -212 1014 -212 q 883 -182 910 -212 q 850 -107 856 -151 q 844 -133 850 -112 q 822 -171 838 -153 q 725 -212 786 -212 l -36 -212 q -153 -167 -112 -212 q -182 -107 -178 -137 q -189 -128 -183 -110 q -217 -169 -194 -146 q -322 -212 -257 -212 l -369 -214 q -429 -203 -406 -214 q -471 -171 -453 -192 q -510 -108 -487 -151 q -549 -48 -531 -67 q -599 -29 -568 -29 q -669 -59 -639 -29 q -728 -136 -699 -89 q -781 -235 -761 -192 l -806 -242 q -732 -69 -774 -144 q -581 69 -656 69 q -519 45 -544 69 q -465 -21 -494 21 q -372 -78 -428 -74 q -360 -76 -368 -76 l -349 -76 q -251 -49 -279 -76 q -217 42 -222 -21 l -186 58 q -161 -39 -190 -6 q -56 -76 -128 -76 l 735 -76 q 825 -31 794 -76 q 840 7 836 -12 q 846 35 844 26 l 876 51 q 874 -1 872 18 q 899 -60 878 -37 q 974 -82 921 -82 q 1072 -6 1050 -82 q 1079 35 1076 7 l 1110 51 q 1107 19 1107 32 q 1129 -51 1107 -28 q 1211 -82 1156 -82 q 1270 -67 1250 -82 q 1306 -8 1290 -51 l 1244 76 q 1300 151 1268 119 z "},"؂":{"ha":833,"x_min":-312,"x_max":939,"o":"m -312 -21 q -294 72 -312 28 q -243 144 -275 117 q -175 172 -211 172 q -97 147 -131 172 q -47 74 -64 121 q -33 -18 -33 36 q -37 -76 -33 -46 l 269 -76 q 717 -73 539 -76 q 939 -64 896 -69 q 813 -218 878 -168 q 435 -214 740 -214 l 269 -212 l -79 -212 q -258 -154 -197 -211 q -312 -21 -312 -104 m -100 -76 q -119 32 -97 -7 q -182 71 -142 71 q -239 44 -221 71 q -257 -7 -257 18 q -240 -53 -257 -29 q -174 -76 -222 -76 l -100 -76 z "},"؃":{"ha":833,"x_min":-140,"x_max":1581,"o":"m -140 -64 q 254 -74 -86 -71 q 843 -78 594 -76 q 896 -66 875 -78 q 933 -31 917 -54 q 951 3 946 -14 q 960 46 957 21 l 990 63 q 988 22 988 47 q 1010 -44 988 -21 q 1071 -78 1035 -74 q 1120 -5 1086 -53 q 1197 89 1154 43 q 1312 188 1249 143 q 1429 232 1375 232 q 1482 222 1454 232 q 1531 194 1510 211 q 1569 148 1558 174 q 1581 99 1581 122 q 1571 46 1581 76 q 1544 -12 1561 15 q 1451 -114 1513 -67 q 1325 -183 1396 -157 q 1190 -208 1254 -208 q 1124 -207 1154 -208 q 1072 -201 1094 -206 l 1061 -237 l 1022 -237 l 1033 -190 q 965 -119 982 -175 q 842 -214 946 -214 l 381 -214 q 106 -215 186 -214 q -14 -218 26 -215 q -140 -64 -79 -168 m 1281 -78 q 1414 -53 1354 -78 q 1467 -24 1447 -39 q 1508 15 1488 -8 q 1496 51 1501 39 q 1481 75 1490 63 q 1374 128 1435 128 q 1299 107 1336 128 q 1217 40 1263 86 q 1121 -78 1171 -7 l 1281 -78 z "},"؄":{"ha":833,"x_min":-165,"x_max":1735,"o":"m 1682 315 q 1717 252 1699 299 q 1735 157 1735 206 q 1726 88 1735 128 q 1694 17 1718 49 q 1586 -37 1654 -37 q 1501 -8 1531 -37 q 1469 56 1471 22 q 1432 -16 1460 14 q 1357 -46 1404 -46 q 1294 -25 1318 -46 q 1249 38 1271 -4 q 1217 81 1233 67 q 1165 94 1200 94 q 1096 76 1125 94 q 1051 31 1067 57 q 1036 -15 1036 6 q 1069 -65 1036 -47 q 1128 -88 1101 -82 q 1160 -96 1154 -94 q 1139 -228 1164 -167 q 1076 -206 1106 -212 q 1010 -199 1047 -199 q 946 -204 982 -199 q 842 -212 899 -212 l -117 -212 q -165 -218 -149 -212 q -139 -133 -150 -164 q -110 -71 -128 -103 q -60 -76 -87 -76 l 847 -76 q 931 -79 908 -79 q 985 -74 969 -79 q 982 -37 982 -49 q 985 -3 982 -25 q 1031 100 993 49 q 1094 163 1057 138 q 1175 192 1138 192 q 1217 182 1203 192 q 1238 160 1231 172 q 1247 144 1244 149 q 1291 97 1267 113 q 1351 82 1315 82 q 1454 158 1433 82 q 1461 199 1458 174 l 1492 215 q 1489 182 1489 196 q 1511 113 1489 136 q 1596 82 1539 82 q 1651 97 1632 82 q 1688 156 1671 111 l 1626 240 q 1682 315 1650 283 z "},"؆":{"ha":810,"x_min":69,"x_max":758,"o":"m 521 817 q 524 796 524 808 q 511 750 524 768 q 469 732 497 732 q 433 743 449 732 q 415 725 425 729 q 381 722 404 721 q 389 647 389 683 q 374 535 389 606 l 361 535 q 350 674 364 619 q 313 778 340 732 q 339 818 319 793 q 363 786 349 800 q 403 772 376 772 q 427 782 422 772 q 432 811 432 792 l 443 817 q 449 784 443 799 q 478 769 454 769 q 508 811 508 769 l 521 817 m 758 528 l 742 469 l 642 469 l 410 0 l 69 789 l 125 789 l 363 232 l 510 528 l 758 528 z "},"؇":{"ha":828,"x_min":69,"x_max":758,"o":"m 453 594 q 426 560 444 575 q 375 544 407 544 q 336 551 351 544 q 315 564 321 557 q 307 574 308 571 q 319 606 307 589 q 344 636 331 622 q 361 656 357 650 l 364 661 q 331 686 364 672 q 308 719 299 700 q 345 776 319 750 q 406 817 371 801 q 399 781 404 803 q 336 740 363 767 q 338 733 336 739 q 343 721 339 726 q 364 706 347 714 q 388 693 381 697 q 397 684 394 689 q 396 671 400 679 l 374 639 l 350 606 q 397 572 364 572 q 425 578 414 572 q 440 590 436 583 l 453 594 m 758 528 l 742 469 l 642 469 l 410 0 l 69 789 l 125 789 l 363 232 l 510 528 l 758 528 z "},"؈":{"ha":918,"x_min":3,"x_max":876,"o":"m 721 136 q 807 155 760 136 q 876 214 854 174 l 876 78 q 820 22 853 36 q 758 5 788 8 q 721 0 729 1 q 708 -109 721 -40 q 640 -249 694 -178 q 540 -332 600 -303 q 388 -365 474 -365 q 218 -325 292 -365 q 118 -215 147 -286 q 100 -121 100 -172 l 101 -93 q 115 -15 106 -53 l 43 -47 l 3 1 q 142 61 68 18 l 168 51 q 157 -39 157 -4 q 185 -129 157 -92 q 399 -208 243 -208 q 515 -192 467 -208 q 599 -139 563 -175 q 649 -61 640 -97 q 658 0 658 -25 l 601 0 q 533 8 558 0 q 490 31 508 15 q 444 156 444 72 q 450 214 444 182 q 465 269 456 246 q 512 343 482 315 q 582 371 542 371 q 676 307 640 371 q 711 209 701 263 q 721 136 721 156 m 647 136 q 641 181 647 147 q 616 247 635 215 q 563 278 597 278 q 513 254 535 278 q 492 201 492 231 q 574 136 492 136 l 647 136 z "},"؉":{"ha":833,"x_min":0,"x_max":0,"o":""},"؊":{"ha":833,"x_min":0,"x_max":0,"o":""},"؋":{"ha":449,"x_min":-97,"x_max":350,"o":"m 200 793 q 244 756 222 776 q 278 717 265 735 q 206 644 250 686 q 129 719 168 689 q 200 793 165 753 m 347 374 q 350 328 350 343 q 331 190 350 257 q 247 53 304 100 q 160 10 208 21 q 54 0 113 0 l -97 0 l -97 136 l 108 136 q 269 192 224 136 q 293 233 285 208 q 299 282 301 258 q 192 246 261 246 q 101 275 133 246 q 64 374 64 308 q 74 447 64 408 q 101 515 85 485 q 142 567 117 544 q 204 589 168 589 q 301 525 264 589 q 347 374 339 461 m 279 383 q 183 496 256 496 q 126 469 144 496 q 108 418 108 443 q 126 372 108 396 q 192 349 143 349 q 247 360 225 349 q 279 383 268 371 m 150 -250 q 153 -207 153 -219 q 113 -58 153 -125 q 132 -44 119 -50 q 161 -31 144 -37 q 179 -97 172 -56 q 186 -183 186 -137 q 182 -249 186 -215 l 150 -250 z "},"،":{"ha":265,"x_min":42,"x_max":224,"o":"m 224 283 q 190 217 201 256 q 178 139 178 179 q 201 15 178 69 q 140 -10 176 0 q 76 -21 104 -21 l 42 15 q 90 172 49 97 q 204 304 132 246 l 224 283 z "},"؎":{"ha":1100,"x_min":69,"x_max":1031,"o":"m 1031 101 q 1017 59 1031 82 q 978 19 1004 36 q 915 3 953 3 q 800 61 858 3 q 719 16 754 31 q 646 1 685 1 q 574 26 601 1 q 547 90 547 51 q 563 143 547 121 q 615 183 579 165 q 654 236 644 197 q 696 217 682 235 q 710 175 710 199 q 794 106 760 147 q 863 182 849 160 q 767 269 815 239 q 665 299 719 299 q 576 278 617 299 q 505 228 535 258 q 429 147 475 199 q 379 91 419 138 q 294 22 339 44 q 197 0 250 0 q 69 108 69 0 q 88 160 69 139 q 136 182 107 182 q 177 164 160 182 q 194 121 194 146 q 171 75 194 89 q 118 61 147 61 q 207 29 158 29 q 298 64 256 29 q 360 129 340 99 q 382 158 374 149 q 499 301 460 267 q 474 319 482 307 q 465 344 465 331 q 489 389 465 368 q 564 353 501 353 q 624 360 585 353 q 683 367 658 367 q 804 328 743 367 q 789 379 789 353 q 810 431 789 410 q 858 446 826 446 q 851 421 851 432 q 872 367 851 400 q 879 338 879 351 q 874 315 879 325 q 825 289 858 289 q 933 146 832 276 q 972 160 950 160 q 1014 143 997 160 q 1031 101 1031 126 m 968 39 q 925 57 942 42 q 908 94 908 72 q 915 121 908 104 q 897 144 906 135 q 881 163 888 154 q 815 79 864 135 q 863 43 839 57 q 918 29 888 29 q 968 39 943 29 m 779 88 q 710 142 742 125 q 643 160 679 160 q 589 139 604 160 q 574 97 574 118 q 601 49 574 67 q 661 31 628 31 q 722 47 692 31 q 779 88 753 63 z "},"؏":{"ha":715,"x_min":97,"x_max":674,"o":"m 674 -196 q 651 -307 674 -249 q 579 -406 629 -365 q 394 -465 510 -465 q 315 -458 361 -465 q 310 -531 313 -479 l 265 -499 l 267 -442 q 175 -374 217 -418 q 97 -174 97 -289 q 100 -136 97 -161 q 158 47 111 -39 q 260 186 204 132 q 197 234 226 204 q 161 297 168 264 q 158 324 158 314 q 197 433 158 378 q 261 496 222 469 q 338 522 300 522 q 417 508 372 522 q 497 464 461 493 l 476 433 q 415 440 449 440 q 338 431 378 440 q 268 403 294 419 q 215 358 242 386 q 354 247 247 279 q 576 324 447 282 q 551 236 568 292 q 331 149 419 203 q 215 34 249 96 q 181 -90 181 -28 q 214 -226 181 -182 q 285 -294 247 -269 q 295 -231 286 -271 q 321 -150 304 -190 q 390 -44 346 -86 q 501 -3 435 -3 q 593 -31 554 -3 q 653 -103 632 -58 q 674 -196 674 -147 m 597 -157 q 571 -93 594 -119 q 514 -67 547 -67 q 425 -101 461 -67 q 368 -190 389 -136 q 346 -265 353 -229 q 339 -311 339 -301 q 397 -315 371 -315 q 513 -292 463 -315 q 581 -227 560 -267 q 597 -157 601 -187 z "},"ؐ":{"ha":0,"x_min":-133,"x_max":135,"o":"m -133 1099 q -108 1132 -117 1124 q -85 1110 -96 1117 q -53 1101 -74 1104 q -35 1127 -49 1108 q -4 1163 -22 1146 q 82 1217 43 1217 q 117 1203 99 1217 q 135 1171 135 1188 q 122 1126 135 1146 q 89 1089 111 1107 q -8 1054 43 1054 q -57 1057 -46 1054 q -78 1067 -65 1058 q -72 1024 -72 1036 q -81 981 -72 1001 l -86 978 q -107 1058 -86 1014 q -122 1083 -114 1071 q -133 1099 -131 1094 m 25 1101 q 79 1114 47 1101 q 110 1138 99 1124 q 104 1149 106 1144 q 100 1158 103 1154 q 83 1172 93 1167 q 61 1178 72 1178 q 33 1171 44 1178 q 13 1156 21 1164 q 1 1146 4 1149 q -33 1101 -7 1136 l 25 1101 z "},"ؑ":{"ha":0,"x_min":-110,"x_max":108,"o":"m 108 1125 q 93 1083 101 1097 q 83 1079 85 1081 q 78 1076 81 1078 q 49 1065 74 1075 q -7 1057 24 1056 q -54 1071 -35 1057 q -49 1026 -49 1038 q -57 983 -49 1004 l -62 981 q -85 1061 -62 1019 q -99 1085 -90 1074 q -110 1101 -107 1097 q -86 1136 -104 1114 q -61 1114 -72 1119 q -31 1106 -50 1108 q -42 1121 -37 1111 q -47 1142 -47 1131 q -39 1171 -47 1156 q -19 1196 -31 1186 q 32 1219 7 1219 q 69 1206 50 1219 q 90 1188 88 1193 l 79 1178 q 38 1186 54 1186 q -19 1169 4 1186 q -3 1133 -17 1151 q 28 1106 10 1114 q 47 1108 32 1106 q 83 1117 63 1110 l 108 1125 z "},"ؒ":{"ha":0,"x_min":-162,"x_max":161,"o":"m 144 1181 q 161 1113 161 1150 q 139 1019 161 1054 q 113 989 131 1000 q 75 978 97 978 l 40 979 q 10 975 25 979 l 4 982 l 72 1018 q 119 1050 101 1036 q 139 1100 139 1072 q 128 1136 139 1117 q 104 1165 114 1156 q 131 1201 118 1189 q 144 1181 131 1201 m 49 1100 q 26 1101 42 1101 q -75 1077 -26 1101 q -147 1000 -124 1053 l -162 1000 q -140 1050 -157 1022 q -86 1100 -124 1075 q -42 1117 -60 1114 q -104 1131 -83 1131 q -147 1108 -135 1131 l -154 1115 q -140 1144 -147 1133 q -131 1157 -132 1154 q -101 1167 -119 1167 q -81 1164 -92 1167 l -64 1160 q -22 1148 -57 1156 q 49 1143 13 1140 l 61 1143 q 49 1100 54 1113 z "},"ؓ":{"ha":0,"x_min":-183,"x_max":183,"o":"m 6 1269 q 31 1297 19 1282 q 60 1269 53 1281 q 47 1254 56 1263 q 33 1242 39 1246 q 19 1257 28 1249 q 6 1269 11 1265 m -183 1103 q -160 1136 -174 1118 q -134 1114 -144 1119 q -103 1106 -124 1108 q -80 1139 -90 1124 q -56 1167 -69 1154 q -11 1205 -32 1190 q 32 1219 10 1219 q 65 1207 47 1219 q 85 1174 85 1193 q 72 1129 85 1153 q 39 1093 58 1110 q -58 1058 -4 1058 q -107 1061 -96 1058 q -129 1069 -117 1063 q -122 1028 -122 1044 q -131 985 -122 1008 l -136 981 q -158 1063 -136 1013 q -183 1103 -164 1074 m 94 1031 q 140 1064 126 1047 q 163 1111 163 1086 q 150 1149 163 1132 q 139 1165 147 1156 q 128 1178 131 1175 q 153 1214 135 1193 q 167 1194 161 1206 q 183 1125 183 1168 q 164 1032 183 1068 q 135 1001 149 1010 q 99 989 115 989 l 63 990 q 32 988 57 990 l 28 993 l 94 1031 m -26 1106 q 29 1118 4 1106 q 60 1140 44 1125 q 56 1150 60 1140 q 49 1163 54 1157 q 33 1176 43 1169 q 13 1182 22 1182 q -17 1175 -6 1182 q -37 1160 -29 1168 q -49 1150 -46 1153 q -85 1106 -67 1131 l -26 1106 z "},"ؔ":{"ha":0,"x_min":-176,"x_max":172,"o":"m 172 1076 l 172 1072 q 157 1011 172 1038 q 101 983 139 983 l 92 983 q 49 1000 65 983 q 41 1013 43 1006 q 39 1021 39 1019 q 26 999 35 1007 q -14 983 13 983 l -150 983 l -176 1032 l -22 1032 q 15 1038 6 1032 q 26 1065 25 1044 l 38 1072 q 43 1050 38 1060 q 86 1032 57 1032 l 106 1032 q 136 1043 124 1032 q 155 1066 149 1054 q 163 1082 161 1078 l 172 1076 z "},"ؕ":{"ha":0,"x_min":-97,"x_max":103,"o":"m -53 1219 q -24 1183 -42 1201 q -35 1168 -32 1175 q -37 1143 -39 1161 q -28 1098 -31 1111 q -28 1063 -26 1085 q 15 1106 -6 1093 q 53 1119 36 1119 q 86 1107 69 1119 q 103 1079 103 1094 q 63 1007 103 1040 q -25 976 18 976 l -83 976 l -97 1021 l -57 1021 l -42 1049 q -56 1133 -46 1097 q -75 1186 -67 1168 l -53 1219 m 81 1053 q 63 1076 74 1067 q 33 1085 53 1085 q -32 1021 -4 1083 l 4 1021 q 49 1030 28 1021 q 81 1053 69 1039 z "},"ؖ":{"ha":0,"x_min":-162,"x_max":153,"o":"m -162 1015 q -140 1054 -162 1036 q -117 1067 -131 1061 q -100 1076 -104 1074 q -64 1099 -69 1094 q -44 1114 -60 1104 q -6 1124 -29 1124 l 40 1124 q 79 1144 67 1124 q 51 1278 65 1235 l 72 1307 q 97 1274 75 1299 q 88 1260 90 1267 q 86 1242 85 1254 l 90 1211 q 97 1146 97 1167 q 86 1107 97 1126 q 57 1086 76 1090 q 40 1085 53 1085 l -39 1085 q -60 1081 -53 1085 q -76 1071 -68 1078 q -89 1062 -81 1067 q -103 1054 -97 1057 q -122 1046 -117 1050 q -132 1040 -128 1044 q -136 1032 -136 1035 q -124 1015 -136 1019 q -94 1011 -112 1011 l 58 1011 q 44 989 54 1000 q 32 974 35 978 l -85 974 q -147 988 -128 974 q -162 1015 -162 1000 m 119 1275 q 140 1307 135 1300 l 144 1307 l 149 1243 q 153 1169 153 1196 q 147 1107 153 1140 q 142 1085 147 1097 l 135 1085 q 136 1106 136 1090 q 135 1129 136 1122 q 131 1158 135 1140 q 125 1214 126 1194 q 119 1275 119 1257 z "},"ؗ":{"ha":0,"x_min":-76,"x_max":81,"o":"m 76 1249 q 49 1222 56 1228 q 21 1249 32 1242 l 47 1276 q 76 1249 68 1264 m 81 1107 q 76 1062 81 1088 q 60 1015 71 1036 q 32 985 44 993 q -4 972 15 972 l -42 974 q -72 971 -60 974 l -76 976 l -10 1014 q 38 1046 21 1029 q 58 1094 58 1067 q 22 1160 58 1126 q 34 1178 26 1167 q 49 1197 42 1189 q 55 1190 50 1196 q 64 1175 60 1183 q 81 1107 81 1144 z "},"؛":{"ha":292,"x_min":42,"x_max":250,"o":"m 250 568 q 216 502 228 540 q 204 424 204 464 q 228 300 204 354 q 167 274 203 285 q 103 264 131 264 l 68 300 q 117 456 75 382 q 231 589 158 531 l 250 568 m 146 181 q 250 76 193 124 q 146 -28 203 19 q 42 76 99 29 q 146 181 89 133 z "},"؟":{"ha":532,"x_min":56,"x_max":504,"o":"m 318 313 q 192 351 253 319 q 94 437 132 383 q 56 560 56 490 q 116 724 56 667 q 293 781 176 781 q 504 717 408 781 q 485 615 504 664 q 415 678 457 656 q 324 700 372 700 q 231 663 264 700 q 197 560 197 626 q 234 448 197 497 q 342 372 271 399 l 318 313 m 304 0 q 200 104 247 47 q 304 208 257 151 q 408 104 361 161 q 304 0 351 57 z "},"ؠ":{"ha":915,"x_min":97,"x_max":832,"o":"m 672 168 q 801 132 769 156 q 832 78 832 108 q 818 -9 832 40 q 771 -104 804 -58 q 638 -215 721 -175 q 396 -276 515 -276 q 274 -258 331 -276 q 175 -207 217 -240 q 97 -19 97 -143 q 140 164 97 71 l 167 154 q 156 58 156 99 q 185 -44 156 -7 q 411 -119 246 -119 q 629 -79 536 -119 q 706 -36 674 -60 q 753 4 738 -12 q 772 26 769 21 l 610 54 q 519 82 557 63 q 469 149 469 107 q 486 235 469 175 q 532 354 503 296 q 624 474 576 440 q 717 508 672 508 q 786 479 761 508 q 822 406 813 451 q 829 331 831 361 l 804 319 q 778 362 790 347 q 760 382 767 376 q 751 388 753 388 q 588 314 656 388 q 554 265 565 290 q 543 229 543 239 q 571 191 543 206 q 672 168 599 176 m 396 -349 q 458 -378 436 -349 q 481 -444 481 -407 q 468 -494 481 -474 q 401 -525 450 -525 q 344 -501 361 -525 q 326 -454 326 -476 q 345 -381 326 -412 q 396 -349 364 -349 m 394 -383 q 363 -398 374 -383 q 353 -428 353 -412 q 393 -471 353 -471 q 437 -464 414 -471 q 460 -433 460 -457 q 443 -399 460 -414 q 394 -383 426 -383 z "},"ء":{"ha":471,"x_min":83,"x_max":401,"o":"m 401 144 q 372 82 386 104 q 310 73 336 79 q 244 54 285 67 q 168 25 196 39 q 97 -14 140 11 q 88 -3 92 -8 q 83 7 83 3 q 103 31 83 18 q 120 41 113 36 q 133 49 128 46 l 213 94 q 147 115 171 94 q 122 167 122 136 q 128 186 122 179 q 183 251 154 225 q 289 290 232 290 q 342 275 324 290 q 361 244 360 260 l 351 231 q 296 240 332 240 q 241 231 265 240 q 185 201 217 221 q 199 163 185 176 q 247 139 213 149 q 306 131 276 131 q 357 136 321 131 q 401 144 399 143 z "},"آ":{"ha":190,"x_min":-137,"x_max":343,"o":"m 42 592 q 114 694 76 653 l 129 694 q 133 610 128 656 q 139 554 138 565 l 144 493 q 160 231 160 324 q 155 143 160 174 q 139 67 150 113 q 118 0 126 22 l 97 0 q 99 36 99 10 q 96 108 99 58 l 94 140 l 89 192 l 85 231 q 63 401 81 269 q 42 592 42 554 m 336 829 q 343 819 340 825 q 306 793 333 810 q 226 758 274 772 q 125 744 179 744 q 18 761 79 744 q -43 771 -21 771 q -89 760 -69 771 q -126 725 -108 749 q -137 736 -133 729 q -33 857 -108 857 q 60 838 -7 857 q 140 816 104 824 q 215 808 175 808 q 336 829 275 808 z "},"أ":{"ha":215,"x_min":-7,"x_max":242,"o":"m 42 592 q 114 694 76 653 l 129 694 q 133 610 128 656 q 139 554 138 565 l 144 493 q 160 231 160 324 q 155 143 160 174 q 139 67 150 113 q 118 0 126 22 l 97 0 q 99 36 99 10 q 96 108 99 58 l 94 140 l 89 192 l 85 231 q 63 401 81 269 q 42 592 42 554 m 242 826 q 218 778 226 792 q 118 756 169 772 q 1 701 58 736 q -5 705 -3 701 q -7 713 -7 708 q -1 724 -7 718 q 42 757 19 743 q 99 785 64 771 q 21 844 21 796 q 26 860 21 853 q 69 910 50 894 q 153 942 107 942 q 194 930 179 942 q 210 906 208 918 l 203 896 q 158 903 186 903 q 115 896 135 903 q 71 874 96 889 q 82 840 71 850 q 121 822 93 831 q 168 817 142 817 q 206 819 181 817 l 242 826 z "},"ؤ":{"ha":483,"x_min":-28,"x_max":400,"o":"m 368 306 q 399 138 394 239 q 400 79 400 121 q 388 -58 400 8 q 338 -207 371 -137 q 306 -253 325 -231 q 264 -289 286 -275 q 164 -319 219 -319 q 107 -317 140 -319 q 65 -314 76 -314 q -15 -325 33 -314 l -28 -307 q 11 -286 -6 -296 q 151 -210 122 -226 q 276 -113 224 -169 q 346 15 328 -57 q 353 128 356 58 q 321 85 344 104 q 249 65 297 65 q 156 97 185 65 q 124 222 119 135 q 135 288 125 251 q 164 354 146 324 q 257 421 203 421 q 328 385 303 421 q 368 306 353 350 m 318 263 q 246 314 292 314 q 191 292 214 314 q 168 232 168 269 q 194 183 168 199 q 258 167 221 167 q 300 174 282 167 q 327 190 318 182 q 339 201 336 199 q 334 226 339 207 q 318 263 329 244 m 368 615 q 344 567 353 581 q 244 544 296 561 q 128 490 185 525 q 122 494 124 490 q 119 501 119 497 q 125 513 119 507 q 168 546 146 532 q 225 574 190 560 q 147 633 147 585 q 153 649 147 642 q 196 699 176 683 q 279 731 233 731 q 320 719 306 731 q 336 694 335 707 l 329 685 q 285 692 313 692 q 242 685 261 692 q 197 663 222 678 q 208 629 197 639 q 247 611 219 619 q 294 606 268 606 q 332 608 307 606 l 368 615 z "},"إ":{"ha":214,"x_min":-17,"x_max":232,"o":"m 42 672 q 114 789 76 742 l 129 789 q 133 690 128 739 q 139 631 139 642 l 142 589 l 144 560 q 158 293 158 393 q 153 181 158 226 q 139 75 149 136 q 118 0 133 39 l 97 0 q 99 50 99 14 q 94 160 99 108 q 81 263 90 199 q 57 456 67 363 q 42 672 42 614 m 232 -190 q 208 -239 217 -225 q 108 -261 160 -244 q -8 -315 49 -281 q -15 -312 -12 -315 q -17 -304 -17 -308 q -11 -293 -17 -299 q 32 -260 10 -274 q 89 -232 54 -246 q 11 -172 11 -221 q 17 -157 11 -164 q 60 -107 40 -122 q 143 -75 97 -75 q 184 -87 169 -75 q 200 -111 199 -99 l 193 -121 q 149 -114 176 -114 q 106 -121 125 -114 q 61 -143 86 -128 q 72 -176 61 -167 q 111 -194 83 -186 q 158 -200 132 -200 q 196 -197 171 -200 l 232 -190 z "},"ئ":{"ha":915,"x_min":97,"x_max":832,"o":"m 672 168 q 801 132 769 156 q 832 78 832 108 q 818 -9 832 40 q 771 -104 804 -58 q 638 -215 721 -175 q 396 -276 515 -276 q 274 -258 331 -276 q 175 -207 217 -240 q 97 -19 97 -143 q 140 164 97 71 l 167 154 q 156 58 156 99 q 185 -44 156 -7 q 411 -119 246 -119 q 629 -79 536 -119 q 706 -36 674 -60 q 753 4 738 -12 q 772 26 769 21 l 610 54 q 519 82 557 63 q 469 149 469 107 q 486 235 469 175 q 532 354 503 296 q 624 474 576 440 q 717 508 672 508 q 786 479 761 508 q 822 406 813 451 q 829 331 831 361 l 804 319 q 778 362 790 347 q 760 382 767 376 q 751 388 753 388 q 588 314 656 388 q 554 265 565 290 q 543 229 543 239 q 571 191 543 206 q 672 168 599 176 m 429 307 q 406 258 414 272 q 306 236 357 253 q 189 182 246 217 q 183 185 185 182 q 181 193 181 189 q 186 204 181 199 q 229 238 207 224 q 286 265 251 251 q 208 325 208 276 q 214 340 208 333 q 257 390 238 375 q 340 422 294 422 q 381 410 367 422 q 397 386 396 399 l 390 376 q 346 383 374 383 q 303 376 322 383 q 258 354 283 369 q 269 321 258 331 q 308 303 281 311 q 356 297 329 297 q 393 300 368 297 l 429 307 z "},"ا":{"ha":214,"x_min":42,"x_max":158,"o":"m 42 672 q 114 789 76 742 l 129 789 q 133 690 128 739 q 139 631 139 642 l 142 589 l 144 560 q 158 293 158 393 q 153 181 158 226 q 139 75 149 136 q 118 0 133 39 l 97 0 q 99 50 99 14 q 94 160 99 108 q 81 263 90 199 q 57 456 67 363 q 42 672 42 614 z "},"ب":{"ha":1156,"x_min":97,"x_max":1072,"o":"m 1000 431 q 1053 347 1033 393 q 1072 254 1072 300 q 904 53 1072 124 q 522 -10 753 -10 q 324 7 417 -10 q 218 35 257 19 q 151 81 179 51 q 97 253 97 138 q 101 318 97 283 l 128 308 q 187 199 140 235 q 324 147 233 163 q 550 132 410 132 q 811 151 697 132 q 924 179 878 163 q 994 210 969 196 q 1018 225 1018 224 q 940 335 988 285 q 1000 431 967 393 m 567 -92 q 610 -129 589 -108 q 644 -168 632 -150 q 572 -240 617 -199 q 496 -165 535 -196 q 567 -92 532 -132 z "},"ة":{"ha":501,"x_min":57,"x_max":418,"o":"m 418 183 q 392 65 418 113 q 335 10 371 28 q 244 -7 300 -7 q 131 40 165 -7 q 97 157 97 86 q 117 265 97 214 q 164 346 136 317 l 113 368 q 154 419 139 401 q 192 454 169 436 q 325 388 269 435 q 396 293 371 350 q 418 183 418 242 m 307 281 q 258 306 289 292 q 204 328 228 319 q 190 312 200 325 q 169 276 179 299 q 158 226 158 253 q 194 156 158 176 q 285 139 222 139 q 347 162 321 139 q 372 210 372 185 q 358 242 372 226 q 307 281 343 257 m 250 672 q 294 637 272 658 q 328 596 315 615 q 256 524 301 565 q 196 585 229 557 q 135 524 174 558 q 57 599 99 565 q 129 672 110 651 q 193 613 156 656 q 250 672 235 654 z "},"ت":{"ha":1156,"x_min":97,"x_max":1072,"o":"m 1000 431 q 1053 347 1033 393 q 1072 254 1072 300 q 904 53 1072 124 q 522 -10 753 -10 q 324 7 417 -10 q 218 35 257 19 q 151 81 179 51 q 97 253 97 138 q 101 318 97 283 l 128 308 q 187 199 140 235 q 324 147 233 163 q 550 132 410 132 q 811 151 697 132 q 924 179 878 163 q 994 210 969 196 q 1018 225 1018 224 q 940 335 988 285 q 1000 431 967 393 m 629 465 q 673 430 651 451 q 707 389 694 408 q 635 317 681 358 q 575 378 608 350 q 514 317 553 351 q 436 392 478 358 q 508 465 489 444 q 572 406 535 449 q 629 465 614 447 z "},"ث":{"ha":1156,"x_min":97,"x_max":1072,"o":"m 1000 431 q 1053 347 1033 393 q 1072 254 1072 300 q 904 53 1072 124 q 522 -10 753 -10 q 324 7 417 -10 q 218 35 257 19 q 151 81 179 51 q 97 253 97 138 q 101 318 97 283 l 128 308 q 187 199 140 235 q 324 147 233 163 q 550 132 410 132 q 811 151 697 132 q 924 179 878 163 q 994 210 969 196 q 1018 225 1018 224 q 940 335 988 285 q 1000 431 967 393 m 574 465 q 497 540 536 510 q 569 614 540 581 q 612 578 590 600 q 646 538 633 557 q 574 465 613 499 m 629 465 q 673 430 651 451 q 707 389 694 408 q 635 317 681 358 q 575 378 608 350 q 514 317 553 351 q 436 392 478 358 q 508 465 489 444 q 572 406 539 444 q 629 465 614 447 z "},"ج":{"ha":803,"x_min":99,"x_max":719,"o":"m 711 310 q 686 224 700 261 q 619 228 653 228 q 469 208 543 228 q 335 154 394 189 q 219 45 261 111 q 176 -104 176 -21 q 231 -254 176 -193 q 436 -346 293 -322 q 558 -360 497 -356 l 589 -362 q 672 -371 626 -364 l 665 -392 q 594 -403 624 -393 q 533 -431 565 -412 q 473 -458 501 -449 q 401 -467 444 -467 q 269 -440 329 -467 q 168 -364 210 -412 q 99 -151 99 -279 q 172 92 99 -17 q 318 222 228 171 q 440 269 372 254 q 353 298 394 286 q 269 310 313 310 q 151 250 186 310 l 129 265 q 166 337 150 313 q 200 378 182 361 q 279 407 231 407 q 322 402 303 407 q 378 386 342 397 q 506 353 424 371 q 686 339 588 336 l 719 339 l 711 310 m 443 4 q 487 -33 465 -12 q 521 -72 508 -54 q 449 -144 493 -103 q 372 -69 411 -100 q 443 4 408 -36 z "},"ح":{"ha":803,"x_min":99,"x_max":719,"o":"m 711 310 q 686 224 700 261 q 619 228 653 228 q 469 208 543 228 q 335 154 394 189 q 219 45 261 111 q 176 -104 176 -21 q 231 -254 176 -193 q 436 -346 293 -322 q 558 -360 497 -356 l 589 -362 q 672 -371 626 -364 l 665 -392 q 594 -403 624 -393 q 533 -431 565 -412 q 473 -458 501 -449 q 401 -467 444 -467 q 269 -440 329 -467 q 168 -364 210 -412 q 99 -151 99 -279 q 172 92 99 -17 q 318 222 228 171 q 440 269 372 254 q 353 298 394 286 q 269 310 313 310 q 151 250 186 310 l 129 265 q 166 337 150 313 q 200 378 182 361 q 279 407 231 407 q 322 402 303 407 q 378 386 342 397 q 506 353 424 371 q 686 339 588 336 l 719 339 l 711 310 z "},"خ":{"ha":803,"x_min":99,"x_max":719,"o":"m 711 310 q 686 224 700 261 q 619 228 653 228 q 469 208 543 228 q 335 154 394 189 q 219 45 261 111 q 176 -104 176 -21 q 231 -254 176 -193 q 436 -346 293 -322 q 558 -360 497 -356 l 589 -362 q 672 -371 626 -364 l 665 -392 q 594 -403 624 -393 q 533 -431 565 -412 q 473 -458 501 -449 q 401 -467 444 -467 q 269 -440 329 -467 q 168 -364 210 -412 q 99 -151 99 -279 q 172 92 99 -17 q 318 222 228 171 q 440 269 372 254 q 353 298 394 286 q 269 310 313 310 q 151 250 186 310 l 129 265 q 166 337 150 313 q 200 378 182 361 q 279 407 231 407 q 322 402 303 407 q 378 386 342 397 q 506 353 424 371 q 686 339 588 336 l 719 339 l 711 310 m 374 632 q 417 594 396 615 q 451 556 439 574 q 379 483 424 525 q 303 558 342 528 q 374 632 339 592 z "},"د":{"ha":574,"x_min":56,"x_max":490,"o":"m 490 238 q 472 142 490 189 q 422 61 454 94 q 238 -8 356 -8 q 90 49 135 -8 q 56 168 56 94 q 61 228 56 203 l 85 233 q 115 163 89 189 q 154 134 132 143 q 210 125 176 125 l 267 125 q 365 148 328 125 q 417 197 401 171 q 433 228 433 222 q 406 268 433 232 q 334 344 379 304 q 229 408 289 385 q 263 525 238 456 q 320 493 286 515 q 386 443 354 471 q 461 353 432 401 q 490 238 490 304 z "},"ذ":{"ha":574,"x_min":56,"x_max":490,"o":"m 490 238 q 472 142 490 189 q 422 61 454 94 q 238 -8 356 -8 q 90 49 135 -8 q 56 168 56 94 q 61 228 56 203 l 85 233 q 115 163 89 189 q 154 134 132 143 q 210 125 176 125 l 267 125 q 365 148 328 125 q 417 197 401 171 q 433 228 433 222 q 406 268 433 232 q 334 344 379 304 q 229 408 289 385 q 263 525 238 456 q 320 493 286 515 q 386 443 354 471 q 461 353 432 401 q 490 238 490 304 m 258 743 q 302 706 281 726 q 336 667 324 685 q 264 594 308 636 q 188 669 226 639 q 258 743 224 703 z "},"ر":{"ha":424,"x_min":-83,"x_max":340,"o":"m 254 290 q 294 233 274 271 q 328 152 315 196 q 340 47 340 108 q 327 -80 340 -11 q 282 -206 314 -149 q 208 -287 253 -257 q 160 -312 183 -306 q 108 -319 138 -319 l 64 -318 q 10 -315 28 -315 q -71 -325 -28 -315 l -83 -307 l 97 -208 q 225 -118 185 -158 q 281 11 281 -62 q 272 64 281 40 q 249 113 264 88 q 186 190 219 160 q 254 290 219 250 z "},"ز":{"ha":424,"x_min":-83,"x_max":340,"o":"m 254 290 q 294 233 274 271 q 328 152 315 196 q 340 47 340 108 q 327 -80 340 -11 q 282 -206 314 -149 q 208 -287 253 -257 q 160 -312 183 -306 q 108 -319 138 -319 l 64 -318 q 10 -315 28 -315 q -71 -325 -28 -315 l -83 -307 l 97 -208 q 225 -118 185 -158 q 281 11 281 -62 q 272 64 281 40 q 249 113 264 88 q 186 190 219 160 q 254 290 219 250 m 181 500 q 224 463 203 483 q 258 424 246 442 q 186 351 231 393 q 110 426 149 396 q 181 500 146 460 z "},"س":{"ha":1240,"x_min":97,"x_max":1157,"o":"m 1104 365 q 1140 300 1124 343 q 1157 194 1157 257 q 1147 138 1157 178 q 1115 67 1138 99 q 1011 13 1076 13 q 928 43 961 13 q 901 81 910 60 q 892 106 892 101 q 842 19 883 46 q 782 3 817 3 q 728 11 757 3 q 733 -61 733 -36 q 710 -206 733 -142 q 639 -312 686 -269 q 533 -372 597 -351 q 394 -393 471 -393 q 217 -354 289 -393 q 117 -246 146 -315 q 97 -146 97 -199 q 108 -65 97 -114 q 139 33 118 -17 l 165 24 q 156 -67 156 -35 q 183 -158 156 -124 q 269 -215 213 -194 q 406 -236 326 -236 q 599 -192 521 -236 q 657 -144 636 -171 q 678 -87 678 -117 q 572 126 678 -18 q 638 221 593 168 q 688 163 650 193 q 776 133 725 133 q 858 168 835 133 q 883 249 881 203 l 914 265 q 913 235 913 254 q 1014 132 913 132 q 1077 156 1050 132 q 1108 206 1104 179 l 1049 290 q 1104 365 1072 331 z "},"ش":{"ha":1240,"x_min":97,"x_max":1157,"o":"m 1104 365 q 1140 300 1124 343 q 1157 194 1157 257 q 1147 138 1157 178 q 1115 67 1138 99 q 1011 13 1076 13 q 928 43 961 13 q 901 81 910 60 q 892 106 892 101 q 842 19 883 46 q 782 3 817 3 q 728 11 757 3 q 733 -61 733 -36 q 710 -206 733 -142 q 639 -312 686 -269 q 533 -372 597 -351 q 394 -393 471 -393 q 217 -354 289 -393 q 117 -246 146 -315 q 97 -146 97 -199 q 108 -65 97 -114 q 139 33 118 -17 l 165 24 q 156 -67 156 -35 q 183 -158 156 -124 q 269 -215 213 -194 q 406 -236 326 -236 q 599 -192 521 -236 q 657 -144 636 -171 q 678 -87 678 -117 q 572 126 678 -18 q 638 221 593 168 q 688 163 650 193 q 776 133 725 133 q 858 168 835 133 q 883 249 881 203 l 914 265 q 913 235 913 254 q 1014 132 913 132 q 1077 156 1050 132 q 1108 206 1104 179 l 1049 290 q 1104 365 1072 331 m 894 497 q 818 572 857 542 q 890 646 861 613 q 933 610 911 632 q 967 569 954 589 q 894 497 933 531 m 950 497 q 994 462 972 483 q 1028 421 1015 440 q 956 349 1001 390 q 896 410 929 382 q 835 349 874 383 q 757 424 799 390 q 829 497 810 476 q 893 438 860 476 q 950 497 935 479 z "},"ص":{"ha":1385,"x_min":97,"x_max":1301,"o":"m 1301 321 q 1267 201 1301 258 q 1174 100 1233 147 q 1046 31 1115 56 q 913 6 976 6 q 829 7 858 6 q 778 15 800 8 q 751 25 767 18 q 724 42 735 32 q 738 -79 738 -35 q 716 -199 738 -137 q 646 -308 694 -261 q 394 -394 556 -394 q 217 -356 289 -394 q 117 -247 146 -317 q 97 -147 97 -200 q 108 -67 97 -115 q 139 32 118 -18 l 165 22 q 156 -68 156 -36 q 183 -160 156 -125 q 269 -217 213 -196 q 406 -237 326 -237 q 599 -193 521 -237 q 657 -145 636 -172 q 678 -89 678 -118 q 572 125 678 -19 q 639 221 603 179 q 707 159 676 175 q 793 136 738 143 q 856 229 832 197 q 919 303 881 261 q 1158 446 1056 446 q 1203 435 1178 446 q 1250 408 1228 425 q 1290 362 1279 385 q 1301 321 1301 339 m 1231 229 q 1223 251 1228 238 q 1214 273 1218 265 q 1203 289 1210 281 q 1159 325 1188 308 q 1101 342 1131 342 q 1035 329 1064 342 q 990 301 1007 317 q 940 254 972 286 q 842 136 900 217 l 1003 136 q 1149 167 1082 136 q 1192 192 1178 181 q 1231 229 1207 204 z "},"ض":{"ha":1385,"x_min":97,"x_max":1301,"o":"m 1301 321 q 1267 201 1301 258 q 1174 100 1233 147 q 1046 31 1115 56 q 913 6 976 6 q 829 7 858 6 q 778 15 800 8 q 751 25 767 18 q 724 42 735 32 q 738 -79 738 -35 q 716 -199 738 -137 q 646 -308 694 -261 q 394 -394 556 -394 q 217 -356 289 -394 q 117 -247 146 -317 q 97 -147 97 -200 q 108 -67 97 -115 q 139 32 118 -18 l 165 22 q 156 -68 156 -36 q 183 -160 156 -125 q 269 -217 213 -196 q 406 -237 326 -237 q 599 -193 521 -237 q 657 -145 636 -172 q 678 -89 678 -118 q 572 125 678 -19 q 639 221 603 179 q 707 159 676 175 q 793 136 738 143 q 856 229 832 197 q 919 303 881 261 q 1158 446 1056 446 q 1203 435 1178 446 q 1250 408 1228 425 q 1290 362 1279 385 q 1301 321 1301 339 m 1231 229 q 1223 251 1228 238 q 1214 273 1218 265 q 1203 289 1210 281 q 1159 325 1188 308 q 1101 342 1131 342 q 1035 329 1064 342 q 990 301 1007 317 q 940 254 972 286 q 842 136 900 217 l 1003 136 q 1149 167 1082 136 q 1192 192 1178 181 q 1231 229 1207 204 m 1126 664 q 1170 626 1149 647 q 1204 588 1192 606 q 1132 515 1176 557 q 1056 590 1094 560 q 1126 664 1092 624 z "},"ط":{"ha":894,"x_min":97,"x_max":811,"o":"m 811 301 q 780 191 811 244 q 689 94 749 138 q 568 29 635 54 q 438 3 501 4 q 328 0 368 0 l 224 -4 q 97 150 158 46 q 205 142 133 146 q 300 136 276 138 l 360 210 q 314 569 354 382 q 282 683 299 642 l 350 789 q 433 669 386 719 q 403 631 413 651 q 394 576 394 610 l 396 550 q 411 383 408 458 q 411 318 413 347 q 407 274 410 289 q 403 254 404 258 l 429 283 q 555 394 500 361 q 667 428 610 428 q 713 417 688 428 q 760 389 738 407 q 811 301 811 349 m 740 229 q 688 297 718 276 q 606 318 658 318 q 515 285 564 318 q 421 207 465 253 q 378 160 424 210 l 357 136 l 511 136 q 640 158 579 136 q 693 187 672 171 q 740 229 714 203 z "},"ظ":{"ha":894,"x_min":97,"x_max":811,"o":"m 811 301 q 780 191 811 244 q 689 94 749 138 q 568 29 635 54 q 438 3 501 4 q 328 0 368 0 l 224 -4 q 97 150 158 46 q 205 142 133 146 q 300 136 276 138 l 360 210 q 314 569 354 382 q 282 683 299 642 l 350 789 q 433 669 386 719 q 403 631 413 651 q 394 576 394 610 l 396 550 q 411 383 408 458 q 411 318 413 347 q 407 274 410 289 q 403 254 404 258 l 429 283 q 555 394 500 361 q 667 428 610 428 q 713 417 688 428 q 760 389 738 407 q 811 301 811 349 m 740 229 q 688 297 718 276 q 606 318 658 318 q 515 285 564 318 q 421 207 465 253 q 378 160 424 210 l 357 136 l 511 136 q 640 158 579 136 q 693 187 672 171 q 740 229 714 203 m 635 646 q 678 608 657 629 q 713 569 700 588 q 640 497 685 539 q 564 572 603 542 q 635 646 600 606 z "},"ع":{"ha":715,"x_min":97,"x_max":674,"o":"m 576 324 q 551 236 568 292 q 331 149 419 203 q 215 37 250 97 q 181 -83 181 -24 q 196 -185 181 -146 q 235 -251 211 -224 q 438 -350 301 -329 q 560 -364 499 -360 l 590 -367 q 674 -375 628 -368 l 667 -396 q 596 -407 625 -397 q 535 -435 567 -417 q 474 -462 503 -453 q 403 -471 446 -471 q 276 -446 333 -471 q 175 -374 218 -421 q 97 -174 97 -289 q 100 -136 97 -161 q 158 47 111 -39 q 260 186 204 132 q 197 234 226 204 q 161 297 168 264 q 158 324 158 314 q 197 433 158 378 q 261 496 222 469 q 338 522 300 522 q 417 508 372 522 q 497 464 461 493 l 476 433 q 415 440 449 440 q 338 431 378 440 q 268 403 294 419 q 215 358 242 386 q 354 247 247 279 q 576 324 447 282 z "},"غ":{"ha":715,"x_min":97,"x_max":674,"o":"m 576 324 q 551 236 568 292 q 331 149 419 203 q 215 37 250 97 q 181 -83 181 -24 q 196 -185 181 -146 q 235 -251 211 -224 q 438 -350 301 -329 q 560 -364 499 -360 l 590 -367 q 674 -375 628 -368 l 667 -396 q 596 -407 625 -397 q 535 -435 567 -417 q 474 -462 503 -453 q 403 -471 446 -471 q 276 -446 333 -471 q 175 -374 218 -421 q 97 -174 97 -289 q 100 -136 97 -161 q 158 47 111 -39 q 260 186 204 132 q 197 234 226 204 q 161 297 168 264 q 158 324 158 314 q 197 433 158 378 q 261 496 222 469 q 338 522 300 522 q 417 508 372 522 q 497 464 461 493 l 476 433 q 415 440 449 440 q 338 431 378 440 q 268 403 294 419 q 215 358 242 386 q 354 247 247 279 q 576 324 447 282 m 333 740 q 377 703 356 724 q 411 664 399 682 q 339 592 383 633 q 263 667 301 636 q 333 740 299 700 z "},"ػ":{"ha":1074,"x_min":97,"x_max":1046,"o":"m 128 303 q 157 219 136 253 q 216 169 178 188 q 318 142 254 151 q 565 128 415 128 l 638 128 q 781 132 732 128 q 846 152 815 132 q 886 193 876 172 q 826 310 886 239 q 696 438 767 381 l 683 413 l 646 454 q 668 569 651 506 q 1046 789 783 665 q 1022 667 1038 724 q 742 525 854 588 q 865 413 821 471 q 926 302 903 364 q 950 178 950 240 q 906 49 950 94 q 778 -3 861 4 q 617 -7 724 -7 q 551 -8 594 -8 q 403 -6 447 -8 q 322 1 358 -4 q 177 56 229 17 q 107 158 125 94 q 97 244 97 196 q 101 313 97 278 l 128 303 m 847 900 q 891 865 869 886 q 925 824 913 843 q 853 751 899 793 q 793 813 826 785 q 732 751 771 786 q 654 826 696 793 q 726 900 707 879 q 790 840 753 883 q 847 900 832 882 z "},"ؼ":{"ha":1074,"x_min":97,"x_max":1046,"o":"m 128 303 q 157 219 136 253 q 216 169 178 188 q 318 142 254 151 q 565 128 415 128 l 638 128 q 781 132 732 128 q 846 152 815 132 q 886 193 876 172 q 826 310 886 239 q 696 438 767 381 l 683 413 l 646 454 q 668 569 651 506 q 1046 789 783 665 q 1022 667 1038 724 q 742 525 854 588 q 865 413 821 471 q 926 302 903 364 q 950 178 950 240 q 906 49 950 94 q 778 -3 861 4 q 617 -7 724 -7 q 551 -8 594 -8 q 403 -6 447 -8 q 322 1 358 -4 q 177 56 229 17 q 107 158 125 94 q 97 244 97 196 q 101 313 97 278 l 128 303 m 685 -140 q 613 -212 646 -182 q 553 -151 586 -179 l 518 -187 l 492 -212 q 414 -136 453 -167 q 486 -64 453 -100 q 550 -122 519 -85 q 588 -85 550 -122 l 607 -64 q 651 -99 629 -78 q 685 -140 672 -121 m 631 -289 q 558 -361 604 -319 q 482 -286 525 -322 q 553 -212 535 -233 q 597 -248 575 -226 q 631 -289 618 -269 z "},"ؽ":{"ha":915,"x_min":97,"x_max":832,"o":"m 672 168 q 801 132 769 156 q 832 78 832 108 q 818 -9 832 40 q 771 -104 804 -58 q 638 -215 721 -175 q 396 -276 515 -276 q 274 -258 331 -276 q 175 -207 217 -240 q 97 -19 97 -143 q 140 164 97 71 l 167 154 q 156 58 156 99 q 185 -44 156 -7 q 411 -119 246 -119 q 629 -79 536 -119 q 706 -36 674 -60 q 753 4 738 -12 q 772 26 769 21 l 610 54 q 519 82 557 63 q 469 149 469 107 q 486 235 469 175 q 532 354 503 296 q 624 474 576 440 q 717 508 672 508 q 786 479 761 508 q 822 406 813 451 q 829 331 831 361 l 804 319 q 778 362 790 347 q 760 382 767 376 q 751 388 753 388 q 588 314 656 388 q 554 265 565 290 q 543 229 543 239 q 571 191 543 206 q 672 168 599 176 m 224 228 q 290 338 265 275 q 303 399 300 365 l 324 399 q 340 328 324 371 q 401 228 361 275 q 389 196 399 213 q 333 278 351 239 q 319 314 325 294 q 314 334 315 326 q 313 343 313 342 q 311 333 313 342 q 306 314 310 325 q 290 276 300 294 q 238 196 272 240 q 224 228 229 210 z "},"ؾ":{"ha":915,"x_min":97,"x_max":832,"o":"m 672 168 q 801 132 769 156 q 832 78 832 108 q 818 -9 832 40 q 771 -104 804 -58 q 638 -215 721 -175 q 396 -276 515 -276 q 274 -258 331 -276 q 175 -207 217 -240 q 97 -19 97 -143 q 140 164 97 71 l 167 154 q 156 58 156 99 q 185 -44 156 -7 q 411 -119 246 -119 q 629 -79 536 -119 q 706 -36 674 -60 q 753 4 738 -12 q 772 26 769 21 l 610 54 q 519 82 557 63 q 469 149 469 107 q 486 235 469 175 q 532 354 503 296 q 624 474 576 440 q 717 508 672 508 q 786 479 761 508 q 822 406 813 451 q 829 331 831 361 l 804 319 q 778 362 790 347 q 760 382 767 376 q 751 388 753 388 q 588 314 656 388 q 554 265 565 290 q 543 229 543 239 q 571 191 543 206 q 672 168 599 176 m 351 317 q 395 281 374 303 q 429 240 417 260 q 357 168 403 210 q 297 229 331 201 q 236 168 275 203 q 158 243 200 210 q 231 317 211 296 q 294 257 257 300 q 351 317 336 299 z "},"ؿ":{"ha":915,"x_min":97,"x_max":832,"o":"m 672 168 q 801 132 769 156 q 832 78 832 108 q 818 -9 832 40 q 771 -104 804 -58 q 638 -215 721 -175 q 396 -276 515 -276 q 274 -258 331 -276 q 175 -207 217 -240 q 97 -19 97 -143 q 140 164 97 71 l 167 154 q 156 58 156 99 q 185 -44 156 -7 q 411 -119 246 -119 q 629 -79 536 -119 q 706 -36 674 -60 q 753 4 738 -12 q 772 26 769 21 l 610 54 q 519 82 557 63 q 469 149 469 107 q 486 235 469 175 q 532 354 503 296 q 624 474 576 440 q 717 508 672 508 q 786 479 761 508 q 822 406 813 451 q 829 331 831 361 l 804 319 q 778 362 790 347 q 760 382 767 376 q 751 388 753 388 q 588 314 656 388 q 554 265 565 290 q 543 229 543 239 q 571 191 543 206 q 672 168 599 176 m 294 317 q 218 392 257 361 q 290 465 261 432 q 333 430 311 451 q 367 389 354 408 q 294 317 333 350 m 350 317 q 394 281 372 303 q 428 240 415 260 q 356 168 401 210 q 296 229 329 201 q 235 168 274 203 q 157 243 199 210 q 229 317 210 296 q 293 257 260 296 q 350 317 335 299 z "},"ـ":{"ha":260,"x_min":-97,"x_max":260,"o":"m 260 0 l -31 0 q -78 19 -58 0 q -97 68 -97 39 q -76 117 -97 99 q -31 136 -56 136 l 260 136 l 260 0 z "},"ف":{"ha":1142,"x_min":97,"x_max":1058,"o":"m 913 589 q 1010 525 972 589 q 1056 374 1047 461 q 1058 328 1058 343 q 1039 190 1058 257 q 954 54 1013 99 q 817 2 900 13 q 551 -8 735 -8 q 410 -6 456 -8 q 322 4 364 -3 q 177 58 229 19 q 107 161 125 97 q 97 247 97 199 q 101 315 97 281 l 128 306 q 157 222 136 256 q 318 135 203 153 q 418 126 364 128 q 565 125 472 125 l 790 126 q 909 143 865 126 q 978 192 953 160 q 1001 235 993 211 q 1007 282 1010 258 q 900 246 969 246 q 810 275 842 246 q 772 374 772 308 q 783 447 772 408 q 810 515 793 485 q 851 567 825 544 q 913 589 876 589 m 988 383 q 892 496 964 496 q 835 469 853 496 q 817 418 817 443 q 834 372 817 396 q 900 349 851 349 q 955 360 933 349 q 988 383 976 371 m 908 807 q 952 769 931 790 q 986 731 974 749 q 914 658 958 700 q 838 733 876 703 q 908 807 874 767 z "},"ق":{"ha":803,"x_min":97,"x_max":719,"o":"m 554 463 q 622 428 590 463 q 651 389 640 408 q 676 338 663 369 q 709 222 699 281 q 719 111 719 163 q 700 -33 719 38 q 639 -160 681 -106 q 538 -243 599 -212 q 385 -275 471 -275 q 215 -237 285 -275 q 115 -128 144 -200 q 97 -35 97 -85 q 139 151 97 50 l 165 142 q 154 51 154 86 q 183 -40 154 -3 q 269 -98 214 -78 q 389 -118 325 -118 q 510 -97 457 -118 q 599 -37 563 -75 q 637 13 622 -14 q 658 57 651 39 q 665 81 664 75 l 651 144 q 636 136 651 144 q 601 125 624 131 q 549 119 578 119 q 454 149 486 119 q 418 247 418 181 q 428 322 418 283 q 456 389 439 360 q 506 447 479 431 q 554 463 532 463 m 539 369 q 485 347 507 369 q 463 292 463 325 q 489 238 463 254 q 550 222 515 222 q 595 231 576 222 q 623 247 614 239 q 633 258 632 256 q 624 292 633 265 q 594 344 615 319 q 539 369 574 369 m 613 681 q 656 645 635 667 q 690 604 678 624 q 618 532 664 574 q 558 593 592 565 q 497 532 536 567 q 419 607 461 574 q 492 681 472 660 q 556 621 518 664 q 613 681 597 663 z "},"ك":{"ha":1058,"x_min":97,"x_max":975,"o":"m 971 668 q 942 629 951 650 q 933 576 933 608 l 935 551 q 949 447 943 483 q 968 313 963 357 q 975 218 974 268 q 932 75 968 128 q 829 6 894 19 q 571 -8 763 -8 q 321 3 403 -8 q 233 28 272 10 q 165 68 193 46 q 107 160 122 104 q 97 246 97 194 q 101 314 97 279 l 128 304 q 157 221 136 254 q 218 169 179 186 q 318 142 257 151 q 558 128 411 128 q 769 135 676 128 q 834 145 813 139 q 869 165 856 151 q 906 211 882 178 q 869 444 892 335 q 807 681 836 607 l 888 786 q 919 731 899 758 q 971 668 939 704 m 635 304 q 615 259 635 281 q 550 211 596 238 q 460 206 507 206 q 417 207 431 206 q 478 226 429 211 q 558 255 528 240 q 588 282 588 269 q 576 292 588 289 q 533 297 564 294 q 467 338 467 301 q 533 422 467 388 q 615 454 575 444 q 589 413 606 435 q 500 368 532 394 q 569 335 500 335 q 621 330 607 335 q 635 304 635 325 z "},"ل":{"ha":776,"x_min":97,"x_max":693,"o":"m 675 672 q 649 640 657 657 q 642 594 642 622 q 643 557 642 571 q 654 458 651 481 q 667 329 658 411 q 689 108 676 247 q 693 43 693 75 q 681 -61 693 -14 q 617 -192 661 -142 q 396 -276 542 -276 q 217 -239 290 -276 q 117 -131 146 -201 q 97 -32 97 -83 q 140 149 97 44 l 167 140 q 156 51 156 88 q 172 -26 156 6 q 272 -101 199 -78 q 401 -119 331 -119 q 582 -75 521 -119 q 632 35 632 -39 q 610 235 632 93 q 556 522 582 411 q 511 681 529 633 l 593 786 q 675 672 631 718 z "},"م":{"ha":567,"x_min":97,"x_max":483,"o":"m 483 315 q 465 167 481 272 q 343 156 396 167 q 206 85 250 135 q 168 -11 168 46 q 169 -33 168 -26 q 207 -456 211 -351 l 168 -468 q 126 -186 158 -375 l 121 -149 q 100 -7 110 -81 q 97 39 97 26 q 116 142 97 99 q 160 208 135 185 q 246 257 199 243 q 363 272 293 271 q 260 313 307 313 q 196 297 231 313 q 210 351 199 325 q 307 425 239 425 q 399 394 353 425 q 460 342 438 368 q 483 315 482 317 z "},"ن":{"ha":817,"x_min":97,"x_max":733,"o":"m 640 344 q 693 256 672 304 q 733 60 733 160 q 710 -85 733 -21 q 639 -192 686 -149 q 533 -251 597 -231 q 394 -272 471 -272 q 217 -233 289 -272 q 117 -125 146 -194 q 97 -25 97 -78 q 108 56 97 7 q 139 154 118 104 l 165 144 q 156 54 156 86 q 183 -37 156 -3 q 269 -94 213 -74 q 406 -115 326 -115 q 599 -71 521 -115 q 657 -23 636 -50 q 678 33 678 4 q 638 145 678 76 q 572 247 597 214 q 640 344 593 286 m 382 203 q 426 165 404 186 q 460 126 447 144 q 388 54 432 96 q 311 129 350 99 q 382 203 347 163 z "},"ه":{"ha":501,"x_min":97,"x_max":418,"o":"m 418 183 q 392 65 418 113 q 335 10 371 28 q 244 -7 300 -7 q 131 40 165 -7 q 97 157 97 86 q 117 265 97 214 q 164 346 136 317 l 113 368 q 154 419 139 401 q 192 454 169 436 q 325 388 269 435 q 396 293 371 350 q 418 183 418 242 m 307 281 q 258 306 289 292 q 204 328 228 319 q 190 312 200 325 q 169 276 179 299 q 158 226 158 253 q 194 156 158 176 q 285 139 222 139 q 347 162 321 139 q 372 210 372 185 q 358 242 372 226 q 307 281 343 257 z "},"و":{"ha":483,"x_min":-28,"x_max":400,"o":"m 368 306 q 399 138 394 239 q 400 79 400 121 q 388 -58 400 8 q 338 -207 371 -137 q 306 -253 325 -231 q 264 -289 286 -275 q 164 -319 219 -319 q 107 -317 140 -319 q 65 -314 76 -314 q -15 -325 33 -314 l -28 -307 q 11 -286 -6 -296 q 151 -210 122 -226 q 276 -113 224 -169 q 346 15 328 -57 q 353 128 356 58 q 321 85 344 104 q 249 65 297 65 q 156 97 185 65 q 124 222 119 135 q 135 288 125 251 q 164 354 146 324 q 257 421 203 421 q 328 385 303 421 q 368 306 353 350 m 318 263 q 246 314 292 314 q 191 292 214 314 q 168 232 168 269 q 194 183 168 199 q 258 167 221 167 q 300 174 282 167 q 327 190 318 182 q 339 201 336 199 q 334 226 339 207 q 318 263 329 244 z "},"ى":{"ha":915,"x_min":97,"x_max":832,"o":"m 672 168 q 801 132 769 156 q 832 78 832 108 q 818 -9 832 40 q 771 -104 804 -58 q 638 -215 721 -175 q 396 -276 515 -276 q 274 -258 331 -276 q 175 -207 217 -240 q 97 -19 97 -143 q 140 164 97 71 l 167 154 q 156 58 156 99 q 185 -44 156 -7 q 411 -119 246 -119 q 629 -79 536 -119 q 706 -36 674 -60 q 753 4 738 -12 q 772 26 769 21 l 610 54 q 519 82 557 63 q 469 149 469 107 q 486 235 469 175 q 532 354 503 296 q 624 474 576 440 q 717 508 672 508 q 786 479 761 508 q 822 406 813 451 q 829 331 831 361 l 804 319 q 778 362 790 347 q 760 382 767 376 q 751 388 753 388 q 588 314 656 388 q 554 265 565 290 q 543 229 543 239 q 571 191 543 206 q 672 168 599 176 z "},"ي":{"ha":915,"x_min":97,"x_max":832,"o":"m 672 168 q 801 132 769 156 q 832 78 832 108 q 818 -9 832 40 q 771 -104 804 -58 q 638 -215 721 -175 q 396 -276 515 -276 q 274 -258 331 -276 q 175 -207 217 -240 q 97 -19 97 -143 q 140 164 97 71 l 167 154 q 156 58 156 99 q 185 -44 156 -7 q 411 -119 246 -119 q 629 -79 536 -119 q 706 -36 674 -60 q 753 4 738 -12 q 772 26 769 21 l 610 54 q 519 82 557 63 q 469 149 469 107 q 486 235 469 175 q 532 354 503 296 q 624 474 576 440 q 717 508 672 508 q 786 479 761 508 q 822 406 813 451 q 829 331 831 361 l 804 319 q 778 362 790 347 q 760 382 767 376 q 751 388 753 388 q 588 314 656 388 q 554 265 565 290 q 543 229 543 239 q 571 191 543 206 q 672 168 599 176 m 454 -346 q 498 -381 476 -360 q 532 -422 519 -403 q 460 -494 506 -453 q 400 -433 433 -461 q 339 -494 378 -460 q 261 -419 303 -453 q 333 -346 314 -367 q 397 -406 360 -362 q 454 -346 439 -364 z "},"ً":{"ha":0,"x_min":-121,"x_max":124,"o":"m 124 1199 q 113 1163 122 1182 q -18 1113 60 1146 q -121 1069 -96 1081 q -111 1104 -117 1093 q 124 1199 -1 1158 m 124 1101 q 113 1065 122 1085 q -18 1015 60 1047 q -121 972 -96 983 q -111 1007 -117 996 q 124 1101 -1 1061 z "},"ٌ":{"ha":0,"x_min":-124,"x_max":118,"o":"m 111 1086 q 117 1049 117 1069 l 74 1067 q 51 1038 61 1049 q 22 1013 40 1026 q -92 978 -25 978 q -124 979 -112 978 q -108 1015 -119 992 q -67 1017 -79 1015 q -49 1047 -49 1031 q -56 1065 -49 1058 q -76 1072 -62 1072 q -99 1068 -87 1072 q -119 1058 -111 1064 q -110 1090 -117 1072 q -83 1102 -99 1097 q -61 1107 -68 1107 q -38 1092 -49 1107 q -28 1058 -28 1078 q -40 1019 -28 1036 q 51 1082 10 1028 q -1 1110 14 1096 q -15 1153 -15 1125 q 1 1190 -15 1169 q 74 1235 38 1235 q 106 1220 94 1235 q 118 1182 118 1206 q 90 1097 118 1144 l 111 1086 m 68 1108 q 88 1161 88 1140 q 79 1183 88 1175 q 62 1196 72 1193 q 40 1196 51 1199 q 20 1185 28 1193 q 11 1165 13 1176 q 39 1125 8 1143 l 68 1108 z "},"ٍ":{"ha":0,"x_min":-122,"x_max":122,"o":"m -122 -397 q -112 -362 -118 -374 q 122 -268 -3 -308 q 111 -304 121 -286 q -19 -353 58 -321 q -122 -397 -97 -386 m -122 -494 q -112 -460 -118 -471 q 122 -365 -3 -406 q 111 -401 121 -383 q -19 -451 58 -419 q -122 -494 -97 -483 z "},"َ":{"ha":0,"x_min":-124,"x_max":121,"o":"m 121 1106 q 110 1067 119 1085 q -21 1017 57 1050 q -124 974 -99 985 q -114 1011 -118 1001 q 121 1106 -4 1065 z "},"ُ":{"ha":0,"x_min":-125,"x_max":117,"o":"m 110 1088 q 115 1050 115 1071 l 72 1068 q 49 1039 60 1050 q 21 1014 39 1028 q -93 979 -26 979 q -125 981 -114 979 q -110 1017 -121 993 q -21 1028 -56 1015 q 46 1076 14 1042 q -5 1106 11 1090 q -21 1143 -21 1121 q 0 1192 -21 1165 q 72 1236 36 1236 q 105 1222 93 1236 q 117 1183 117 1207 q 89 1099 117 1146 l 110 1088 m 67 1110 q 86 1163 86 1142 q 78 1185 86 1176 q 60 1197 71 1194 q 39 1197 50 1200 q 19 1186 26 1194 q 10 1167 11 1178 q 38 1126 7 1144 l 67 1110 z "},"ِ":{"ha":0,"x_min":-122,"x_max":122,"o":"m 122 -287 q 111 -326 121 -308 q -19 -376 58 -343 q -122 -419 -97 -408 q -112 -382 -117 -392 q 122 -287 -3 -328 z "},"ّ":{"ha":0,"x_min":-128,"x_max":126,"o":"m 121 1129 q 96 1028 126 1061 q 47 1007 76 1007 q 11 1019 26 1007 q -4 1046 -4 1032 q -14 1003 -4 1021 q -71 971 -29 971 q -122 1010 -110 971 q -128 1043 -128 1025 q -124 1078 -128 1061 l -112 1083 q -105 1047 -115 1065 q -75 1029 -94 1029 q -10 1110 -12 1029 l 1 1114 q 15 1078 1 1094 q 54 1061 28 1061 q 92 1077 76 1061 q 111 1125 107 1093 l 121 1129 z "},"ْ":{"ha":0,"x_min":-62,"x_max":61,"o":"m -11 1131 q 42 1093 24 1117 q 61 1040 61 1069 q 51 999 61 1015 q -3 972 36 972 q -49 992 -35 972 q -62 1032 -62 1013 q -49 1085 -62 1061 q -11 1131 -35 1108 m -25 1094 q -44 1056 -44 1072 q -28 1028 -44 1039 q 14 1017 -11 1017 q 47 1038 47 1017 q -25 1094 47 1065 z "},"ٓ":{"ha":0,"x_min":-262,"x_max":218,"o":"m 211 1101 q 218 1092 215 1097 q 181 1065 208 1082 q 101 1031 149 1044 q 0 1017 54 1017 q -107 1033 -46 1017 q -168 1043 -146 1043 q -214 1032 -194 1043 q -251 997 -233 1021 q -262 1008 -258 1001 q -158 1129 -233 1129 q -65 1110 -132 1129 q 15 1088 -21 1096 q 90 1081 50 1081 q 211 1101 150 1081 z "},"ٔ":{"ha":0,"x_min":-126,"x_max":122,"o":"m 122 1097 q 99 1049 107 1063 q -1 1026 50 1043 q -118 972 -61 1007 q -124 976 -122 972 q -126 983 -126 979 q -121 994 -126 989 q -78 1028 -100 1014 q -21 1056 -56 1042 q -99 1115 -99 1067 q -93 1131 -99 1124 q -50 1181 -69 1165 q 33 1213 -12 1213 q 74 1201 60 1213 q 90 1176 89 1189 l 83 1167 q 39 1174 67 1174 q -4 1167 15 1174 q -49 1144 -24 1160 q -37 1111 -49 1121 q 1 1093 -26 1101 q 49 1088 22 1088 q 86 1090 61 1088 l 122 1097 z "},"ٕ":{"ha":0,"x_min":-124,"x_max":125,"o":"m 125 -400 q 101 -449 110 -435 q 1 -471 53 -454 q -115 -525 -58 -490 q -122 -522 -119 -525 q -124 -514 -124 -518 q -118 -503 -124 -508 q -75 -469 -97 -483 q -18 -442 -53 -456 q -96 -382 -96 -431 q -90 -367 -96 -374 q -47 -317 -67 -332 q 36 -285 -10 -285 q 77 -297 63 -285 q 93 -321 92 -308 l 86 -331 q 42 -324 69 -324 q -1 -331 18 -324 q -46 -353 -21 -337 q -35 -386 -46 -376 q 4 -404 -24 -396 q 51 -410 25 -410 q 89 -407 64 -410 l 125 -400 z "},"ٖ":{"ha":0,"x_min":-31,"x_max":29,"o":"m 0 -468 q 1 -435 1 -457 q -31 -314 1 -368 q -15 -302 -25 -307 q 8 -292 -6 -297 q 29 -412 29 -339 q 25 -467 29 -440 l 0 -468 z "},"٘":{"ha":0,"x_min":-111,"x_max":122,"o":"m 90 1203 q 97 1192 92 1200 q 108 1169 103 1183 q 122 1097 122 1132 q 90 1006 122 1038 q 50 982 65 986 q 0 975 25 975 q -67 989 -36 975 q -104 1029 -92 1003 q -111 1075 -111 1047 q -96 1132 -108 1101 l -86 1129 q -89 1094 -89 1104 q -79 1063 -89 1072 q 4 1033 -56 1033 q 74 1049 40 1033 q 104 1088 104 1067 q 85 1138 104 1110 q 64 1167 65 1165 q 78 1189 68 1178 q 90 1203 88 1200 z "},"ٙ":{"ha":0,"x_min":-139,"x_max":136,"o":"m 136 1015 q 113 982 131 1003 l 65 983 q -55 980 10 983 q -139 975 -119 976 q -117 1007 -125 1000 q 57 1017 -33 1017 q 136 1015 108 1017 z "},"ٚ":{"ha":0,"x_min":-93,"x_max":100,"o":"m 100 1160 q 28 1039 54 1107 q 14 972 17 1011 l -8 972 q -21 1035 -8 1001 q -93 1160 -44 1106 q -79 1194 -89 1181 q -18 1104 -36 1143 q -3 1065 -14 1096 q 3 1044 1 1053 q 4 1033 4 1036 q 5 1044 4 1036 q 10 1065 6 1053 q 28 1106 19 1092 q 85 1194 43 1139 q 100 1160 96 1179 z "},"ٛ":{"ha":0,"x_min":-86,"x_max":92,"o":"m -86 1013 q -19 1122 -44 1060 q -7 1183 -10 1150 l 14 1183 q 31 1113 14 1156 q 92 1013 51 1060 q 79 981 89 997 q 24 1063 42 1024 q 10 1099 15 1079 q 4 1119 6 1111 q 3 1128 3 1126 q 1 1118 3 1126 q -4 1099 0 1110 q -19 1061 -10 1079 q -72 981 -37 1025 q -86 1013 -81 994 z "},"ٜ":{"ha":0,"x_min":-53,"x_max":54,"o":"m 0 -386 q -37 -371 -22 -386 q -53 -333 -53 -356 q -37 -296 -53 -311 q 0 -281 -22 -281 q 38 -296 22 -281 q 54 -333 54 -311 q 38 -371 54 -356 q 0 -386 22 -386 z "},"ٝ":{"ha":0,"x_min":-119,"x_max":122,"o":"m -112 1133 q -118 1171 -118 1150 l -75 1153 q -52 1182 -62 1171 q -24 1207 -42 1193 q 90 1242 24 1242 q 122 1240 111 1242 q 107 1204 118 1228 q 18 1192 53 1206 q -49 1144 -17 1179 q 2 1115 -14 1131 q 18 1078 18 1100 q -3 1029 18 1057 q -75 985 -39 985 q -108 999 -96 985 q -119 1038 -119 1014 q -92 1122 -119 1075 l -112 1133 m -69 1111 q -89 1058 -89 1079 q -81 1036 -89 1044 q -63 1024 -74 1026 q -42 1024 -53 1021 q -22 1035 -29 1026 q -12 1054 -14 1043 q -40 1094 -10 1076 l -69 1111 z "},"ٞ":{"ha":0,"x_min":-108,"x_max":104,"o":"m -108 1131 q -72 1168 -94 1143 q -32 1129 -44 1147 q -69 1092 -46 1114 q -108 1131 -87 1114 m -100 1010 q 103 1161 0 1097 l 104 1146 q 101 1121 104 1143 q -12 1039 54 1090 q -100 971 -79 988 q -101 993 -101 979 q -100 1010 -101 1006 m 18 1011 q 54 1049 32 1024 q 94 1010 82 1028 q 57 972 81 994 q 18 1011 39 994 z "},"ٟ":{"ha":0,"x_min":-132,"x_max":132,"o":"m 132 -386 q 110 -424 128 -396 q 75 -443 88 -433 q 35 -478 63 -453 q 5 -500 18 -493 q -31 -507 -8 -507 q -67 -496 -47 -507 q -94 -486 -82 -486 q -126 -500 -106 -486 l -132 -487 q -64 -451 -100 -451 q -36 -457 -53 -451 q -4 -462 -19 -462 q 20 -451 8 -462 q 38 -429 32 -440 q 18 -431 31 -431 q -32 -419 -10 -431 q -68 -372 -68 -400 q -36 -326 -68 -356 q 8 -298 -15 -310 q 51 -286 32 -286 q 101 -319 93 -286 l 90 -329 q 56 -324 76 -324 q -25 -351 10 -324 q 49 -396 -17 -396 q 132 -386 83 -396 z "},"٠":{"ha":279,"x_min":56,"x_max":238,"o":"m 238 261 l 147 171 l 56 261 l 147 353 l 238 261 z "},"١":{"ha":293,"x_min":56,"x_max":251,"o":"m 121 726 q 243 406 218 586 q 251 289 251 347 q 214 0 251 169 l 178 0 q 181 96 181 33 q 154 357 181 233 q 56 624 122 515 q 121 726 82 678 z "},"٢":{"ha":526,"x_min":56,"x_max":485,"o":"m 485 732 q 390 518 479 579 q 276 482 340 482 q 228 486 253 482 q 244 391 238 447 q 250 286 250 335 q 214 0 250 163 l 178 0 q 181 96 181 33 q 154 357 181 233 q 56 624 122 515 q 121 726 82 678 q 185 646 150 674 q 293 610 229 610 q 401 635 358 610 q 454 715 443 661 l 485 732 z "},"٣":{"ha":633,"x_min":56,"x_max":592,"o":"m 588 722 q 592 667 592 706 q 563 551 592 593 q 457 503 526 503 q 405 511 425 503 q 365 536 385 519 q 324 492 346 504 q 264 479 303 479 q 229 481 242 479 q 251 289 251 383 q 214 0 251 169 l 178 0 q 181 96 181 33 q 154 357 181 233 q 56 624 122 515 q 121 726 82 678 q 144 689 124 722 q 203 632 165 656 q 288 608 242 608 q 338 623 322 608 q 357 656 354 638 q 360 706 360 675 l 390 722 q 391 685 390 718 q 414 626 392 651 q 479 600 436 600 q 545 635 531 600 q 557 706 560 671 l 588 722 z "},"٤":{"ha":471,"x_min":56,"x_max":429,"o":"m 429 129 q 358 38 406 76 q 229 0 311 0 q 104 26 142 0 q 56 75 67 53 q 88 156 57 113 q 171 256 118 199 l 193 281 q 200 297 200 290 q 176 332 200 315 q 117 361 153 349 q 56 424 56 386 q 60 444 56 432 q 152 588 88 522 q 306 693 217 654 q 290 601 304 651 q 213 565 249 589 q 132 501 176 542 q 134 478 132 492 q 146 451 136 465 q 177 426 154 439 q 224 400 200 413 q 264 379 249 389 q 289 344 289 364 q 282 322 289 333 q 226 242 263 289 l 165 157 q 211 91 182 113 q 289 69 240 69 q 357 84 328 69 q 397 117 386 99 l 429 129 z "},"٥":{"ha":504,"x_min":56,"x_max":464,"o":"m 463 333 q 449 217 464 271 q 407 124 435 163 q 335 63 378 85 q 235 42 292 42 q 93 100 147 42 q 68 133 78 117 q 57 157 58 150 q 56 190 56 168 q 63 285 56 232 q 93 428 71 350 q 136 531 110 478 q 193 618 163 583 q 268 661 233 661 q 346 633 308 661 q 410 554 383 606 q 449 451 435 510 q 463 333 463 393 m 428 299 q 413 366 419 342 q 393 418 406 390 q 338 513 369 481 q 269 542 306 542 q 192 503 224 542 q 140 385 158 464 q 128 313 132 347 q 125 269 125 279 q 160 196 125 221 q 251 168 194 168 q 382 207 336 168 q 414 245 406 226 q 428 299 422 264 z "},"٦":{"ha":544,"x_min":69,"x_max":503,"o":"m 503 140 q 483 0 500 82 q 361 110 397 36 q 321 289 321 193 l 321 543 q 268 526 288 531 q 224 521 249 521 q 154 535 186 521 q 104 571 122 549 q 69 693 69 615 q 71 726 69 715 l 101 711 q 111 672 103 689 q 149 643 119 656 q 235 631 178 631 q 390 668 321 631 l 397 661 l 392 526 l 389 446 q 413 257 383 335 q 503 140 442 179 z "},"٧":{"ha":582,"x_min":56,"x_max":540,"o":"m 540 585 q 347 206 404 389 q 311 0 318 107 l 282 0 q 275 88 282 47 q 249 200 268 129 q 56 585 193 386 q 92 692 68 640 q 243 413 188 556 q 282 289 268 347 q 295 222 292 249 q 299 188 299 194 q 302 222 299 194 q 315 290 306 250 q 356 415 332 356 q 503 692 410 553 q 540 585 531 635 z "},"٨":{"ha":582,"x_min":56,"x_max":540,"o":"m 56 108 q 249 488 192 304 q 285 693 278 586 l 314 693 q 321 605 314 646 q 347 493 328 564 q 540 108 403 307 q 504 1 528 53 q 353 281 408 138 q 314 404 328 346 q 301 472 304 444 q 297 506 297 499 q 294 471 297 499 q 281 403 290 443 q 240 278 264 338 q 93 1 186 140 q 56 108 65 58 z "},"٩":{"ha":469,"x_min":42,"x_max":414,"o":"m 414 140 q 394 0 411 82 q 324 44 351 18 q 278 110 296 71 q 238 293 238 193 l 238 421 q 211 406 228 413 q 172 400 194 400 q 114 408 136 400 q 78 429 92 415 q 42 543 42 464 q 51 602 42 569 q 75 661 60 635 q 120 713 96 700 q 172 726 144 726 q 240 696 211 726 q 288 594 271 661 q 304 433 304 528 q 414 140 304 211 m 235 544 q 231 565 233 553 q 221 597 228 578 q 193 633 211 621 q 156 646 175 646 q 108 624 128 646 q 88 576 88 603 q 106 528 88 543 q 164 513 124 513 q 235 544 215 513 z "},"٪":{"ha":833,"x_min":0,"x_max":0,"o":""},"٫":{"ha":242,"x_min":0,"x_max":242,"o":"m 74 -278 l 0 -278 l 168 135 l 242 135 l 74 -278 z "},"٬":{"ha":181,"x_min":0,"x_max":181,"o":"m 74 -128 l 0 -128 l 107 135 l 181 135 l 74 -128 z "},"٭":{"ha":624,"x_min":97,"x_max":540,"o":"m 318 790 q 353 776 342 790 q 361 744 361 763 q 357 717 361 729 q 324 557 338 653 q 367 590 326 558 q 446 664 408 622 q 468 682 453 672 q 497 692 483 692 l 500 692 q 529 668 518 690 q 538 644 538 656 q 522 616 538 628 q 486 599 506 604 q 389 569 440 589 q 331 547 338 550 q 399 521 353 538 q 486 497 446 504 q 514 487 497 496 q 538 464 531 478 q 540 451 540 456 q 533 428 540 442 q 504 404 521 406 l 499 404 q 450 429 475 404 q 373 499 415 465 q 326 536 331 533 q 357 376 335 439 q 361 347 361 368 q 353 315 361 325 q 319 301 343 301 q 285 315 294 301 q 276 347 276 328 q 281 375 276 363 q 301 459 292 410 q 314 535 310 508 q 254 488 290 518 q 192 426 218 457 q 169 409 185 418 q 140 400 154 400 l 136 400 q 107 422 119 403 q 100 447 100 436 q 103 458 100 450 q 122 480 107 471 q 151 493 136 489 q 235 518 188 501 q 307 544 282 535 q 251 566 300 547 q 151 593 201 585 q 123 605 139 596 q 100 626 107 614 q 97 639 97 635 q 104 663 97 649 q 133 686 117 685 l 138 686 q 188 661 163 686 q 263 592 219 626 q 311 554 307 558 q 301 630 308 583 q 281 715 294 676 q 276 744 276 724 q 285 776 276 767 q 318 790 296 790 z "},"ٮ":{"ha":1156,"x_min":97,"x_max":1072,"o":"m 1000 431 q 1053 347 1033 393 q 1072 254 1072 300 q 904 53 1072 124 q 522 -10 753 -10 q 324 7 417 -10 q 218 35 257 19 q 151 81 179 51 q 97 253 97 138 q 101 318 97 283 l 128 308 q 187 199 140 235 q 324 147 233 163 q 550 132 410 132 q 811 151 697 132 q 924 179 878 163 q 994 210 969 196 q 1018 225 1018 224 q 940 335 988 285 q 1000 431 967 393 z "},"ٯ":{"ha":803,"x_min":97,"x_max":719,"o":"m 554 463 q 622 428 590 463 q 651 389 640 408 q 676 338 663 369 q 709 222 699 281 q 719 111 719 163 q 700 -33 719 38 q 639 -160 681 -106 q 538 -243 599 -212 q 385 -275 471 -275 q 215 -237 285 -275 q 115 -128 144 -200 q 97 -35 97 -85 q 139 151 97 50 l 165 142 q 154 51 154 86 q 183 -40 154 -3 q 269 -98 214 -78 q 389 -118 325 -118 q 510 -97 457 -118 q 599 -37 563 -75 q 637 13 622 -14 q 658 57 651 39 q 665 81 664 75 l 651 144 q 636 136 651 144 q 601 125 624 131 q 549 119 578 119 q 454 149 486 119 q 418 247 418 181 q 428 322 418 283 q 456 389 439 360 q 506 447 479 431 q 554 463 532 463 m 539 369 q 485 347 507 369 q 463 292 463 325 q 489 238 463 254 q 550 222 515 222 q 595 231 576 222 q 623 247 614 239 q 633 258 632 256 q 624 292 633 265 q 594 344 615 319 q 539 369 574 369 z "},"ٰ":{"ha":0,"x_min":-36,"x_max":24,"o":"m -6 981 q -4 1014 -4 992 q -36 1135 -4 1081 q -21 1147 -31 1142 q 3 1157 -11 1151 q 24 1036 24 1110 q 19 982 24 1010 l -6 981 z "},"ٱ":{"ha":215,"x_min":-22,"x_max":221,"o":"m 42 592 q 114 694 76 653 l 129 694 q 133 610 128 656 q 139 554 138 565 l 144 493 q 160 231 160 324 q 155 143 160 174 q 139 67 150 113 q 118 0 126 22 l 97 0 q 99 36 99 10 q 96 108 99 58 l 94 140 l 89 192 l 85 231 q 63 401 81 269 q 42 592 42 554 m 221 851 q 208 803 221 829 q 170 758 196 776 q 107 739 144 739 q 58 753 86 739 q 14 767 31 767 q -22 753 -3 767 q -19 775 -22 767 q 4 801 -14 793 q 21 804 10 804 q 50 797 33 804 q 85 851 63 824 q 161 899 125 899 q 200 884 179 899 q 221 851 221 869 m 196 822 q 185 848 199 833 q 150 863 171 863 q 110 845 128 863 q 75 799 93 828 q 125 788 86 788 q 196 822 182 788 z "},"ٲ":{"ha":215,"x_min":-29,"x_max":235,"o":"m 42 592 q 114 694 76 653 l 129 694 q 133 610 128 656 q 139 554 138 565 l 144 493 q 160 231 160 324 q 155 143 160 174 q 139 67 150 113 q 118 0 126 22 l 97 0 q 99 36 99 10 q 96 108 99 58 l 94 140 l 89 192 l 85 231 q 63 401 81 269 q 42 592 42 554 m 235 863 q 213 825 231 853 q 178 806 190 815 q 138 771 165 796 q 106 749 119 756 q 72 742 93 742 q 36 753 56 742 q 8 763 21 763 q -24 749 -3 763 l -29 761 q 39 797 3 797 q 67 792 50 797 q 99 786 83 786 q 123 797 111 786 q 140 819 135 808 q 121 818 133 818 q 71 829 93 818 q 35 876 35 849 q 67 922 35 893 q 111 951 88 939 q 154 963 135 963 q 204 929 196 963 l 193 919 q 158 925 179 925 q 78 897 113 925 q 151 853 86 853 q 235 863 186 853 z "},"ٳ":{"ha":215,"x_min":-25,"x_max":239,"o":"m 42 592 q 114 694 76 653 l 129 694 q 133 610 128 656 q 139 554 138 565 l 144 493 q 160 231 160 324 q 155 143 160 174 q 139 67 150 113 q 118 0 126 22 l 97 0 q 99 36 99 10 q 96 108 99 58 l 94 140 l 89 192 l 85 231 q 63 401 81 269 q 42 592 42 554 m 239 -164 q 217 -201 235 -174 q 182 -221 194 -211 q 142 -256 169 -231 q 112 -278 125 -271 q 76 -285 99 -285 q 40 -274 60 -285 q 13 -264 25 -264 q -19 -278 1 -264 l -25 -265 q 43 -229 7 -229 q 71 -235 54 -229 q 103 -240 88 -240 q 127 -229 115 -240 q 144 -207 139 -218 q 125 -208 138 -208 q 75 -197 97 -208 q 39 -150 39 -178 q 71 -104 39 -133 q 115 -76 92 -87 q 158 -64 139 -64 q 208 -97 200 -64 l 197 -107 q 163 -101 183 -101 q 82 -129 117 -101 q 156 -174 90 -174 q 239 -164 190 -174 z "},"ٵ":{"ha":215,"x_min":42,"x_max":338,"o":"m 42 592 q 114 694 76 653 l 129 694 q 133 610 128 656 q 139 554 138 565 l 144 493 q 160 231 160 324 q 155 143 160 174 q 139 67 150 113 q 118 0 126 22 l 97 0 q 99 36 99 10 q 96 108 99 58 l 94 140 l 89 192 l 85 231 q 63 401 81 269 q 42 592 42 554 m 338 865 q 314 817 322 831 q 214 794 265 811 q 97 740 154 775 q 91 744 93 740 q 89 751 89 747 q 94 763 89 757 q 138 796 115 782 q 194 824 160 810 q 117 883 117 835 q 122 899 117 892 q 165 949 146 933 q 249 981 203 981 q 290 969 275 981 q 306 944 304 957 l 299 935 q 254 942 282 942 q 211 935 231 942 q 167 913 192 928 q 178 879 167 889 q 217 861 189 869 q 264 856 238 856 q 301 858 276 856 l 338 865 z "},"ٶ":{"ha":483,"x_min":-28,"x_max":431,"o":"m 368 306 q 399 138 394 239 q 400 79 400 121 q 388 -58 400 8 q 338 -207 371 -137 q 306 -253 325 -231 q 264 -289 286 -275 q 164 -319 219 -319 q 107 -317 140 -319 q 65 -314 76 -314 q -15 -325 33 -314 l -28 -307 q 11 -286 -6 -296 q 151 -210 122 -226 q 276 -113 224 -169 q 346 15 328 -57 q 353 128 356 58 q 321 85 344 104 q 249 65 297 65 q 156 97 185 65 q 124 222 119 135 q 135 288 125 251 q 164 354 146 324 q 257 421 203 421 q 328 385 303 421 q 368 306 353 350 m 318 263 q 246 314 292 314 q 191 292 214 314 q 168 232 168 269 q 194 183 168 199 q 258 167 221 167 q 300 174 282 167 q 327 190 318 182 q 339 201 336 199 q 334 226 339 207 q 318 263 329 244 m 431 611 q 407 563 415 576 q 307 540 358 557 q 190 486 247 521 q 184 490 186 486 q 182 497 182 493 q 188 508 182 503 q 231 542 208 528 q 288 569 253 556 q 210 629 210 581 q 215 644 210 638 q 258 694 239 679 q 342 726 296 726 q 383 715 368 726 q 399 690 397 703 l 392 681 q 347 688 375 688 q 304 681 324 688 q 260 658 285 674 q 271 625 260 635 q 310 607 282 615 q 357 601 331 601 q 394 604 369 601 l 431 611 z "},"ٷ":{"ha":483,"x_min":-28,"x_max":400,"o":"m 369 568 q 374 538 374 554 l 338 553 q 294 507 321 528 q 199 478 253 478 q 174 479 182 478 q 186 510 176 490 q 260 519 232 508 q 315 560 289 531 q 260 614 260 581 q 278 656 260 633 q 335 693 308 693 q 363 681 353 693 q 374 647 374 668 q 351 578 374 614 l 369 568 m 232 583 q 213 543 222 558 q 171 537 190 542 q 129 525 151 532 q 32 479 83 510 q 27 483 29 479 q 25 489 25 486 q 29 499 25 490 q 65 526 47 515 q 113 549 83 538 q 65 566 82 553 q 49 599 49 579 q 53 611 49 606 q 89 653 72 639 q 158 679 119 679 q 192 669 181 679 q 206 650 204 660 l 200 642 q 163 647 183 647 q 127 642 143 647 q 90 624 111 636 q 99 596 90 604 q 132 581 108 588 q 172 576 150 576 q 203 578 193 576 q 232 583 213 581 m 333 588 q 349 631 349 611 q 342 650 349 643 q 327 660 336 657 q 310 660 318 663 q 293 651 300 658 q 286 635 286 643 l 286 631 q 308 601 286 615 l 333 588 m 368 306 q 399 138 394 239 q 400 79 400 121 q 388 -58 400 8 q 338 -207 371 -137 q 306 -253 325 -231 q 264 -289 286 -275 q 164 -319 219 -319 q 107 -317 140 -319 q 65 -314 76 -314 q -15 -325 33 -314 l -28 -307 q 11 -286 -6 -296 q 151 -210 122 -226 q 276 -113 224 -169 q 346 15 328 -57 q 353 128 356 58 q 321 85 344 104 q 249 65 297 65 q 156 97 185 65 q 124 222 119 135 q 135 288 125 251 q 164 354 146 324 q 257 421 203 421 q 328 385 303 421 q 368 306 353 350 m 318 263 q 246 314 292 314 q 191 292 214 314 q 168 232 168 269 q 194 183 168 199 q 258 167 221 167 q 300 174 282 167 q 327 190 318 182 q 339 201 336 199 q 334 226 339 207 q 318 263 329 244 z "},"ٸ":{"ha":1029,"x_min":97,"x_max":988,"o":"m 672 168 q 801 132 769 156 q 832 78 832 108 q 818 -9 832 40 q 771 -104 804 -58 q 638 -215 721 -175 q 396 -276 515 -276 q 274 -258 331 -276 q 175 -207 217 -240 q 97 -19 97 -143 q 140 164 97 71 l 167 154 q 156 58 156 99 q 185 -44 156 -7 q 411 -119 246 -119 q 629 -79 536 -119 q 706 -36 674 -60 q 753 4 738 -12 q 772 26 769 21 l 610 54 q 519 82 557 63 q 469 149 469 107 q 486 235 469 175 q 532 354 503 296 q 624 474 576 440 q 717 508 672 508 q 786 479 761 508 q 822 406 813 451 q 829 331 831 361 l 804 319 q 778 362 790 347 q 760 382 767 376 q 751 388 753 388 q 588 314 656 388 q 554 265 565 290 q 543 229 543 239 q 571 191 543 206 q 672 168 599 176 m 988 718 q 964 669 972 683 q 864 647 915 664 q 747 593 804 628 q 741 597 743 593 q 739 604 739 600 q 744 615 739 610 q 788 649 765 635 q 844 676 810 663 q 767 736 767 688 q 772 751 767 744 q 815 801 796 786 q 899 833 853 833 q 940 822 925 833 q 956 797 954 810 l 949 788 q 904 794 932 794 q 861 788 881 794 q 817 765 842 781 q 828 732 817 742 q 867 714 839 722 q 914 708 888 708 q 951 711 926 708 l 988 718 z "},"ٹ":{"ha":1156,"x_min":97,"x_max":1072,"o":"m 1000 431 q 1053 347 1033 393 q 1072 254 1072 300 q 904 53 1072 124 q 522 -10 753 -10 q 324 7 417 -10 q 218 35 257 19 q 151 81 179 51 q 97 253 97 138 q 101 318 97 283 l 128 308 q 187 199 140 235 q 324 147 233 163 q 550 132 410 132 q 811 151 697 132 q 924 179 878 163 q 994 210 969 196 q 1018 225 1018 224 q 940 335 988 285 q 1000 431 967 393 m 515 560 q 544 524 526 542 q 533 508 536 515 q 531 483 529 501 q 540 438 538 451 q 540 403 542 425 q 583 447 563 433 q 621 460 604 460 q 654 447 638 460 q 671 419 671 435 q 631 347 671 381 q 543 317 586 317 l 485 317 l 471 361 l 511 361 l 526 389 q 512 473 522 438 q 493 526 501 508 l 515 560 m 649 393 q 631 416 642 407 q 601 425 621 425 q 536 361 564 424 l 572 361 q 617 370 596 361 q 649 393 638 379 z "},"ٺ":{"ha":1156,"x_min":97,"x_max":1072,"o":"m 1000 431 q 1053 347 1033 393 q 1072 254 1072 300 q 904 53 1072 124 q 522 -10 753 -10 q 324 7 417 -10 q 218 35 257 19 q 151 81 179 51 q 97 253 97 138 q 101 318 97 283 l 128 308 q 187 199 140 235 q 324 147 233 163 q 550 132 410 132 q 811 151 697 132 q 924 179 878 163 q 994 210 969 196 q 1018 225 1018 224 q 940 335 988 285 q 1000 431 967 393 m 585 453 q 644 389 625 422 q 572 317 618 358 q 496 392 539 357 l 560 457 q 496 518 532 486 q 568 590 535 554 q 610 555 589 576 q 644 514 632 533 q 585 453 603 468 z "},"ٻ":{"ha":1156,"x_min":97,"x_max":1072,"o":"m 1000 431 q 1053 347 1033 393 q 1072 254 1072 300 q 904 53 1072 124 q 522 -10 753 -10 q 324 7 417 -10 q 218 35 257 19 q 151 81 179 51 q 97 253 97 138 q 101 318 97 283 l 128 308 q 187 199 140 235 q 324 147 233 163 q 550 132 410 132 q 811 151 697 132 q 924 179 878 163 q 994 210 969 196 q 1018 225 1018 224 q 940 335 988 285 q 1000 431 967 393 m 585 -229 q 644 -293 625 -260 q 572 -365 618 -324 q 496 -290 539 -325 l 560 -225 q 496 -164 532 -196 q 568 -92 535 -128 q 610 -128 589 -107 q 644 -168 632 -150 q 585 -229 603 -214 z "},"ټ":{"ha":1156,"x_min":97,"x_max":1072,"o":"m 514 317 q 436 392 478 358 q 508 465 489 444 q 572 406 535 449 q 629 465 614 447 q 673 430 651 451 q 707 389 694 408 q 635 317 681 358 q 575 378 608 350 q 514 317 553 351 m 1000 431 q 1053 347 1033 393 q 1072 254 1072 300 q 904 53 1072 124 q 635 -6 796 7 q 656 -71 656 -33 q 643 -121 656 -100 q 576 -151 625 -151 q 519 -127 536 -151 q 501 -81 501 -103 q 518 -10 501 -39 q 324 7 414 -10 q 218 35 257 19 q 151 81 179 51 q 97 253 97 138 q 101 318 97 283 l 128 308 q 187 199 140 235 q 324 147 233 163 q 550 132 410 132 q 811 151 697 132 q 924 179 878 163 q 994 210 969 196 q 1018 225 1018 224 q 940 335 988 285 q 1000 431 967 393 m 568 -97 q 612 -90 589 -97 q 635 -60 635 -83 q 618 -25 635 -40 q 569 -10 601 -10 q 538 -24 549 -10 q 528 -54 528 -39 q 568 -97 528 -97 z "},"ٽ":{"ha":1156,"x_min":97,"x_max":1072,"o":"m 1000 431 q 1053 347 1033 393 q 1072 254 1072 300 q 904 53 1072 124 q 522 -10 753 -10 q 324 7 417 -10 q 218 35 257 19 q 151 81 179 51 q 97 253 97 138 q 101 318 97 283 l 128 308 q 187 199 140 235 q 324 147 233 163 q 550 132 410 132 q 811 151 697 132 q 924 179 878 163 q 994 210 969 196 q 1018 225 1018 224 q 940 335 988 285 q 1000 431 967 393 m 707 547 q 635 475 668 506 q 575 536 608 508 l 540 500 l 514 475 q 436 551 475 521 q 508 624 475 588 q 572 565 542 603 q 610 603 572 565 l 629 624 q 673 588 651 610 q 707 547 694 567 m 653 399 q 581 326 626 368 q 504 401 547 365 q 575 475 557 454 q 619 440 597 461 q 653 399 640 418 z "},"پ":{"ha":1156,"x_min":97,"x_max":1072,"o":"m 1000 431 q 1053 347 1033 393 q 1072 254 1072 300 q 904 53 1072 124 q 522 -10 753 -10 q 324 7 417 -10 q 218 35 257 19 q 151 81 179 51 q 97 253 97 138 q 101 318 97 283 l 128 308 q 187 199 140 235 q 324 147 233 163 q 550 132 410 132 q 811 151 697 132 q 924 179 878 163 q 994 210 969 196 q 1018 225 1018 224 q 940 335 988 285 q 1000 431 967 393 m 707 -168 q 635 -240 668 -210 q 575 -179 608 -207 l 540 -215 l 514 -240 q 436 -164 475 -194 q 508 -92 475 -128 q 572 -150 542 -112 q 610 -112 572 -150 l 629 -92 q 673 -127 651 -106 q 707 -168 694 -149 m 653 -317 q 581 -389 626 -347 q 504 -314 547 -350 q 575 -240 557 -261 q 619 -276 597 -254 q 653 -317 640 -297 z "},"ٿ":{"ha":1156,"x_min":97,"x_max":1072,"o":"m 1000 431 q 1053 347 1033 393 q 1072 254 1072 300 q 904 53 1072 124 q 522 -10 753 -10 q 324 7 417 -10 q 218 35 257 19 q 151 81 179 51 q 97 253 97 138 q 101 318 97 283 l 128 308 q 187 199 140 235 q 324 147 233 163 q 550 132 410 132 q 811 151 697 132 q 924 179 878 163 q 994 210 969 196 q 1018 225 1018 224 q 940 335 988 285 q 1000 431 967 393 m 436 392 q 506 463 486 442 q 436 529 475 499 q 508 603 489 582 q 572 543 535 586 q 629 603 614 585 q 673 567 651 589 q 707 526 694 546 q 639 458 682 497 q 707 389 681 428 q 635 317 681 358 q 575 378 608 350 q 514 317 553 351 q 436 392 478 358 m 518 458 q 572 406 542 442 q 628 463 613 446 q 575 515 601 493 q 518 458 554 490 z "},"ڀ":{"ha":1156,"x_min":97,"x_max":1072,"o":"m 1000 431 q 1053 347 1033 393 q 1072 254 1072 300 q 904 53 1072 124 q 522 -10 753 -10 q 324 7 417 -10 q 218 35 257 19 q 151 81 179 51 q 97 253 97 138 q 101 318 97 283 l 128 308 q 187 199 140 235 q 324 147 233 163 q 550 132 410 132 q 811 151 697 132 q 924 179 878 163 q 994 210 969 196 q 1018 225 1018 224 q 940 335 988 285 q 1000 431 967 393 m 436 -303 q 507 -232 474 -268 q 436 -165 481 -201 q 508 -92 489 -112 q 572 -151 535 -108 q 629 -92 614 -110 q 673 -127 651 -106 q 707 -168 694 -149 q 639 -237 683 -196 q 707 -306 686 -272 q 635 -378 681 -336 q 575 -317 608 -344 q 514 -378 553 -343 q 436 -303 478 -336 m 519 -236 q 572 -289 539 -253 q 628 -232 607 -257 q 575 -179 611 -212 q 519 -236 556 -204 z "},"ځ":{"ha":803,"x_min":99,"x_max":719,"o":"m 711 310 q 686 224 700 261 q 619 228 653 228 q 469 208 543 228 q 335 154 394 189 q 219 45 261 111 q 176 -104 176 -21 q 231 -254 176 -193 q 436 -346 293 -322 q 558 -360 497 -356 l 589 -362 q 672 -371 626 -364 l 665 -392 q 594 -403 624 -393 q 533 -431 565 -412 q 473 -458 501 -449 q 401 -467 444 -467 q 269 -440 329 -467 q 168 -364 210 -412 q 99 -151 99 -279 q 172 92 99 -17 q 318 222 228 171 q 440 269 372 254 q 353 298 394 286 q 269 310 313 310 q 151 250 186 310 l 129 265 q 166 337 150 313 q 200 378 182 361 q 279 407 231 407 q 322 402 303 407 q 378 386 342 397 q 506 353 424 371 q 686 339 588 336 l 719 339 l 711 310 m 503 608 q 479 560 488 574 q 379 538 431 554 q 263 483 319 518 q 256 487 258 483 q 254 494 254 490 q 260 506 254 500 q 303 539 281 525 q 360 567 325 553 q 282 626 282 578 q 288 642 282 635 q 331 692 311 676 q 414 724 368 724 q 455 712 440 724 q 471 688 469 700 l 464 678 q 419 685 447 685 q 376 678 396 685 q 332 656 357 671 q 343 622 332 632 q 382 604 354 613 q 429 599 403 599 q 467 601 442 599 l 503 608 z "},"ڂ":{"ha":803,"x_min":99,"x_max":719,"o":"m 711 310 q 686 224 700 261 q 619 228 653 228 q 469 208 543 228 q 335 154 394 189 q 219 45 261 111 q 176 -104 176 -21 q 231 -254 176 -193 q 436 -346 293 -322 q 558 -360 497 -356 l 589 -362 q 672 -371 626 -364 l 665 -392 q 594 -403 624 -393 q 533 -431 565 -412 q 473 -458 501 -449 q 401 -467 444 -467 q 269 -440 329 -467 q 168 -364 210 -412 q 99 -151 99 -279 q 172 92 99 -17 q 318 222 228 171 q 440 269 372 254 q 353 298 394 286 q 269 310 313 310 q 151 250 186 310 l 129 265 q 166 337 150 313 q 200 378 182 361 q 279 407 231 407 q 322 402 303 407 q 378 386 342 397 q 506 353 424 371 q 686 339 588 336 l 719 339 l 711 310 m 392 619 q 451 556 432 589 q 379 483 425 525 q 303 558 346 524 l 367 624 q 303 685 339 653 q 375 757 342 721 q 417 722 396 743 q 451 681 439 700 q 392 619 410 635 z "},"ڃ":{"ha":803,"x_min":99,"x_max":719,"o":"m 711 310 q 686 224 700 261 q 619 228 653 228 q 469 208 543 228 q 335 154 394 189 q 219 45 261 111 q 176 -104 176 -21 q 231 -254 176 -193 q 436 -346 293 -322 q 558 -360 497 -356 l 589 -362 q 672 -371 626 -364 l 665 -392 q 594 -403 624 -393 q 533 -431 565 -412 q 473 -458 501 -449 q 401 -467 444 -467 q 269 -440 329 -467 q 168 -364 210 -412 q 99 -151 99 -279 q 172 92 99 -17 q 318 222 228 171 q 440 269 372 254 q 353 298 394 286 q 269 310 313 310 q 151 250 186 310 l 129 265 q 166 337 150 313 q 200 378 182 361 q 279 407 231 407 q 322 402 303 407 q 378 386 342 397 q 506 353 424 371 q 686 339 588 336 l 719 339 l 711 310 m 507 -10 q 551 -45 529 -24 q 585 -86 572 -67 q 513 -158 558 -117 q 453 -97 486 -125 q 392 -158 431 -124 q 314 -83 356 -117 q 386 -10 367 -31 q 450 -69 413 -26 q 507 -10 492 -28 z "},"ڄ":{"ha":803,"x_min":99,"x_max":719,"o":"m 711 310 q 686 224 700 261 q 619 228 653 228 q 469 208 543 228 q 335 154 394 189 q 219 45 261 111 q 176 -104 176 -21 q 231 -254 176 -193 q 436 -346 293 -322 q 558 -360 497 -356 l 589 -362 q 672 -371 626 -364 l 665 -392 q 594 -403 624 -393 q 533 -431 565 -412 q 473 -458 501 -449 q 401 -467 444 -467 q 269 -440 329 -467 q 168 -364 210 -412 q 99 -151 99 -279 q 172 92 99 -17 q 318 222 228 171 q 440 269 372 254 q 353 298 394 286 q 269 310 313 310 q 151 250 186 310 l 129 265 q 166 337 150 313 q 200 378 182 361 q 279 407 231 407 q 322 402 303 407 q 378 386 342 397 q 506 353 424 371 q 686 339 588 336 l 719 339 l 711 310 m 463 -85 q 522 -149 503 -115 q 450 -221 496 -179 q 374 -146 417 -181 l 438 -81 q 374 -19 410 -51 q 446 53 413 17 q 488 17 467 39 q 522 -24 510 -4 q 463 -85 481 -69 z "},"څ":{"ha":803,"x_min":99,"x_max":719,"o":"m 711 310 q 686 224 700 261 q 619 228 653 228 q 469 208 543 228 q 335 154 394 189 q 219 45 261 111 q 176 -104 176 -21 q 231 -254 176 -193 q 436 -346 293 -322 q 558 -360 497 -356 l 589 -362 q 672 -371 626 -364 l 665 -392 q 594 -403 624 -393 q 533 -431 565 -412 q 473 -458 501 -449 q 401 -467 444 -467 q 269 -440 329 -467 q 168 -364 210 -412 q 99 -151 99 -279 q 172 92 99 -17 q 318 222 228 171 q 440 269 372 254 q 353 298 394 286 q 269 310 313 310 q 151 250 186 310 l 129 265 q 166 337 150 313 q 200 378 182 361 q 279 407 231 407 q 322 402 303 407 q 378 386 342 397 q 506 353 424 371 q 686 339 588 336 l 719 339 l 711 310 m 381 632 q 304 707 343 676 q 376 781 347 747 q 419 745 397 767 q 453 704 440 724 q 381 632 419 665 m 436 632 q 480 597 458 618 q 514 556 501 575 q 442 483 488 525 q 382 544 415 517 q 321 483 360 518 q 243 558 285 525 q 315 632 296 611 q 379 572 346 611 q 436 632 421 614 z "},"چ":{"ha":803,"x_min":99,"x_max":719,"o":"m 711 310 q 686 224 700 261 q 619 228 653 228 q 469 208 543 228 q 335 154 394 189 q 219 45 261 111 q 176 -104 176 -21 q 231 -254 176 -193 q 436 -346 293 -322 q 558 -360 497 -356 l 589 -362 q 672 -371 626 -364 l 665 -392 q 594 -403 624 -393 q 533 -431 565 -412 q 473 -458 501 -449 q 401 -467 444 -467 q 269 -440 329 -467 q 168 -364 210 -412 q 99 -151 99 -279 q 172 92 99 -17 q 318 222 228 171 q 440 269 372 254 q 353 298 394 286 q 269 310 313 310 q 151 250 186 310 l 129 265 q 166 337 150 313 q 200 378 182 361 q 279 407 231 407 q 322 402 303 407 q 378 386 342 397 q 506 353 424 371 q 686 339 588 336 l 719 339 l 711 310 m 592 -22 q 519 -94 553 -64 q 460 -33 493 -61 l 425 -69 l 399 -94 q 321 -18 360 -49 q 393 54 360 18 q 457 -4 426 33 q 494 33 457 -4 l 514 54 q 558 19 536 40 q 592 -22 579 -3 m 538 -171 q 465 -243 511 -201 q 389 -168 432 -204 q 460 -94 442 -115 q 503 -130 482 -108 q 538 -171 525 -151 z "},"ڇ":{"ha":803,"x_min":99,"x_max":719,"o":"m 711 310 q 686 224 700 261 q 619 228 653 228 q 469 208 543 228 q 335 154 394 189 q 219 45 261 111 q 176 -104 176 -21 q 231 -254 176 -193 q 436 -346 293 -322 q 558 -360 497 -356 l 589 -362 q 672 -371 626 -364 l 665 -392 q 594 -403 624 -393 q 533 -431 565 -412 q 473 -458 501 -449 q 401 -467 444 -467 q 269 -440 329 -467 q 168 -364 210 -412 q 99 -151 99 -279 q 172 92 99 -17 q 318 222 228 171 q 440 269 372 254 q 353 298 394 286 q 269 310 313 310 q 151 250 186 310 l 129 265 q 166 337 150 313 q 200 378 182 361 q 279 407 231 407 q 322 402 303 407 q 378 386 342 397 q 506 353 424 371 q 686 339 588 336 l 719 339 l 711 310 m 314 -149 q 385 -78 351 -112 q 314 -11 358 -47 q 386 63 367 42 q 450 3 413 46 q 507 63 492 44 q 551 27 529 49 q 585 -14 572 6 q 517 -83 561 -42 q 585 -151 564 -118 q 513 -224 558 -182 q 453 -162 486 -190 q 392 -224 431 -189 q 314 -149 356 -182 m 397 -82 q 450 -135 417 -99 q 506 -78 485 -103 q 453 -25 489 -58 q 397 -82 433 -50 z "},"ڈ":{"ha":574,"x_min":56,"x_max":490,"o":"m 490 238 q 472 142 490 189 q 422 61 454 94 q 238 -8 356 -8 q 90 49 135 -8 q 56 168 56 94 q 61 228 56 203 l 85 233 q 115 163 89 189 q 154 134 132 143 q 210 125 176 125 l 267 125 q 365 148 328 125 q 417 197 401 171 q 433 228 433 222 q 406 268 433 232 q 334 344 379 304 q 229 408 289 385 q 263 525 238 456 q 320 493 286 515 q 386 443 354 471 q 461 353 432 401 q 490 238 490 304 m 207 838 q 236 801 218 819 q 224 786 228 793 q 222 761 221 779 q 231 716 229 729 q 232 681 233 703 q 275 724 254 711 q 313 738 296 738 q 346 725 329 738 q 363 697 363 713 q 322 625 363 658 q 235 594 278 594 l 176 594 l 163 639 l 203 639 l 218 667 q 203 751 214 715 q 185 804 193 786 l 207 838 m 340 671 q 323 694 333 685 q 293 703 313 703 q 228 639 256 701 l 264 639 q 308 648 288 639 q 340 671 329 657 z "},"ډ":{"ha":574,"x_min":56,"x_max":490,"o":"m 386 443 q 461 353 432 401 q 490 238 490 304 q 472 142 490 189 q 422 61 454 94 q 304 -1 376 14 q 328 -69 328 -29 q 315 -119 328 -99 q 249 -150 297 -150 q 191 -126 208 -150 q 174 -79 174 -101 q 193 -6 174 -36 q 90 49 125 6 q 56 168 56 94 q 61 228 56 203 l 85 233 q 115 163 89 189 q 154 134 132 143 q 210 125 176 125 l 267 125 q 365 148 328 125 q 417 197 401 171 q 433 228 433 222 q 406 268 433 232 q 334 344 379 304 q 229 408 289 385 q 263 525 238 456 q 320 493 286 515 q 386 443 354 471 m 240 -96 q 284 -89 261 -96 q 307 -58 307 -82 q 290 -24 307 -39 q 242 -8 274 -8 q 210 -23 221 -8 q 200 -53 200 -37 q 240 -96 200 -96 z "},"ڊ":{"ha":574,"x_min":56,"x_max":490,"o":"m 490 238 q 472 142 490 189 q 422 61 454 94 q 238 -8 356 -8 q 90 49 135 -8 q 56 168 56 94 q 61 228 56 203 l 85 233 q 115 163 89 189 q 154 134 132 143 q 210 125 176 125 l 267 125 q 365 148 328 125 q 417 197 401 171 q 433 228 433 222 q 406 268 433 232 q 334 344 379 304 q 229 408 289 385 q 263 525 238 456 q 320 493 286 515 q 386 443 354 471 q 461 353 432 401 q 490 238 490 304 m 239 -76 q 283 -114 261 -93 q 317 -153 304 -135 q 244 -225 289 -183 q 168 -150 207 -181 q 239 -76 204 -117 z "},"ڋ":{"ha":574,"x_min":56,"x_max":490,"o":"m 490 238 q 472 142 490 189 q 422 61 454 94 q 238 -8 356 -8 q 90 49 135 -8 q 56 168 56 94 q 61 228 56 203 l 85 233 q 115 163 89 189 q 154 134 132 143 q 210 125 176 125 l 267 125 q 365 148 328 125 q 417 197 401 171 q 433 228 433 222 q 406 268 433 232 q 334 344 379 304 q 229 408 289 385 q 263 525 238 456 q 320 493 286 515 q 386 443 354 471 q 461 353 432 401 q 490 238 490 304 m 207 838 q 236 801 218 819 q 224 786 228 793 q 222 761 221 779 q 231 716 229 729 q 232 681 233 703 q 275 724 254 711 q 313 738 296 738 q 346 725 329 738 q 363 697 363 713 q 322 625 363 658 q 235 594 278 594 l 176 594 l 163 639 l 203 639 l 218 667 q 203 751 214 715 q 185 804 193 786 l 207 838 m 340 671 q 323 694 333 685 q 293 703 313 703 q 228 639 256 701 l 264 639 q 308 648 288 639 q 340 671 329 657 m 239 -76 q 283 -114 261 -93 q 317 -153 304 -135 q 244 -225 289 -183 q 168 -150 207 -181 q 239 -76 204 -117 z "},"ڌ":{"ha":574,"x_min":56,"x_max":490,"o":"m 490 238 q 472 142 490 189 q 422 61 454 94 q 238 -8 356 -8 q 90 49 135 -8 q 56 168 56 94 q 61 228 56 203 l 85 233 q 115 163 89 189 q 154 134 132 143 q 210 125 176 125 l 267 125 q 365 148 328 125 q 417 197 401 171 q 433 228 433 222 q 406 268 433 232 q 334 344 379 304 q 229 408 289 385 q 263 525 238 456 q 320 493 286 515 q 386 443 354 471 q 461 353 432 401 q 490 238 490 304 m 321 743 q 365 708 343 729 q 399 667 386 686 q 326 594 372 636 q 267 656 300 628 q 206 594 244 629 q 128 669 169 636 q 200 743 181 722 q 264 683 226 726 q 321 743 306 725 z "},"ڍ":{"ha":574,"x_min":56,"x_max":490,"o":"m 490 238 q 472 142 490 189 q 422 61 454 94 q 238 -8 356 -8 q 90 49 135 -8 q 56 168 56 94 q 61 228 56 203 l 85 233 q 115 163 89 189 q 154 134 132 143 q 210 125 176 125 l 267 125 q 365 148 328 125 q 417 197 401 171 q 433 228 433 222 q 406 268 433 232 q 334 344 379 304 q 229 408 289 385 q 263 525 238 456 q 320 493 286 515 q 386 443 354 471 q 461 353 432 401 q 490 238 490 304 m 301 -76 q 345 -112 324 -90 q 379 -153 367 -133 q 307 -225 353 -183 q 247 -164 281 -192 q 186 -225 225 -190 q 108 -150 150 -183 q 181 -76 161 -97 q 244 -136 207 -93 q 301 -76 286 -94 z "},"ڎ":{"ha":574,"x_min":56,"x_max":490,"o":"m 490 238 q 472 142 490 189 q 422 61 454 94 q 238 -8 356 -8 q 90 49 135 -8 q 56 168 56 94 q 61 228 56 203 l 85 233 q 115 163 89 189 q 154 134 132 143 q 210 125 176 125 l 267 125 q 365 148 328 125 q 417 197 401 171 q 433 228 433 222 q 406 268 433 232 q 334 344 379 304 q 229 408 289 385 q 263 525 238 456 q 320 493 286 515 q 386 443 354 471 q 461 353 432 401 q 490 238 490 304 m 265 743 q 189 818 228 788 q 261 892 232 858 q 303 856 282 878 q 338 815 325 835 q 265 743 304 776 m 321 743 q 365 708 343 729 q 399 667 386 686 q 326 594 372 636 q 267 656 300 628 q 206 594 244 629 q 128 669 169 636 q 200 743 181 722 q 264 683 231 722 q 321 743 306 725 z "},"ڏ":{"ha":574,"x_min":56,"x_max":490,"o":"m 490 238 q 472 142 490 189 q 422 61 454 94 q 238 -8 356 -8 q 90 49 135 -8 q 56 168 56 94 q 61 228 56 203 l 85 233 q 115 163 89 189 q 154 134 132 143 q 210 125 176 125 l 267 125 q 365 148 328 125 q 417 197 401 171 q 433 228 433 222 q 406 268 433 232 q 334 344 379 304 q 229 408 289 385 q 263 525 238 456 q 320 493 286 515 q 386 443 354 471 q 461 353 432 401 q 490 238 490 304 m 399 825 q 326 753 360 783 q 267 814 300 786 l 232 778 l 206 753 q 128 829 167 799 q 200 901 167 865 q 264 843 233 881 q 301 881 264 843 l 321 901 q 365 866 343 888 q 399 825 386 844 m 344 676 q 272 604 318 646 q 196 679 239 643 q 267 753 249 732 q 310 717 289 739 q 344 676 332 696 z "},"ڐ":{"ha":574,"x_min":56,"x_max":490,"o":"m 490 238 q 472 142 490 189 q 422 61 454 94 q 238 -8 356 -8 q 90 49 135 -8 q 56 168 56 94 q 61 228 56 203 l 85 233 q 115 163 89 189 q 154 134 132 143 q 210 125 176 125 l 267 125 q 365 148 328 125 q 417 197 401 171 q 433 228 433 222 q 406 268 433 232 q 334 344 379 304 q 229 408 289 385 q 263 525 238 456 q 320 493 286 515 q 386 443 354 471 q 461 353 432 401 q 490 238 490 304 m 128 669 q 197 740 178 719 q 128 807 167 776 q 200 881 181 860 q 264 821 226 864 q 321 881 306 863 q 365 845 343 867 q 399 804 386 824 q 331 736 374 775 q 399 667 372 706 q 326 594 372 636 q 267 656 300 628 q 206 594 244 629 q 128 669 169 636 m 210 736 q 264 683 233 719 q 319 740 304 724 q 267 793 293 771 q 210 736 246 768 z "},"ڑ":{"ha":424,"x_min":-83,"x_max":340,"o":"m 254 290 q 294 233 274 271 q 328 152 315 196 q 340 47 340 108 q 327 -80 340 -11 q 282 -206 314 -149 q 208 -287 253 -257 q 160 -312 183 -306 q 108 -319 138 -319 l 64 -318 q 10 -315 28 -315 q -71 -325 -28 -315 l -83 -307 l 97 -208 q 225 -118 185 -158 q 281 11 281 -62 q 272 64 281 40 q 249 113 264 88 q 186 190 219 160 q 254 290 219 250 m 129 594 q 158 558 140 576 q 147 543 150 550 q 144 518 143 536 q 153 473 151 486 q 154 438 156 460 q 197 481 176 468 q 235 494 218 494 q 268 482 251 494 q 285 454 285 469 q 244 382 285 415 q 157 351 200 351 l 99 351 l 85 396 l 125 396 l 140 424 q 126 508 136 472 q 107 561 115 543 l 129 594 m 263 428 q 245 451 256 442 q 215 460 235 460 q 150 396 178 458 l 186 396 q 231 405 210 396 q 263 428 251 414 z "},"ڒ":{"ha":424,"x_min":-83,"x_max":340,"o":"m 254 290 q 294 233 274 271 q 328 152 315 196 q 340 47 340 108 q 327 -80 340 -11 q 282 -206 314 -149 q 208 -287 253 -257 q 160 -312 183 -306 q 108 -319 138 -319 l 64 -318 q 10 -315 28 -315 q -71 -325 -28 -315 l -83 -307 l 97 -208 q 225 -118 185 -158 q 281 11 281 -62 q 272 64 281 40 q 249 113 264 88 q 186 190 219 160 q 254 290 219 250 m 278 553 q 206 432 232 500 q 192 365 194 404 l 169 365 q 157 428 169 394 q 85 553 133 499 q 99 588 89 574 q 160 497 142 536 q 175 458 164 489 q 181 438 179 446 q 182 426 182 429 q 183 438 182 429 q 188 458 183 446 q 206 499 197 485 q 263 588 221 532 q 278 553 274 572 z "},"ړ":{"ha":424,"x_min":-83,"x_max":340,"o":"m 267 -231 q 319 -264 300 -236 q 338 -325 338 -292 q 325 -375 338 -354 q 258 -406 307 -406 q 201 -381 218 -406 q 183 -335 183 -357 q 188 -301 183 -318 q 108 -319 151 -319 l 64 -318 q 10 -315 28 -315 q -71 -325 -28 -315 l -83 -307 l 97 -208 q 225 -118 185 -158 q 281 11 281 -62 q 272 64 281 40 q 249 113 264 88 q 186 190 219 160 q 254 290 219 250 q 294 233 274 271 q 328 152 315 196 q 340 47 340 108 q 327 -80 340 -11 q 282 -206 314 -149 q 267 -231 278 -214 m 250 -351 q 294 -344 271 -351 q 317 -314 317 -337 q 300 -279 317 -294 q 251 -264 283 -264 q 233 -268 240 -264 l 219 -279 q 210 -308 210 -293 q 250 -351 210 -351 z "},"ڔ":{"ha":424,"x_min":-83,"x_max":340,"o":"m 254 290 q 294 233 274 271 q 328 152 315 196 q 340 47 340 108 q 327 -80 340 -11 q 282 -206 314 -149 q 208 -287 253 -257 q 160 -312 183 -306 q 108 -319 138 -319 l 64 -318 q 10 -315 28 -315 q -71 -325 -28 -315 l -83 -307 l 97 -208 q 225 -118 185 -158 q 281 11 281 -62 q 272 64 281 40 q 249 113 264 88 q 186 190 219 160 q 254 290 219 250 m 64 -400 q 108 -437 86 -417 q 142 -476 129 -458 q 69 -549 114 -507 q -7 -474 32 -504 q 64 -400 29 -440 z "},"ڕ":{"ha":424,"x_min":-83,"x_max":340,"o":"m 254 290 q 294 233 274 271 q 328 152 315 196 q 340 47 340 108 q 327 -80 340 -11 q 282 -206 314 -149 q 208 -287 253 -257 q 160 -312 183 -306 q 108 -319 138 -319 l 64 -318 q 10 -315 28 -315 q -71 -325 -28 -315 l -83 -307 l 97 -208 q 225 -118 185 -158 q 281 11 281 -62 q 272 64 281 40 q 249 113 264 88 q 186 190 219 160 q 254 290 219 250 m 164 -435 q 92 -556 121 -485 q 78 -624 81 -586 l 56 -624 q 43 -560 56 -593 q -29 -435 19 -492 q -15 -400 -26 -417 q 46 -490 28 -451 q 55 -512 51 -503 q 61 -529 58 -522 q 67 -551 65 -543 q 68 -562 68 -560 q 69 -551 68 -560 q 74 -529 69 -543 q 80 -513 75 -525 q 92 -489 85 -501 q 149 -400 107 -456 q 164 -435 158 -414 z "},"ږ":{"ha":424,"x_min":-83,"x_max":340,"o":"m 254 290 q 294 233 274 271 q 328 152 315 196 q 340 47 340 108 q 327 -80 340 -11 q 282 -206 314 -149 q 208 -287 253 -257 q 160 -312 183 -306 q 108 -319 138 -319 l 64 -318 q 10 -315 28 -315 q -71 -325 -28 -315 l -83 -307 l 97 -208 q 225 -118 185 -158 q 281 11 281 -62 q 272 64 281 40 q 249 113 264 88 q 186 190 219 160 q 254 290 219 250 m 64 -400 q 108 -437 86 -417 q 142 -476 129 -458 q 69 -549 114 -507 q -7 -474 32 -504 q 64 -400 29 -440 m 122 78 q 166 40 144 61 q 200 1 188 19 q 128 -71 172 -29 q 51 4 90 -26 q 122 78 88 38 z "},"ڗ":{"ha":424,"x_min":-83,"x_max":340,"o":"m 254 290 q 294 233 274 271 q 328 152 315 196 q 340 47 340 108 q 327 -80 340 -11 q 282 -206 314 -149 q 208 -287 253 -257 q 160 -312 183 -306 q 108 -319 138 -319 l 64 -318 q 10 -315 28 -315 q -71 -325 -28 -315 l -83 -307 l 97 -208 q 225 -118 185 -158 q 281 11 281 -62 q 272 64 281 40 q 249 113 264 88 q 186 190 219 160 q 254 290 219 250 m 243 500 q 287 465 265 486 q 321 424 308 443 q 249 351 294 393 q 189 413 222 385 q 128 351 167 386 q 50 426 92 393 q 122 500 103 479 q 186 440 149 483 q 243 500 228 482 z "},"ژ":{"ha":424,"x_min":-83,"x_max":340,"o":"m 254 290 q 294 233 274 271 q 328 152 315 196 q 340 47 340 108 q 327 -80 340 -11 q 282 -206 314 -149 q 208 -287 253 -257 q 160 -312 183 -306 q 108 -319 138 -319 l 64 -318 q 10 -315 28 -315 q -71 -325 -28 -315 l -83 -307 l 97 -208 q 225 -118 185 -158 q 281 11 281 -62 q 272 64 281 40 q 249 113 264 88 q 186 190 219 160 q 254 290 219 250 m 188 500 q 111 575 150 544 q 183 649 154 615 q 226 613 204 635 q 260 572 247 592 q 188 500 226 533 m 243 500 q 287 465 265 486 q 321 424 308 443 q 249 351 294 393 q 189 413 222 385 q 128 351 167 386 q 50 426 92 393 q 122 500 103 479 q 186 440 153 479 q 243 500 228 482 z "},"ڙ":{"ha":424,"x_min":-83,"x_max":340,"o":"m 254 290 q 294 233 274 271 q 328 152 315 196 q 340 47 340 108 q 327 -80 340 -11 q 282 -206 314 -149 q 208 -287 253 -257 q 160 -312 183 -306 q 108 -319 138 -319 l 64 -318 q 10 -315 28 -315 q -71 -325 -28 -315 l -83 -307 l 97 -208 q 225 -118 185 -158 q 281 11 281 -62 q 272 64 281 40 q 249 113 264 88 q 186 190 219 160 q 254 290 219 250 m 50 426 q 119 497 100 476 q 50 564 89 533 q 122 638 103 617 q 186 578 149 621 q 243 638 228 619 q 287 602 265 624 q 321 561 308 581 q 253 493 296 532 q 321 424 294 463 q 249 351 294 393 q 189 413 222 385 q 128 351 167 386 q 50 426 92 393 m 132 493 q 186 440 156 476 q 242 497 226 481 q 189 550 215 528 q 132 493 168 525 z "},"ښ":{"ha":1240,"x_min":97,"x_max":1157,"o":"m 1104 365 q 1140 300 1124 343 q 1157 194 1157 257 q 1147 138 1157 178 q 1115 67 1138 99 q 1011 13 1076 13 q 928 43 961 13 q 901 81 910 60 q 892 106 892 101 q 842 19 883 46 q 782 3 817 3 q 728 11 757 3 q 733 -61 733 -36 q 710 -206 733 -142 q 639 -312 686 -269 q 533 -372 597 -351 q 394 -393 471 -393 q 217 -354 289 -393 q 117 -246 146 -315 q 97 -146 97 -199 q 108 -65 97 -114 q 139 33 118 -17 l 165 24 q 156 -67 156 -35 q 183 -158 156 -124 q 269 -215 213 -194 q 406 -236 326 -236 q 599 -192 521 -236 q 657 -144 636 -171 q 678 -87 678 -117 q 572 126 678 -18 q 638 221 593 168 q 688 163 650 193 q 776 133 725 133 q 858 168 835 133 q 883 249 881 203 l 914 265 q 913 235 913 254 q 1014 132 913 132 q 1077 156 1050 132 q 1108 206 1104 179 l 1049 290 q 1104 365 1072 331 m 888 497 q 931 460 910 481 q 965 421 953 439 q 893 349 938 390 q 817 424 856 393 q 888 497 853 457 m 903 -69 q 947 -107 925 -86 q 981 -146 968 -128 q 908 -218 953 -176 q 832 -143 871 -174 q 903 -69 868 -110 z "},"ڛ":{"ha":1240,"x_min":97,"x_max":1157,"o":"m 1104 365 q 1140 300 1124 343 q 1157 194 1157 257 q 1147 138 1157 178 q 1115 67 1138 99 q 1011 13 1076 13 q 928 43 961 13 q 901 81 910 60 q 892 106 892 101 q 842 19 883 46 q 782 3 817 3 q 728 11 757 3 q 733 -61 733 -36 q 710 -206 733 -142 q 639 -312 686 -269 q 533 -372 597 -351 q 394 -393 471 -393 q 217 -354 289 -393 q 117 -246 146 -315 q 97 -146 97 -199 q 108 -65 97 -114 q 139 33 118 -17 l 165 24 q 156 -67 156 -35 q 183 -158 156 -124 q 269 -215 213 -194 q 406 -236 326 -236 q 599 -192 521 -236 q 657 -144 636 -171 q 678 -87 678 -117 q 572 126 678 -18 q 638 221 593 168 q 688 163 650 193 q 776 133 725 133 q 858 168 835 133 q 883 249 881 203 l 914 265 q 913 235 913 254 q 1014 132 913 132 q 1077 156 1050 132 q 1108 206 1104 179 l 1049 290 q 1104 365 1072 331 m 1044 -137 q 972 -210 1006 -179 q 913 -149 946 -176 l 878 -185 l 851 -210 q 774 -133 813 -164 q 846 -61 813 -97 q 910 -119 879 -82 q 947 -82 910 -119 l 967 -61 q 1010 -97 989 -75 q 1044 -137 1032 -118 m 990 -286 q 918 -358 964 -317 q 842 -283 885 -319 q 913 -210 894 -231 q 956 -245 935 -224 q 990 -286 978 -267 z "},"ڜ":{"ha":1240,"x_min":97,"x_max":1157,"o":"m 1104 365 q 1140 300 1124 343 q 1157 194 1157 257 q 1147 138 1157 178 q 1115 67 1138 99 q 1011 13 1076 13 q 928 43 961 13 q 901 81 910 60 q 892 106 892 101 q 842 19 883 46 q 782 3 817 3 q 728 11 757 3 q 733 -61 733 -36 q 710 -206 733 -142 q 639 -312 686 -269 q 533 -372 597 -351 q 394 -393 471 -393 q 217 -354 289 -393 q 117 -246 146 -315 q 97 -146 97 -199 q 108 -65 97 -114 q 139 33 118 -17 l 165 24 q 156 -67 156 -35 q 183 -158 156 -124 q 269 -215 213 -194 q 406 -236 326 -236 q 599 -192 521 -236 q 657 -144 636 -171 q 678 -87 678 -117 q 572 126 678 -18 q 638 221 593 168 q 688 163 650 193 q 776 133 725 133 q 858 168 835 133 q 883 249 881 203 l 914 265 q 913 235 913 254 q 1014 132 913 132 q 1077 156 1050 132 q 1108 206 1104 179 l 1049 290 q 1104 365 1072 331 m 894 497 q 818 572 857 542 q 890 646 861 613 q 933 610 911 632 q 967 569 954 589 q 894 497 933 531 m 950 497 q 994 462 972 483 q 1028 421 1015 440 q 956 349 1001 390 q 896 410 929 382 q 835 349 874 383 q 757 424 799 390 q 829 497 810 476 q 893 438 860 476 q 950 497 935 479 m 1050 -129 q 978 -201 1011 -171 q 918 -140 951 -168 l 883 -176 l 857 -201 q 779 -125 818 -156 q 851 -53 818 -89 q 915 -111 885 -74 q 953 -74 915 -111 l 972 -53 q 1016 -88 994 -67 q 1050 -129 1038 -110 m 996 -278 q 924 -350 969 -308 q 847 -275 890 -311 q 918 -201 900 -222 q 962 -237 940 -215 q 996 -278 983 -258 z "},"ڝ":{"ha":1385,"x_min":97,"x_max":1301,"o":"m 1301 321 q 1267 201 1301 258 q 1174 100 1233 147 q 1046 31 1115 56 q 913 6 976 6 q 829 7 858 6 q 778 15 800 8 q 751 25 767 18 q 724 42 735 32 q 738 -79 738 -35 q 716 -199 738 -137 q 646 -308 694 -261 q 394 -394 556 -394 q 217 -356 289 -394 q 117 -247 146 -317 q 97 -147 97 -200 q 108 -67 97 -115 q 139 32 118 -18 l 165 22 q 156 -68 156 -36 q 183 -160 156 -125 q 269 -217 213 -196 q 406 -237 326 -237 q 599 -193 521 -237 q 657 -145 636 -172 q 678 -89 678 -118 q 572 125 678 -19 q 639 221 603 179 q 707 159 676 175 q 793 136 738 143 q 856 229 832 197 q 919 303 881 261 q 1158 446 1056 446 q 1203 435 1178 446 q 1250 408 1228 425 q 1290 362 1279 385 q 1301 321 1301 339 m 1231 229 q 1223 251 1228 238 q 1214 273 1218 265 q 1203 289 1210 281 q 1159 325 1188 308 q 1101 342 1131 342 q 1035 329 1064 342 q 990 301 1007 317 q 940 254 972 286 q 842 136 900 217 l 1003 136 q 1149 167 1082 136 q 1192 192 1178 181 q 1231 229 1207 204 m 1013 -69 q 1056 -105 1035 -83 q 1090 -146 1078 -126 q 1018 -218 1064 -176 q 958 -157 992 -185 q 897 -218 936 -183 q 819 -143 861 -176 q 892 -69 872 -90 q 956 -129 918 -86 q 1013 -69 997 -87 z "},"ڞ":{"ha":1385,"x_min":97,"x_max":1301,"o":"m 1301 321 q 1267 201 1301 258 q 1174 100 1233 147 q 1046 31 1115 56 q 913 6 976 6 q 829 7 858 6 q 778 15 800 8 q 751 25 767 18 q 724 42 735 32 q 738 -79 738 -35 q 716 -199 738 -137 q 646 -308 694 -261 q 394 -394 556 -394 q 217 -356 289 -394 q 117 -247 146 -317 q 97 -147 97 -200 q 108 -67 97 -115 q 139 32 118 -18 l 165 22 q 156 -68 156 -36 q 183 -160 156 -125 q 269 -217 213 -196 q 406 -237 326 -237 q 599 -193 521 -237 q 657 -145 636 -172 q 678 -89 678 -118 q 572 125 678 -19 q 639 221 603 179 q 707 159 676 175 q 793 136 738 143 q 856 229 832 197 q 919 303 881 261 q 1158 446 1056 446 q 1203 435 1178 446 q 1250 408 1228 425 q 1290 362 1279 385 q 1301 321 1301 339 m 1231 229 q 1223 251 1228 238 q 1214 273 1218 265 q 1203 289 1210 281 q 1159 325 1188 308 q 1101 342 1131 342 q 1035 329 1064 342 q 990 301 1007 317 q 940 254 972 286 q 842 136 900 217 l 1003 136 q 1149 167 1082 136 q 1192 192 1178 181 q 1231 229 1207 204 m 1133 664 q 1057 739 1096 708 q 1129 813 1100 779 q 1172 777 1150 799 q 1206 736 1193 756 q 1133 664 1172 697 m 1189 664 q 1233 628 1211 650 q 1267 588 1254 607 q 1194 515 1240 557 q 1135 576 1168 549 q 1074 515 1113 550 q 996 590 1038 557 q 1068 664 1049 643 q 1132 604 1099 643 q 1189 664 1174 646 z "},"ڟ":{"ha":894,"x_min":97,"x_max":811,"o":"m 811 301 q 780 191 811 244 q 689 94 749 138 q 568 29 635 54 q 438 3 501 4 q 328 0 368 0 l 224 -4 q 97 150 158 46 q 205 142 133 146 q 300 136 276 138 l 360 210 q 314 569 354 382 q 282 683 299 642 l 350 789 q 433 669 386 719 q 403 631 413 651 q 394 576 394 610 l 396 550 q 411 383 408 458 q 411 318 413 347 q 407 274 410 289 q 403 254 404 258 l 429 283 q 555 394 500 361 q 667 428 610 428 q 713 417 688 428 q 760 389 738 407 q 811 301 811 349 m 740 229 q 688 297 718 276 q 606 318 658 318 q 515 285 564 318 q 421 207 465 253 q 378 160 424 210 l 357 136 l 511 136 q 640 158 579 136 q 693 187 672 171 q 740 229 714 203 m 642 646 q 565 721 604 690 q 638 794 608 761 q 680 759 658 781 q 714 718 701 738 q 642 646 681 679 m 697 646 q 741 610 719 632 q 775 569 763 589 q 703 497 749 539 q 643 558 676 531 q 582 497 621 532 q 504 572 546 539 q 576 646 557 625 q 640 586 607 625 q 697 646 682 628 z "},"ڠ":{"ha":715,"x_min":97,"x_max":674,"o":"m 576 324 q 551 236 568 292 q 331 149 419 203 q 215 37 250 97 q 181 -83 181 -24 q 196 -185 181 -146 q 235 -251 211 -224 q 438 -350 301 -329 q 560 -364 499 -360 l 590 -367 q 674 -375 628 -368 l 667 -396 q 596 -407 625 -397 q 535 -435 567 -417 q 474 -462 503 -453 q 403 -471 446 -471 q 276 -446 333 -471 q 175 -374 218 -421 q 97 -174 97 -289 q 100 -136 97 -161 q 158 47 111 -39 q 260 186 204 132 q 197 234 226 204 q 161 297 168 264 q 158 324 158 314 q 197 433 158 378 q 261 496 222 469 q 338 522 300 522 q 417 508 372 522 q 497 464 461 493 l 476 433 q 415 440 449 440 q 338 431 378 440 q 268 403 294 419 q 215 358 242 386 q 354 247 247 279 q 576 324 447 282 m 340 740 q 264 815 303 785 q 336 889 307 856 q 378 853 357 875 q 413 813 400 832 q 340 740 379 774 m 396 740 q 440 705 418 726 q 474 664 461 683 q 401 592 447 633 q 342 653 375 625 q 281 592 319 626 q 203 667 244 633 q 275 740 256 719 q 339 681 306 719 q 396 740 381 722 z "},"ڡ":{"ha":1142,"x_min":97,"x_max":1058,"o":"m 913 589 q 1010 525 972 589 q 1056 374 1047 461 q 1058 328 1058 343 q 1039 190 1058 257 q 954 54 1013 99 q 817 2 900 13 q 551 -8 735 -8 q 410 -6 456 -8 q 322 4 364 -3 q 177 58 229 19 q 107 161 125 97 q 97 247 97 199 q 101 315 97 281 l 128 306 q 157 222 136 256 q 318 135 203 153 q 418 126 364 128 q 565 125 472 125 l 790 126 q 909 143 865 126 q 978 192 953 160 q 1001 235 993 211 q 1007 282 1010 258 q 900 246 969 246 q 810 275 842 246 q 772 374 772 308 q 783 447 772 408 q 810 515 793 485 q 851 567 825 544 q 913 589 876 589 m 988 383 q 892 496 964 496 q 835 469 853 496 q 817 418 817 443 q 834 372 817 396 q 900 349 851 349 q 955 360 933 349 q 988 383 976 371 z "},"ڢ":{"ha":1142,"x_min":97,"x_max":1058,"o":"m 913 589 q 1010 525 972 589 q 1056 374 1047 461 q 1058 328 1058 343 q 1039 190 1058 257 q 954 54 1013 99 q 817 2 900 13 q 551 -8 735 -8 q 410 -6 456 -8 q 322 4 364 -3 q 177 58 229 19 q 107 161 125 97 q 97 247 97 199 q 101 315 97 281 l 128 306 q 157 222 136 256 q 318 135 203 153 q 418 126 364 128 q 565 125 472 125 l 790 126 q 909 143 865 126 q 978 192 953 160 q 1001 235 993 211 q 1007 282 1010 258 q 900 246 969 246 q 810 275 842 246 q 772 374 772 308 q 783 447 772 408 q 810 515 793 485 q 851 567 825 544 q 913 589 876 589 m 988 383 q 892 496 964 496 q 835 469 853 496 q 817 418 817 443 q 834 372 817 396 q 900 349 851 349 q 955 360 933 349 q 988 383 976 371 m 849 -64 q 892 -101 871 -81 q 926 -140 914 -122 q 854 -212 899 -171 q 778 -137 817 -168 q 849 -64 814 -104 z "},"ڣ":{"ha":1142,"x_min":97,"x_max":1058,"o":"m 913 589 q 1010 525 972 589 q 1056 374 1047 461 q 1058 328 1058 343 q 1039 190 1058 257 q 954 54 1013 99 q 817 2 900 13 q 551 -8 735 -8 q 410 -6 456 -8 q 322 4 364 -3 q 177 58 229 19 q 107 161 125 97 q 97 247 97 199 q 101 315 97 281 l 128 306 q 157 222 136 256 q 318 135 203 153 q 418 126 364 128 q 565 125 472 125 l 790 126 q 909 143 865 126 q 978 192 953 160 q 1001 235 993 211 q 1007 282 1010 258 q 900 246 969 246 q 810 275 842 246 q 772 374 772 308 q 783 447 772 408 q 810 515 793 485 q 851 567 825 544 q 913 589 876 589 m 988 383 q 892 496 964 496 q 835 469 853 496 q 817 418 817 443 q 834 372 817 396 q 900 349 851 349 q 955 360 933 349 q 988 383 976 371 m 908 807 q 952 769 931 790 q 986 731 974 749 q 914 658 958 700 q 838 733 876 703 q 908 807 874 767 m 849 -64 q 892 -101 871 -81 q 926 -140 914 -122 q 854 -212 899 -171 q 778 -137 817 -168 q 849 -64 814 -104 z "},"ڤ":{"ha":1142,"x_min":97,"x_max":1058,"o":"m 913 589 q 1010 525 972 589 q 1056 374 1047 461 q 1058 328 1058 343 q 1039 190 1058 257 q 954 54 1013 99 q 817 2 900 13 q 551 -8 735 -8 q 410 -6 456 -8 q 322 4 364 -3 q 177 58 229 19 q 107 161 125 97 q 97 247 97 199 q 101 315 97 281 l 128 306 q 157 222 136 256 q 318 135 203 153 q 418 126 364 128 q 565 125 472 125 l 790 126 q 909 143 865 126 q 978 192 953 160 q 1001 235 993 211 q 1007 282 1010 258 q 900 246 969 246 q 810 275 842 246 q 772 374 772 308 q 783 447 772 408 q 810 515 793 485 q 851 567 825 544 q 913 589 876 589 m 988 383 q 892 496 964 496 q 835 469 853 496 q 817 418 817 443 q 834 372 817 396 q 900 349 851 349 q 955 360 933 349 q 988 383 976 371 m 915 807 q 839 882 878 851 q 911 956 882 922 q 953 920 932 942 q 988 879 975 899 q 915 807 954 840 m 971 807 q 1015 772 993 793 q 1049 731 1036 750 q 976 658 1022 700 q 917 719 950 692 q 856 658 894 693 q 778 733 819 700 q 850 807 831 786 q 914 747 881 786 q 971 807 956 789 z "},"ڥ":{"ha":1142,"x_min":97,"x_max":1058,"o":"m 913 589 q 1010 525 972 589 q 1056 374 1047 461 q 1058 328 1058 343 q 1039 190 1058 257 q 954 54 1013 99 q 817 2 900 13 q 551 -8 735 -8 q 410 -6 456 -8 q 322 4 364 -3 q 177 58 229 19 q 107 161 125 97 q 97 247 97 199 q 101 315 97 281 l 128 306 q 157 222 136 256 q 318 135 203 153 q 418 126 364 128 q 565 125 472 125 l 790 126 q 909 143 865 126 q 978 192 953 160 q 1001 235 993 211 q 1007 282 1010 258 q 900 246 969 246 q 810 275 842 246 q 772 374 772 308 q 783 447 772 408 q 810 515 793 485 q 851 567 825 544 q 913 589 876 589 m 988 383 q 892 496 964 496 q 835 469 853 496 q 817 418 817 443 q 834 372 817 396 q 900 349 851 349 q 955 360 933 349 q 988 383 976 371 m 976 -142 q 904 -214 938 -183 q 844 -153 878 -181 l 810 -189 l 783 -214 q 706 -137 744 -168 q 778 -65 744 -101 q 842 -124 811 -86 q 879 -86 842 -124 l 899 -65 q 942 -101 921 -79 q 976 -142 964 -122 m 922 -290 q 850 -362 896 -321 q 774 -287 817 -324 q 844 -214 826 -235 q 888 -249 867 -228 q 922 -290 910 -271 z "},"ڦ":{"ha":1142,"x_min":97,"x_max":1058,"o":"m 913 589 q 1010 525 972 589 q 1056 374 1047 461 q 1058 328 1058 343 q 1039 190 1058 257 q 954 54 1013 99 q 817 2 900 13 q 551 -8 735 -8 q 410 -6 456 -8 q 322 4 364 -3 q 177 58 229 19 q 107 161 125 97 q 97 247 97 199 q 101 315 97 281 l 128 306 q 157 222 136 256 q 318 135 203 153 q 418 126 364 128 q 565 125 472 125 l 790 126 q 909 143 865 126 q 978 192 953 160 q 1001 235 993 211 q 1007 282 1010 258 q 900 246 969 246 q 810 275 842 246 q 772 374 772 308 q 783 447 772 408 q 810 515 793 485 q 851 567 825 544 q 913 589 876 589 m 988 383 q 892 496 964 496 q 835 469 853 496 q 817 418 817 443 q 834 372 817 396 q 900 349 851 349 q 955 360 933 349 q 988 383 976 371 m 778 733 q 847 804 828 783 q 778 871 817 840 q 850 944 831 924 q 914 885 876 928 q 971 944 956 926 q 1015 909 993 931 q 1049 868 1036 888 q 981 800 1024 839 q 1049 731 1022 769 q 976 658 1022 700 q 917 719 950 692 q 856 658 894 693 q 778 733 819 700 m 860 800 q 914 747 883 783 q 969 804 954 788 q 917 857 943 835 q 860 800 896 832 z "},"ڧ":{"ha":803,"x_min":97,"x_max":719,"o":"m 554 463 q 622 428 590 463 q 651 389 640 408 q 676 338 663 369 q 709 222 699 281 q 719 111 719 163 q 700 -33 719 38 q 639 -160 681 -106 q 538 -243 599 -212 q 385 -275 471 -275 q 215 -237 285 -275 q 115 -128 144 -200 q 97 -35 97 -85 q 139 151 97 50 l 165 142 q 154 51 154 86 q 183 -40 154 -3 q 269 -98 214 -78 q 389 -118 325 -118 q 510 -97 457 -118 q 599 -37 563 -75 q 637 13 622 -14 q 658 57 651 39 q 665 81 664 75 l 651 144 q 636 136 651 144 q 601 125 624 131 q 549 119 578 119 q 454 149 486 119 q 418 247 418 181 q 428 322 418 283 q 456 389 439 360 q 506 447 479 431 q 554 463 532 463 m 539 369 q 485 347 507 369 q 463 292 463 325 q 489 238 463 254 q 550 222 515 222 q 595 231 576 222 q 623 247 614 239 q 633 258 632 256 q 624 292 633 265 q 594 344 615 319 q 539 369 574 369 m 550 681 q 594 643 572 664 q 628 604 615 622 q 556 532 600 574 q 479 607 518 576 q 550 681 515 640 z "},"ڨ":{"ha":803,"x_min":97,"x_max":719,"o":"m 554 463 q 622 428 590 463 q 651 389 640 408 q 676 338 663 369 q 709 222 699 281 q 719 111 719 163 q 700 -33 719 38 q 639 -160 681 -106 q 538 -243 599 -212 q 385 -275 471 -275 q 215 -237 285 -275 q 115 -128 144 -200 q 97 -35 97 -85 q 139 151 97 50 l 165 142 q 154 51 154 86 q 183 -40 154 -3 q 269 -98 214 -78 q 389 -118 325 -118 q 510 -97 457 -118 q 599 -37 563 -75 q 637 13 622 -14 q 658 57 651 39 q 665 81 664 75 l 651 144 q 636 136 651 144 q 601 125 624 131 q 549 119 578 119 q 454 149 486 119 q 418 247 418 181 q 428 322 418 283 q 456 389 439 360 q 506 447 479 431 q 554 463 532 463 m 539 369 q 485 347 507 369 q 463 292 463 325 q 489 238 463 254 q 550 222 515 222 q 595 231 576 222 q 623 247 614 239 q 633 258 632 256 q 624 292 633 265 q 594 344 615 319 q 539 369 574 369 m 557 681 q 481 756 519 725 q 553 829 524 796 q 595 794 574 815 q 629 753 617 772 q 557 681 596 714 m 613 681 q 656 645 635 667 q 690 604 678 624 q 618 532 664 574 q 558 593 592 565 q 497 532 536 567 q 419 607 461 574 q 492 681 472 660 q 556 621 522 660 q 613 681 597 663 z "},"ک":{"ha":1074,"x_min":97,"x_max":1046,"o":"m 128 303 q 157 219 136 253 q 216 169 178 188 q 318 142 254 151 q 565 128 415 128 l 638 128 q 781 132 732 128 q 846 152 815 132 q 886 193 876 172 q 826 310 886 239 q 696 438 767 381 l 683 413 l 646 454 q 668 569 651 506 q 1046 789 783 665 q 1022 667 1038 724 q 742 525 854 588 q 865 413 821 471 q 926 302 903 364 q 950 178 950 240 q 906 49 950 94 q 778 -3 861 4 q 617 -7 724 -7 q 551 -8 594 -8 q 403 -6 447 -8 q 322 1 358 -4 q 177 56 229 17 q 107 158 125 94 q 97 244 97 196 q 101 313 97 278 l 128 303 z "},"ڪ":{"ha":1200,"x_min":97,"x_max":1117,"o":"m 615 694 q 592 578 610 642 q 469 526 529 558 q 372 457 408 494 q 397 417 375 433 q 451 393 418 400 q 533 383 486 383 l 671 386 q 832 390 769 390 q 1067 296 993 390 q 1117 142 1114 232 q 1106 115 1114 133 q 1085 78 1099 96 q 961 10 1039 14 q 551 -3 636 -3 q 410 0 456 -3 q 322 10 364 3 q 177 64 229 25 q 107 167 125 103 q 97 253 97 204 q 101 321 97 286 l 128 311 q 157 228 136 261 q 318 147 197 165 q 522 135 407 135 l 601 136 q 749 139 682 139 q 901 142 851 139 l 1065 147 q 1050 195 1057 179 q 1026 226 1043 211 q 875 286 964 286 q 650 281 814 286 l 519 278 q 446 285 485 278 q 346 329 378 297 q 318 394 318 357 q 337 468 318 428 q 389 547 356 508 q 615 694 469 639 z "},"ګ":{"ha":1074,"x_min":97,"x_max":1046,"o":"m 1046 789 q 1022 667 1038 724 l 944 629 q 971 601 961 619 q 981 560 981 582 q 971 521 981 538 q 917 496 957 496 q 871 515 885 496 q 857 553 857 535 q 863 589 857 574 q 742 525 793 554 q 865 413 821 471 q 926 302 903 364 q 950 178 950 240 q 906 49 950 94 q 778 -3 861 4 q 617 -7 724 -7 q 551 -8 594 -8 q 403 -6 447 -8 q 322 1 358 -4 q 177 56 229 17 q 107 158 125 94 q 97 244 97 196 q 101 313 97 278 l 128 303 q 157 219 136 253 q 216 169 178 188 q 318 142 254 151 q 565 128 415 128 l 638 128 q 781 132 732 128 q 846 152 815 132 q 886 193 876 172 q 826 310 886 239 q 696 438 767 381 l 683 413 l 646 454 q 668 569 651 506 q 1046 789 783 665 m 911 610 q 899 607 907 610 l 894 606 q 882 592 886 601 q 878 574 878 582 q 910 539 878 539 q 945 544 926 539 q 964 569 964 550 q 951 597 964 585 q 911 610 938 610 z "},"ڬ":{"ha":1058,"x_min":97,"x_max":975,"o":"m 971 668 q 942 629 951 650 q 933 576 933 608 l 935 551 q 949 447 943 483 q 968 313 963 357 q 975 218 974 268 q 932 75 968 128 q 829 6 894 19 q 571 -8 763 -8 q 321 3 403 -8 q 233 28 272 10 q 165 68 193 46 q 107 160 122 104 q 97 246 97 194 q 101 314 97 279 l 128 304 q 157 221 136 254 q 218 169 179 186 q 318 142 257 151 q 558 128 411 128 q 769 135 676 128 q 834 145 813 139 q 869 165 856 151 q 906 211 882 178 q 869 444 892 335 q 807 681 836 607 l 888 786 q 919 731 899 758 q 971 668 939 704 m 635 304 q 615 259 635 281 q 550 211 596 238 q 460 206 507 206 q 417 207 431 206 q 478 226 429 211 q 558 255 528 240 q 588 282 588 269 q 576 292 588 289 q 533 297 564 294 q 467 338 467 301 q 533 422 467 388 q 615 454 575 444 q 589 413 606 435 q 500 368 532 394 q 569 335 500 335 q 621 330 607 335 q 635 304 635 325 m 546 658 q 590 621 568 642 q 624 582 611 600 q 551 510 596 551 q 475 585 514 554 q 546 658 511 618 z "},"ڭ":{"ha":1058,"x_min":97,"x_max":975,"o":"m 971 668 q 942 629 951 650 q 933 576 933 608 l 935 551 q 949 447 943 483 q 968 313 963 357 q 975 218 974 268 q 932 75 968 128 q 829 6 894 19 q 571 -8 763 -8 q 321 3 403 -8 q 233 28 272 10 q 165 68 193 46 q 107 160 122 104 q 97 246 97 194 q 101 314 97 279 l 128 304 q 157 221 136 254 q 218 169 179 186 q 318 142 257 151 q 558 128 411 128 q 769 135 676 128 q 834 145 813 139 q 869 165 856 151 q 906 211 882 178 q 869 444 892 335 q 807 681 836 607 l 888 786 q 919 731 899 758 q 971 668 939 704 m 635 304 q 615 259 635 281 q 550 211 596 238 q 460 206 507 206 q 417 207 431 206 q 478 226 429 211 q 558 255 528 240 q 588 282 588 269 q 576 292 588 289 q 533 297 564 294 q 467 338 467 301 q 533 422 467 388 q 615 454 575 444 q 589 413 606 435 q 500 368 532 394 q 569 335 500 335 q 621 330 607 335 q 635 304 635 325 m 553 658 q 476 733 515 703 q 549 807 519 774 q 591 772 569 793 q 625 731 613 750 q 553 658 592 692 m 608 658 q 652 623 631 644 q 686 582 674 601 q 614 510 660 551 q 554 571 588 543 q 493 510 532 544 q 415 585 457 551 q 488 658 468 638 q 551 599 518 638 q 608 658 593 640 z "},"ڮ":{"ha":1058,"x_min":97,"x_max":975,"o":"m 971 668 q 942 629 951 650 q 933 576 933 608 l 935 551 q 949 447 943 483 q 968 313 963 357 q 975 218 974 268 q 932 75 968 128 q 829 6 894 19 q 571 -8 763 -8 q 321 3 403 -8 q 233 28 272 10 q 165 68 193 46 q 107 160 122 104 q 97 246 97 194 q 101 314 97 279 l 128 304 q 157 221 136 254 q 218 169 179 186 q 318 142 257 151 q 558 128 411 128 q 769 135 676 128 q 834 145 813 139 q 869 165 856 151 q 906 211 882 178 q 869 444 892 335 q 807 681 836 607 l 888 786 q 919 731 899 758 q 971 668 939 704 m 635 304 q 615 259 635 281 q 550 211 596 238 q 460 206 507 206 q 417 207 431 206 q 478 226 429 211 q 558 255 528 240 q 588 282 588 269 q 576 292 588 289 q 533 297 564 294 q 467 338 467 301 q 533 422 467 388 q 615 454 575 444 q 589 413 606 435 q 500 368 532 394 q 569 335 500 335 q 621 330 607 335 q 635 304 635 325 m 688 -154 q 615 -226 649 -196 q 556 -165 589 -193 l 521 -201 l 494 -226 q 417 -150 456 -181 q 489 -78 456 -114 q 553 -136 522 -99 q 590 -99 553 -136 l 610 -78 q 653 -113 632 -92 q 688 -154 675 -135 m 633 -303 q 561 -375 607 -333 q 485 -300 528 -336 q 556 -226 538 -247 q 599 -262 578 -240 q 633 -303 621 -283 z "}}}
